Hack-Italic-PS.ufo
<glyph name="parenright" format="1">
  <advance width="1233"/>
  <unicode hex="0029"/>
  <outline>
    <contour>
      <point x="320" y="-270" type="line" name="av01"/>
      <point x="478" y="-69"/>
      <point x="597" y="133" name="dh01"/>
      <point x="676" y="336" type="curve" smooth="yes"/>
      <point x="756" y="540" name="at01"/>
      <point x="795" y="743"/>
      <point x="795" y="940" type="curve" smooth="yes"/>
      <point x="795" y="1039" name="dh02"/>
      <point x="785" y="1142"/>
      <point x="766" y="1241" type="curve" smooth="yes" name="av02"/>
      <point x="747" y="1338"/>
      <point x="716" y="1446"/>
      <point x="676" y="1554" type="curve" name="sh01"/>
      <point x="836" y="1554" type="line"/>
      <point x="889" y="1427"/>
      <point x="927" y="1312"/>
      <point x="952" y="1209" type="curve" smooth="yes"/>
      <point x="977" y="1104"/>
      <point x="989" y="1008"/>
      <point x="989" y="904" type="curve" smooth="yes"/>
      <point x="989" y="709"/>
      <point x="947" y="507"/>
      <point x="860" y="307" type="curve" smooth="yes"/>
      <point x="772" y="104"/>
      <point x="647" y="-85"/>
      <point x="479" y="-270" type="curve"/>
    </contour>
  </outline>
</glyph>
<glyph name="D" format="1">
  <advance width="1233"/>
  <unicode hex="0044"/>
  <outline>
    <contour>
      <point x="283" y="1493" type="line" name="at01"/>
      <point x="586" y="1493" type="line" smooth="yes"/>
      <point x="768" y="1493"/>
      <point x="904" y="1452" name="dh02"/>
      <point x="995" y="1369" type="curve" smooth="yes"/>
      <point x="1087" y="1285"/>
      <point x="1130" y="1161"/>
      <point x="1130" y="986" type="curve" smooth="yes" name="ab01"/>
      <point x="1130" y="887"/>
      <point x="1116" y="775" name="sv01"/>
      <point x="1088" y="659" type="curve" smooth="yes"/>
      <point x="1059" y="539"/>
      <point x="1018" y="434"/>
      <point x="975" y="354" type="curve" smooth="yes" name="dh01"/>
      <point x="904" y="223"/>
      <point x="816" y="135" name="sv02"/>
      <point x="716" y="82" type="curve" smooth="yes"/>
      <point x="613" y="27"/>
      <point x="472" y="0"/>
      <point x="295" y="0" type="curve" smooth="yes" name="sh01"/>
      <point x="-8" y="0" type="line"/>
    </contour>
    <contour>
      <point x="324" y="166" type="line" smooth="yes"/>
      <point x="447" y="166"/>
      <point x="546" y="187"/>
      <point x="621" y="229" type="curve" smooth="yes"/>
      <point x="696" y="270"/>
      <point x="756" y="338"/>
      <point x="801" y="432" type="curve" smooth="yes"/>
      <point x="834" y="501"/>
      <point x="866" y="596"/>
      <point x="890" y="707" type="curve" smooth="yes"/>
      <point x="913" y="814"/>
      <point x="924" y="913"/>
      <point x="924" y="993" type="curve" smooth="yes"/>
      <point x="924" y="1120"/>
      <point x="898" y="1200"/>
      <point x="842" y="1251" type="curve" smooth="yes"/>
      <point x="787" y="1302"/>
      <point x="696" y="1327"/>
      <point x="567" y="1327" type="curve" smooth="yes"/>
      <point x="453" y="1327" type="line"/>
      <point x="227" y="166" type="line"/>
    </contour>
  </outline>
</glyph>
<glyph name="n" format="1">
  <advance width="1233"/>
  <unicode hex="006E"/>
  <outline>
    <contour>
      <point x="303" y="1120" type="line" name="at01"/>
      <point x="467" y="1120" type="line"/>
      <point x="455" y="952" type="line" name="iv01"/>
      <point x="504" y="1016"/>
      <point x="559" y="1065" name="at02"/>
      <point x="618" y="1098" type="curve" smooth="yes"/>
      <point x="675" y="1130" name="dh02"/>
      <point x="732" y="1147" name="sh01"/>
      <point x="807" y="1147" type="curve" smooth="yes"/>
      <point x="895" y="1147" name="ab01"/>
      <point x="968" y="1123"/>
      <point x="1019" y="1075" type="curve" smooth="yes"/>
      <point x="1070" y="1028"/>
      <point x="1096" y="957" name="dh01"/>
      <point x="1096" y="877" type="curve" smooth="yes"/>
      <point x="1096" y="854" name="sv01"/>
      <point x="1094" y="820"/>
      <point x="1091" y="793" type="curve" smooth="yes"/>
      <point x="1088" y="766" name="ab02"/>
      <point x="1084" y="741"/>
      <point x="1075" y="694" type="curve" smooth="yes"/>
      <point x="940" y="0" type="line" name="sh02"/>
      <point x="756" y="0" type="line"/>
      <point x="891" y="695" type="line"/>
      <point x="895" y="707"/>
      <point x="891" y="701"/>
      <point x="894" y="709" type="curve"/>
      <point x="905" y="764"/>
      <point x="909" y="783"/>
      <point x="909" y="817" type="curve" smooth="yes"/>
      <point x="909" y="876"/>
      <point x="894" y="915"/>
      <point x="863" y="944" type="curve" smooth="yes"/>
      <point x="832" y="973"/>
      <point x="788" y="987"/>
      <point x="730" y="987" type="curve" smooth="yes"/>
      <point x="644" y="987"/>
      <point x="572" y="956"/>
      <point x="513" y="894" type="curve" smooth="yes"/>
      <point x="454" y="831"/>
      <point x="413" y="744"/>
      <point x="391" y="633" type="curve" smooth="yes"/>
      <point x="268" y="0" type="line"/>
      <point x="84" y="0" type="line"/>
    </contour>
  </outline>
</glyph>
<glyph name="t" format="1">
  <advance width="1233"/>
  <unicode hex="0074"/>
  <outline>
    <contour>
      <point x="682" y="-4" type="line" smooth="yes" name="ab01"/>
      <point x="563" y="-4"/>
      <point x="488" y="17" name="dh01"/>
      <point x="437" y="52" type="curve" smooth="yes"/>
      <point x="384" y="89"/>
      <point x="358" y="142" name="sv01"/>
      <point x="358" y="222" type="curve" smooth="yes" name="sv02"/>
      <point x="358" y="238" name="at01"/>
      <point x="359" y="261"/>
      <point x="362" y="284" type="curve" smooth="yes" name="sv03"/>
      <point x="365" y="301"/>
      <point x="368" y="330" name="at02"/>
      <point x="375" y="365" type="curve" smooth="yes"/>
      <point x="494" y="977" type="line" name="sv04"/>
      <point x="195" y="977" type="line" name="sv05"/>
      <point x="223" y="1120" type="line"/>
      <point x="522" y="1120" type="line" name="sh01"/>
      <point x="584" y="1438" type="line" name="dh02"/>
      <point x="768" y="1438" type="line"/>
      <point x="707" y="1120" type="line" name="sv06"/>
      <point x="1124" y="1120" type="line" name="sv07"/>
      <point x="1096" y="977" type="line" name="ab02"/>
      <point x="678" y="977" type="line"/>
      <point x="559" y="365" type="line"/>
      <point x="550" y="310" type="line"/>
      <point x="548" y="293"/>
      <point x="547" y="277"/>
      <point x="547" y="263" type="curve" smooth="yes"/>
      <point x="547" y="218"/>
      <point x="560" y="187"/>
      <point x="586" y="170" type="curve" smooth="yes"/>
      <point x="612" y="152"/>
      <point x="659" y="143"/>
      <point x="727" y="143" type="curve" smooth="yes"/>
      <point x="934" y="143" type="line"/>
      <point x="905" y="-4" type="line"/>
    </contour>
  </outline>
</glyph>
<glyph name="exclamdown" format="1">
  <advance width="1233"/>
  <unicode hex="00A1"/>
  <outline>
    <contour>
      <point x="713" y="1170" type="curve" smooth="yes" name="sv01"/>
      <point x="669" y="1170"/>
      <point x="636" y="1182" name="dh01"/>
      <point x="612" y="1211" type="curve" smooth="yes"/>
      <point x="584" y="1244" name="at01"/>
      <point x="577" y="1288"/>
      <point x="577" y="1319" type="curve" smooth="yes" name="dh02"/>
      <point x="577" y="1374"/>
      <point x="599" y="1420"/>
      <point x="638" y="1459" type="curve"/>
      <point x="677" y="1496"/>
      <point x="723" y="1514"/>
      <point x="771" y="1514" type="curve" smooth="yes"/>
      <point x="812" y="1514" name="ab01"/>
      <point x="850" y="1501"/>
      <point x="875" y="1474" type="curve" smooth="yes"/>
      <point x="904" y="1442"/>
      <point x="909" y="1398"/>
      <point x="909" y="1378" type="curve" smooth="yes"/>
      <point x="909" y="1321"/>
      <point x="885" y="1261"/>
      <point x="838" y="1218" type="curve"/>
      <point x="806" y="1187"/>
      <point x="766" y="1170"/>
    </contour>
    <contour>
      <point x="498" y="655" type="line"/>
      <point x="606" y="1012" type="line"/>
      <point x="768" y="1012" type="line"/>
      <point x="729" y="655" type="line"/>
      <point x="602" y="0" type="line"/>
      <point x="369" y="0" type="line"/>
    </contour>
  </outline>
</glyph>
<glyph name="sterling" format="1">
  <advance width="1233"/>
  <unicode hex="00A3"/>
  <outline>
    <contour>
      <point x="25" y="170" type="line" name="sv01"/>
      <point x="262" y="170" type="line"/>
      <point x="352" y="635" type="line" name="dv01"/>
      <point x="154" y="635" type="line"/>
      <point x="180" y="778" type="line"/>
      <point x="379" y="778" type="line" name="dv02"/>
      <point x="426" y="1016" type="line" smooth="yes"/>
      <point x="462" y="1199"/>
      <point x="521" y="1317" name="at01"/>
      <point x="608" y="1397" type="curve" smooth="yes" name="at02"/>
      <point x="692" y="1476"/>
      <point x="808" y="1520" name="iv01"/>
      <point x="957" y="1520" type="curve" smooth="yes"/>
      <point x="1006" y="1520" name="sv02"/>
      <point x="1051" y="1515"/>
      <point x="1092" y="1506" type="curve"/>
      <point x="1119" y="1499" name="sv03"/>
      <point x="1176" y="1483"/>
      <point x="1229" y="1462" type="curve" name="sv04"/>
      <point x="1192" y="1278" type="line"/>
      <point x="1156" y="1307" name="sv05"/>
      <point x="1118" y="1329" name="sv06"/>
      <point x="1078" y="1344" type="curve" smooth="yes" name="ab01"/>
      <point x="1038" y="1359"/>
      <point x="996" y="1366"/>
      <point x="952" y="1366" type="curve" smooth="yes"/>
      <point x="857" y="1366"/>
      <point x="789" y="1337"/>
      <point x="738" y="1281" type="curve" smooth="yes"/>
      <point x="687" y="1225"/>
      <point x="651" y="1138"/>
      <point x="623" y="995" type="curve" smooth="yes"/>
      <point x="580" y="778" type="line"/>
      <point x="950" y="778" type="line"/>
      <point x="922" y="635" type="line"/>
      <point x="551" y="635" type="line"/>
      <point x="461" y="170" type="line"/>
      <point x="997" y="170" type="line"/>
      <point x="965" y="0" type="line"/>
      <point x="-8" y="0" type="line"/>
    </contour>
  </outline>
</glyph>
<glyph name="degree" format="1">
  <advance width="1233"/>
  <unicode hex="00B0"/>
  <outline>
    <contour>
      <point x="612" y="885" type="curve" smooth="yes" name="dv01"/>
      <point x="528" y="885"/>
      <point x="448" y="915" name="sh01"/>
      <point x="388" y="975" type="curve" smooth="yes"/>
      <point x="335" y="1028" name="at01"/>
      <point x="299" y="1106"/>
      <point x="299" y="1199" type="curve" smooth="yes"/>
      <point x="299" y="1288"/>
      <point x="331" y="1367" name="sh02"/>
      <point x="390" y="1427" type="curve" smooth="yes"/>
      <point x="447" y="1486"/>
      <point x="526" y="1520" name="dv02"/>
      <point x="615" y="1520" type="curve" smooth="yes"/>
      <point x="655" y="1520" name="ah02"/>
      <point x="700" y="1513"/>
      <point x="740" y="1496" type="curve" smooth="yes" name="sv01"/>
      <point x="779" y="1480"/>
      <point x="816" y="1452" name="sh03"/>
      <point x="843" y="1425" type="curve" smooth="yes"/>
      <point x="875" y="1392"/>
      <point x="899" y="1351" name="ah01"/>
      <point x="911" y="1322" type="curve" smooth="yes" name="sh04"/>
      <point x="926" y="1285"/>
      <point x="934" y="1245"/>
      <point x="934" y="1202" type="curve" smooth="yes"/>
      <point x="934" y="1114"/>
      <point x="901" y="1033"/>
      <point x="842" y="976" type="curve" smooth="yes"/>
      <point x="785" y="920"/>
      <point x="703" y="885"/>
    </contour>
    <contour>
      <point x="614" y="1012" type="curve" smooth="yes"/>
      <point x="669" y="1012"/>
      <point x="719" y="1034"/>
      <point x="752" y="1067" type="curve" smooth="yes"/>
      <point x="791" y="1106"/>
      <point x="807" y="1154"/>
      <point x="807" y="1201" type="curve" smooth="yes"/>
      <point x="807" y="1252"/>
      <point x="787" y="1300"/>
      <point x="751" y="1336" type="curve" smooth="yes"/>
      <point x="720" y="1367"/>
      <point x="672" y="1391"/>
      <point x="616" y="1391" type="curve" smooth="yes"/>
      <point x="563" y="1391"/>
      <point x="515" y="1370"/>
      <point x="482" y="1337" type="curve" smooth="yes"/>
      <point x="446" y="1301"/>
      <point x="426" y="1251"/>
      <point x="426" y="1199" type="curve" smooth="yes"/>
      <point x="426" y="1144"/>
      <point x="446" y="1100"/>
      <point x="481" y="1065" type="curve" smooth="yes"/>
      <point x="517" y="1030"/>
      <point x="563" y="1012"/>
    </contour>
  </outline>
</glyph>
<glyph name="threesuperior" format="1">
  <advance width="1233"/>
  <unicode hex="00B3"/>
  <outline>
    <contour>
      <point x="536" y="1103" type="curve" smooth="yes" name="dv01"/>
      <point x="452" y="1103"/>
      <point x="367" y="1117"/>
      <point x="287" y="1144" type="curve" name="dv02"/>
      <point x="311" y="1265" type="line" name="dh01"/>
      <point x="400" y="1226" name="dv05"/>
      <point x="464" y="1210"/>
      <point x="536" y="1210" type="curve" smooth="yes"/>
      <point x="680" y="1210" name="dv06"/>
      <point x="774" y="1276" name="sh01"/>
      <point x="774" y="1384" type="curve" smooth="yes" name="dv03"/>
      <point x="774" y="1469"/>
      <point x="716" y="1511"/>
      <point x="600" y="1511" type="curve" smooth="yes" name="dv04"/>
      <point x="528" y="1511" type="line" name="sh02"/>
      <point x="549" y="1617" type="line" name="iv01"/>
      <point x="621" y="1617" type="line" smooth="yes" name="dh02"/>
      <point x="751" y="1617"/>
      <point x="836" y="1676"/>
      <point x="836" y="1760" type="curve" smooth="yes"/>
      <point x="836" y="1829"/>
      <point x="778" y="1863"/>
      <point x="671" y="1863" type="curve" smooth="yes"/>
      <point x="604" y="1863"/>
      <point x="545" y="1851"/>
      <point x="461" y="1820" type="curve"/>
      <point x="483" y="1935" type="line"/>
      <point x="580" y="1958"/>
      <point x="661" y="1970"/>
      <point x="728" y="1970" type="curve" smooth="yes"/>
      <point x="895" y="1970"/>
      <point x="983" y="1900"/>
      <point x="983" y="1783" type="curve" smooth="yes"/>
      <point x="983" y="1672"/>
      <point x="904" y="1591"/>
      <point x="772" y="1566" type="curve"/>
      <point x="871" y="1549"/>
      <point x="922" y="1488"/>
      <point x="922" y="1388" type="curve" smooth="yes"/>
      <point x="922" y="1217"/>
      <point x="772" y="1103"/>
    </contour>
  </outline>
</glyph>
<glyph name="Idieresis" format="1">
  <advance width="1233"/>
  <unicode hex="00CF"/>
  <outline>
    <contour>
      <point x="506" y="1627" type="line" smooth="yes" name="dv01"/>
      <point x="486" y="1627"/>
      <point x="475" y="1640"/>
      <point x="479" y="1660" type="curve" smooth="yes" name="dv02"/>
      <point x="507" y="1803" type="line" smooth="yes"/>
      <point x="510" y="1821"/>
      <point x="520" y="1830"/>
      <point x="539" y="1830" type="curve" smooth="yes"/>
      <point x="683" y="1830" type="line" smooth="yes"/>
      <point x="701" y="1830" name="sv01"/>
      <point x="710" y="1822"/>
      <point x="710" y="1806" type="curve" smooth="yes"/>
      <point x="710" y="1802" name="sv02"/>
      <point x="710" y="1799"/>
      <point x="709" y="1797" type="curve" smooth="yes"/>
      <point x="680" y="1654" type="line" smooth="yes"/>
      <point x="676" y="1636"/>
      <point x="665" y="1627" name="sv03"/>
      <point x="648" y="1627" type="curve" smooth="yes"/>
    </contour>
    <contour>
      <point x="897" y="1627" type="line" smooth="yes" name="sv04"/>
      <point x="877" y="1627"/>
      <point x="866" y="1640" name="at01"/>
      <point x="870" y="1660" type="curve" smooth="yes"/>
      <point x="898" y="1803" type="line" smooth="yes" name="sv05"/>
      <point x="901" y="1821" name="sv06"/>
      <point x="911" y="1830" name="sv07"/>
      <point x="930" y="1830" type="curve" smooth="yes" name="sv08"/>
      <point x="1073" y="1830" type="line" smooth="yes" name="ab01"/>
      <point x="1093" y="1830"/>
      <point x="1104" y="1817"/>
      <point x="1100" y="1797" type="curve" smooth="yes"/>
      <point x="1072" y="1654" type="line" smooth="yes"/>
      <point x="1069" y="1636"/>
      <point x="1058" y="1627"/>
      <point x="1040" y="1627" type="curve" smooth="yes"/>
    </contour>
    <contour>
      <point x="90" y="170" type="line"/>
      <point x="403" y="170" type="line"/>
      <point x="627" y="1323" type="line"/>
      <point x="313" y="1323" type="line"/>
      <point x="346" y="1493" type="line"/>
      <point x="1176" y="1493" type="line"/>
      <point x="1143" y="1323" type="line"/>
      <point x="829" y="1323" type="line"/>
      <point x="606" y="170" type="line"/>
      <point x="920" y="170" type="line"/>
      <point x="887" y="0" type="line"/>
      <point x="57" y="0" type="line"/>
    </contour>
  </outline>
</glyph>
<glyph name="thorn" format="1">
  <advance width="1233"/>
  <unicode hex="00FE"/>
  <outline>
    <contour>
      <point x="385" y="1567" type="line" name="at01"/>
      <point x="569" y="1567" type="line"/>
      <point x="455" y="977" type="line" name="iv01"/>
      <point x="496" y="1032"/>
      <point x="545" y="1074" name="at02"/>
      <point x="602" y="1103" type="curve" smooth="yes"/>
      <point x="659" y="1132" name="dh02"/>
      <point x="721" y="1147"/>
      <point x="788" y="1147" type="curve" smooth="yes"/>
      <point x="889" y="1147"/>
      <point x="979" y="1115" name="dv01"/>
      <point x="1040" y="1043" type="curve" smooth="yes"/>
      <point x="1100" y="974" name="iv02"/>
      <point x="1128" y="873" name="av01"/>
      <point x="1128" y="744" type="curve" smooth="yes"/>
      <point x="1128" y="659" name="dv02"/>
      <point x="1116" y="561"/>
      <point x="1089" y="465" type="curve" smooth="yes"/>
      <point x="1061" y="362"/>
      <point x="1020" y="275" name="dh01"/>
      <point x="979" y="211" type="curve" smooth="yes"/>
      <point x="928" y="131" name="sv01"/>
      <point x="870" y="73"/>
      <point x="802" y="32" type="curve" smooth="yes"/>
      <point x="735" y="-9"/>
      <point x="660" y="-29"/>
      <point x="578" y="-29" type="curve" smooth="yes"/>
      <point x="511" y="-29"/>
      <point x="455" y="-15"/>
      <point x="408" y="13" type="curve" smooth="yes" name="sh01"/>
      <point x="360" y="42"/>
      <point x="322" y="84"/>
      <point x="293" y="141" type="curve"/>
      <point x="182" y="-426" type="line"/>
      <point x="-2" y="-426" type="line"/>
    </contour>
    <contour>
      <point x="567" y="127" type="curve" smooth="yes"/>
      <point x="624" y="127"/>
      <point x="675" y="144"/>
      <point x="718" y="172" type="curve" smooth="yes"/>
      <point x="763" y="203"/>
      <point x="798" y="244"/>
      <point x="829" y="301" type="curve" smooth="yes"/>
      <point x="861" y="361"/>
      <point x="889" y="437"/>
      <point x="906" y="509" type="curve" smooth="yes"/>
      <point x="925" y="586"/>
      <point x="934" y="664"/>
      <point x="934" y="731" type="curve" smooth="yes"/>
      <point x="934" y="828"/>
      <point x="915" y="889"/>
      <point x="883" y="928" type="curve" smooth="yes"/>
      <point x="847" y="972"/>
      <point x="793" y="991"/>
      <point x="728" y="991" type="curve" smooth="yes"/>
      <point x="673" y="991"/>
      <point x="622" y="976"/>
      <point x="576" y="946" type="curve" smooth="yes"/>
      <point x="527" y="914"/>
      <point x="492" y="873"/>
      <point x="459" y="813" type="curve" smooth="yes"/>
      <point x="424" y="752"/>
      <point x="399" y="682"/>
      <point x="382" y="611" type="curve" smooth="yes"/>
      <point x="363" y="535"/>
      <point x="354" y="455"/>
      <point x="354" y="392" type="curve" smooth="yes"/>
      <point x="354" y="300"/>
      <point x="373" y="237"/>
      <point x="409" y="194" type="curve" smooth="yes"/>
      <point x="446" y="150"/>
      <point x="500" y="127"/>
    </contour>
  </outline>
</glyph>
<glyph name="Abreve" format="1">
  <advance width="1233"/>
  <unicode hex="0102"/>
  <outline>
    <contour>
      <point x="794" y="1612" type="curve" smooth="yes" name="dv01"/>
      <point x="616" y="1612" name="dh01"/>
      <point x="527" y="1680"/>
      <point x="527" y="1817" type="curve" smooth="yes" name="dh02"/>
      <point x="527" y="1829" name="dv02"/>
      <point x="528" y="1841" name="sv01"/>
      <point x="529" y="1854" type="curve"/>
      <point x="648" y="1854" type="line"/>
      <point x="649" y="1782" name="at01"/>
      <point x="709" y="1743"/>
      <point x="822" y="1743" type="curve" smooth="yes" name="ab01"/>
      <point x="931" y="1743"/>
      <point x="1002" y="1780" name="dv03"/>
      <point x="1037" y="1854" type="curve"/>
      <point x="1156" y="1854" type="line" name="ab02"/>
      <point x="1109" y="1694"/>
      <point x="987" y="1612" name="dv04"/>
    </contour>
    <contour>
      <point x="639" y="1493" type="line"/>
      <point x="885" y="1493" type="line"/>
      <point x="1051" y="0" type="line"/>
      <point x="850" y="0" type="line"/>
      <point x="815" y="389" type="line"/>
      <point x="295" y="389" type="line"/>
      <point x="111" y="0" type="line"/>
      <point x="-106" y="0" type="line"/>
    </contour>
    <contour>
      <point x="801" y="551" type="line"/>
      <point x="735" y="1325" type="line"/>
      <point x="371" y="551" type="line"/>
    </contour>
  </outline>
</glyph>
<glyph name="ccaron" format="1">
  <advance width="1233"/>
  <unicode hex="010D"/>
  <outline>
    <contour>
      <point x="561" y="1673" type="line" name="av01"/>
      <point x="692" y="1673" type="line"/>
      <point x="811" y="1430" type="line" name="iv01"/>
      <point x="1036" y="1673" type="line" name="av02"/>
      <point x="1192" y="1673" type="line"/>
      <point x="872" y="1297" type="line"/>
      <point x="725" y="1297" type="line"/>
    </contour>
    <contour>
      <point x="607" y="-29" type="curve" smooth="yes" name="dv01"/>
      <point x="454" y="-29"/>
      <point x="344" y="12" name="dh01"/>
      <point x="271" y="84" type="curve" smooth="yes"/>
      <point x="194" y="160"/>
      <point x="156" y="271"/>
      <point x="156" y="412" type="curve" smooth="yes" name="at01"/>
      <point x="156" y="512"/>
      <point x="174" y="617"/>
      <point x="209" y="709" type="curve" smooth="yes"/>
      <point x="244" y="801"/>
      <point x="294" y="883" name="sv01"/>
      <point x="354" y="950" type="curve" smooth="yes"/>
      <point x="418" y="1021"/>
      <point x="495" y="1070"/>
      <point x="559" y="1098" type="curve" smooth="yes" name="dh02"/>
      <point x="632" y="1131"/>
      <point x="714" y="1147" name="dv02"/>
      <point x="804" y="1147" type="curve" smooth="yes"/>
      <point x="863" y="1147"/>
      <point x="920" y="1140"/>
      <point x="975" y="1126" type="curve" smooth="yes"/>
      <point x="1026" y="1113"/>
      <point x="1084" y="1090"/>
      <point x="1137" y="1061" type="curve"/>
      <point x="1100" y="879" type="line"/>
      <point x="1057" y="918"/>
      <point x="1011" y="946"/>
      <point x="964" y="964" type="curve" smooth="yes"/>
      <point x="917" y="982"/>
      <point x="865" y="991"/>
      <point x="810" y="991" type="curve" smooth="yes"/>
      <point x="736" y="991"/>
      <point x="671" y="976"/>
      <point x="614" y="947" type="curve" smooth="yes"/>
      <point x="558" y="918"/>
      <point x="509" y="873"/>
      <point x="469" y="813" type="curve" smooth="yes"/>
      <point x="434" y="762"/>
      <point x="403" y="698"/>
      <point x="382" y="626" type="curve" smooth="yes"/>
      <point x="361" y="554"/>
      <point x="350" y="485"/>
      <point x="350" y="418" type="curve" smooth="yes"/>
      <point x="350" y="326"/>
      <point x="371" y="251"/>
      <point x="418" y="200" type="curve" smooth="yes"/>
      <point x="461" y="153"/>
      <point x="526" y="127"/>
      <point x="625" y="127" type="curve" smooth="yes"/>
      <point x="685" y="127"/>
      <point x="748" y="137"/>
      <point x="808" y="158" type="curve" smooth="yes"/>
      <point x="871" y="181"/>
      <point x="928" y="213"/>
      <point x="979" y="252" type="curve"/>
      <point x="940" y="51" type="line"/>
      <point x="883" y="20"/>
      <point x="835" y="4"/>
      <point x="784" y="-8" type="curve" smooth="yes"/>
      <point x="725" y="-23"/>
      <point x="671" y="-29"/>
    </contour>
  </outline>
</glyph>
<glyph name="Dcroat" format="1">
  <advance width="1233"/>
  <unicode hex="0110"/>
  <outline>
    <contour>
      <point x="129" y="709" type="line" name="dv01"/>
      <point x="2" y="709" type="line"/>
      <point x="31" y="858" type="line"/>
      <point x="160" y="858" type="line" name="dv02"/>
      <point x="283" y="1493" type="line" name="at01"/>
      <point x="586" y="1493" type="line" smooth="yes"/>
      <point x="955" y="1493" name="dh02"/>
      <point x="1130" y="1328"/>
      <point x="1130" y="983" type="curve" smooth="yes" name="ab01"/>
      <point x="1130" y="783"/>
      <point x="1071" y="538" name="sv01"/>
      <point x="975" y="354" type="curve"/>
      <point x="839" y="98" name="dh01"/>
      <point x="641" y="0" name="sv02"/>
      <point x="295" y="0" type="curve" smooth="yes"/>
      <point x="-8" y="0" type="line" name="sv03"/>
    </contour>
    <contour>
      <point x="324" y="166" type="line" smooth="yes"/>
      <point x="571" y="166" name="sv04"/>
      <point x="713" y="246"/>
      <point x="801" y="432" type="curve" smooth="yes"/>
      <point x="870" y="576"/>
      <point x="924" y="820" name="sh01"/>
      <point x="924" y="996" type="curve" smooth="yes"/>
      <point x="924" y="1233"/>
      <point x="825" y="1327"/>
      <point x="567" y="1327" type="curve" smooth="yes"/>
      <point x="453" y="1327" type="line"/>
      <point x="362" y="858" type="line"/>
      <point x="629" y="858" type="line"/>
      <point x="600" y="709" type="line"/>
      <point x="334" y="709" type="line"/>
      <point x="227" y="166" type="line"/>
    </contour>
  </outline>
</glyph>
<glyph name="edotaccent" format="1">
  <advance width="1233"/>
  <unicode hex="0117"/>
  <outline>
    <contour>
      <point x="678" y="1349" type="line" smooth="yes" name="dv03"/>
      <point x="660" y="1349"/>
      <point x="651" y="1357"/>
      <point x="651" y="1373" type="curve" smooth="yes"/>
      <point x="651" y="1377" name="dv04"/>
      <point x="651" y="1380"/>
      <point x="652" y="1382" type="curve" smooth="yes"/>
      <point x="681" y="1526" type="line" smooth="yes"/>
      <point x="684" y="1544"/>
      <point x="694" y="1553"/>
      <point x="713" y="1553" type="curve" smooth="yes" name="dv01"/>
      <point x="858" y="1553" type="line" smooth="yes" name="sh01"/>
      <point x="876" y="1553"/>
      <point x="885" y="1545" name="dv07"/>
      <point x="885" y="1529" type="curve" smooth="yes" name="sh02"/>
      <point x="885" y="1525" name="dv05"/>
      <point x="885" y="1522" name="sh04"/>
      <point x="884" y="1520" type="curve" smooth="yes" name="sh03"/>
      <point x="855" y="1376" type="line" smooth="yes" name="dv02"/>
      <point x="851" y="1358" name="ih01"/>
      <point x="840" y="1349" name="sh05"/>
      <point x="823" y="1349" type="curve" smooth="yes"/>
    </contour>
    <contour>
      <point x="556" y="-29" type="curve" smooth="yes" name="sh06"/>
      <point x="253" y="-29" name="ah02"/>
      <point x="98" y="122" name="dv06"/>
      <point x="98" y="407" type="curve" smooth="yes"/>
      <point x="98" y="615" name="ah01"/>
      <point x="183" y="829" name="sh07"/>
      <point x="324" y="973" type="curve" smooth="yes"/>
      <point x="436" y="1089"/>
      <point x="570" y="1149"/>
      <point x="719" y="1149" type="curve" smooth="yes"/>
      <point x="964" y="1149"/>
      <point x="1126" y="983"/>
      <point x="1126" y="731" type="curve" smooth="yes"/>
      <point x="1126" y="683"/>
      <point x="1120" y="620"/>
      <point x="1104" y="516" type="curve"/>
      <point x="297" y="516" type="line"/>
      <point x="289" y="473"/>
      <point x="285" y="441"/>
      <point x="285" y="406" type="curve" smooth="yes"/>
      <point x="285" y="229"/>
      <point x="388" y="127"/>
      <point x="584" y="127" type="curve" smooth="yes"/>
      <point x="704" y="127"/>
      <point x="844" y="164"/>
      <point x="997" y="240" type="curve"/>
      <point x="961" y="57" type="line"/>
      <point x="820" y="0"/>
      <point x="689" y="-29"/>
    </contour>
    <contour>
      <point x="938" y="659" type="line"/>
      <point x="946" y="695"/>
      <point x="948" y="716"/>
      <point x="948" y="739" type="curve" smooth="yes"/>
      <point x="948" y="897"/>
      <point x="854" y="991"/>
      <point x="707" y="991" type="curve" smooth="yes"/>
      <point x="533" y="991"/>
      <point x="391" y="860"/>
      <point x="332" y="659" type="curve"/>
    </contour>
  </outline>
</glyph>
<glyph name="Eogonek" format="1">
  <advance width="1233"/>
  <unicode hex="0118"/>
  <outline>
    <contour>
      <point x="512" y="1323" type="line" name="sv01"/>
      <point x="426" y="881" type="line"/>
      <point x="1079" y="881" type="line" name="dv04"/>
      <point x="1047" y="711" type="line" name="dv03"/>
      <point x="393" y="711" type="line"/>
      <point x="289" y="170" type="line" name="sv02"/>
      <point x="991" y="170" type="line" name="sv03"/>
      <point x="958" y="0" type="line" name="ab01"/>
      <point x="862" y="0" type="line"/>
      <point x="781" y="-77" name="dh02"/>
      <point x="737" y="-144" name="dv02"/>
      <point x="737" y="-200" type="curve" smooth="yes"/>
      <point x="737" y="-247"/>
      <point x="769" y="-272" name="dv01"/>
      <point x="833" y="-272" type="curve" smooth="yes" name="dh01"/>
      <point x="872" y="-272" name="ab02"/>
      <point x="917" y="-262"/>
      <point x="960" y="-242" type="curve" name="at01"/>
      <point x="935" y="-375" type="line"/>
      <point x="889" y="-388"/>
      <point x="843" y="-395"/>
      <point x="796" y="-395" type="curve" smooth="yes"/>
      <point x="665" y="-395"/>
      <point x="591" y="-338"/>
      <point x="591" y="-245" type="curve" smooth="yes"/>
      <point x="591" y="-170"/>
      <point x="639" y="-93"/>
      <point x="743" y="0" type="curve"/>
      <point x="53" y="0" type="line"/>
      <point x="344" y="1493" type="line"/>
      <point x="1229" y="1493" type="line"/>
      <point x="1196" y="1323" type="line"/>
    </contour>
  </outline>
</glyph>
<glyph name="eogonek" format="1">
  <advance width="1233"/>
  <unicode hex="0119"/>
  <outline>
    <contour>
      <point x="297" y="516" type="line" name="dv07"/>
      <point x="289" y="473" name="dh02"/>
      <point x="285" y="441" name="dv06"/>
      <point x="285" y="406" type="curve" smooth="yes" name="ih01"/>
      <point x="285" y="229"/>
      <point x="388" y="127"/>
      <point x="584" y="127" type="curve" smooth="yes" name="dh04"/>
      <point x="704" y="127" name="dv02"/>
      <point x="844" y="164" name="ih02"/>
      <point x="997" y="240" type="curve"/>
      <point x="961" y="57" type="line" name="dv01"/>
      <point x="902" y="33" name="dh03"/>
      <point x="844" y="14" name="ih03"/>
      <point x="787" y="0" type="curve" name="dv05"/>
      <point x="706" y="-77" name="dh01"/>
      <point x="662" y="-144"/>
      <point x="662" y="-200" type="curve" smooth="yes" name="dv04"/>
      <point x="662" y="-247" name="dh06"/>
      <point x="694" y="-272"/>
      <point x="758" y="-272" type="curve" smooth="yes" name="dv03"/>
      <point x="797" y="-272" name="ih04"/>
      <point x="842" y="-262"/>
      <point x="885" y="-242" type="curve" name="dh05"/>
      <point x="860" y="-375" type="line"/>
      <point x="814" y="-388"/>
      <point x="768" y="-395" name="sh01"/>
      <point x="721" y="-395" type="curve" smooth="yes"/>
      <point x="590" y="-395"/>
      <point x="516" y="-338"/>
      <point x="516" y="-245" type="curve" smooth="yes"/>
      <point x="516" y="-177"/>
      <point x="556" y="-108"/>
      <point x="641" y="-25" type="curve"/>
      <point x="613" y="-28"/>
      <point x="584" y="-29"/>
      <point x="556" y="-29" type="curve" smooth="yes"/>
      <point x="253" y="-29"/>
      <point x="98" y="122"/>
      <point x="98" y="407" type="curve" smooth="yes"/>
      <point x="98" y="615"/>
      <point x="183" y="829"/>
      <point x="324" y="973" type="curve" smooth="yes"/>
      <point x="436" y="1089"/>
      <point x="570" y="1149"/>
      <point x="719" y="1149" type="curve" smooth="yes"/>
      <point x="964" y="1149"/>
      <point x="1126" y="983"/>
      <point x="1126" y="731" type="curve" smooth="yes"/>
      <point x="1126" y="683"/>
      <point x="1120" y="620"/>
      <point x="1104" y="516" type="curve"/>
    </contour>
    <contour>
      <point x="707" y="991" type="curve" smooth="yes"/>
      <point x="533" y="991"/>
      <point x="391" y="860"/>
      <point x="332" y="659" type="curve"/>
      <point x="938" y="659" type="line"/>
      <point x="946" y="695"/>
      <point x="948" y="716"/>
      <point x="948" y="739" type="curve" smooth="yes"/>
      <point x="948" y="897"/>
      <point x="854" y="991"/>
    </contour>
  </outline>
</glyph>
<glyph name="Gdotaccent" format="1">
  <advance width="1233"/>
  <unicode hex="0120"/>
  <outline>
    <contour>
      <point x="783" y="1627" type="line" smooth="yes" name="dv03"/>
      <point x="762" y="1627"/>
      <point x="747" y="1643"/>
      <point x="751" y="1666" type="curve" smooth="yes" name="dv04"/>
      <point x="778" y="1809" type="line" smooth="yes"/>
      <point x="781" y="1824"/>
      <point x="792" y="1832"/>
      <point x="807" y="1832" type="curve" smooth="yes"/>
      <point x="948" y="1832" type="line" smooth="yes" name="dv01"/>
      <point x="969" y="1832" name="dh01"/>
      <point x="985" y="1816"/>
      <point x="981" y="1793" type="curve" smooth="yes"/>
      <point x="953" y="1650" type="line" smooth="yes" name="at01"/>
      <point x="950" y="1635"/>
      <point x="939" y="1627"/>
      <point x="924" y="1627" type="curve" smooth="yes" name="sv01"/>
    </contour>
    <contour>
      <point x="563" y="-29" type="curve" smooth="yes"/>
      <point x="248" y="-29"/>
      <point x="78" y="156" name="dh02"/>
      <point x="78" y="487" type="curve" smooth="yes" name="dv02"/>
      <point x="78" y="612"/>
      <point x="102" y="754"/>
      <point x="143" y="893" type="curve" smooth="yes" name="dv05"/>
      <point x="190" y="1050" name="dv06"/>
      <point x="248" y="1166"/>
      <point x="328" y="1266" type="curve" smooth="yes"/>
      <point x="465" y="1435"/>
      <point x="640" y="1520"/>
      <point x="852" y="1520" type="curve" smooth="yes"/>
      <point x="965" y="1520"/>
      <point x="1064" y="1495"/>
      <point x="1176" y="1438" type="curve"/>
      <point x="1135" y="1231" type="line"/>
      <point x="1049" y="1314"/>
      <point x="952" y="1356"/>
      <point x="845" y="1356" type="curve" smooth="yes"/>
      <point x="716" y="1356"/>
      <point x="599" y="1300"/>
      <point x="508" y="1192" type="curve" smooth="yes"/>
      <point x="443" y="1113"/>
      <point x="395" y="1010"/>
      <point x="356" y="887" type="curve"/>
      <point x="311" y="738"/>
      <point x="287" y="589"/>
      <point x="287" y="487" type="curve" smooth="yes"/>
      <point x="287" y="263"/>
      <point x="396" y="135"/>
      <point x="593" y="135" type="curve" smooth="yes"/>
      <point x="681" y="135"/>
      <point x="754" y="160"/>
      <point x="803" y="207" type="curve"/>
      <point x="879" y="600" type="line"/>
      <point x="662" y="600" type="line"/>
      <point x="692" y="766" type="line"/>
      <point x="1102" y="766" type="line"/>
      <point x="969" y="96" type="line"/>
      <point x="854" y="13"/>
      <point x="715" y="-29"/>
    </contour>
  </outline>
</glyph>
<glyph name="itilde" format="1">
  <advance width="1233"/>
  <unicode hex="0129"/>
  <outline>
    <contour>
      <point x="817" y="1270" type="curve" smooth="yes" name="dv01"/>
      <point x="772" y="1270"/>
      <point x="727" y="1283"/>
      <point x="672" y="1339" type="curve" smooth="yes" name="sv01"/>
      <point x="625" y="1388" type="line" smooth="yes" name="sv02"/>
      <point x="601" y="1413"/>
      <point x="576" y="1425" name="at01"/>
      <point x="551" y="1425" type="curve" smooth="yes"/>
      <point x="495" y="1425"/>
      <point x="468" y="1369" name="dv02"/>
      <point x="457" y="1272" type="curve" name="at02"/>
      <point x="332" y="1272" type="line"/>
      <point x="355" y="1451"/>
      <point x="428" y="1554" name="ab01"/>
      <point x="555" y="1554" type="curve" smooth="yes"/>
      <point x="608" y="1554" name="dh01"/>
      <point x="650" y="1536" name="sh01"/>
      <point x="701" y="1485" type="curve" smooth="yes"/>
      <point x="748" y="1438" type="line" smooth="yes" name="sv03"/>
      <point x="775" y="1411"/>
      <point x="791" y="1399" name="at03"/>
      <point x="818" y="1399" type="curve" smooth="yes"/>
      <point x="872" y="1399"/>
      <point x="905" y="1451"/>
      <point x="916" y="1554" type="curve" name="dh02"/>
      <point x="1041" y="1554" type="line"/>
      <point x="1017" y="1367" name="sv04"/>
      <point x="944" y="1270"/>
    </contour>
    <contour>
      <point x="749" y="-4" type="line" smooth="yes"/>
      <point x="633" y="-4"/>
      <point x="547" y="17"/>
      <point x="492" y="60" type="curve" smooth="yes"/>
      <point x="435" y="103"/>
      <point x="407" y="167"/>
      <point x="407" y="252" type="curve" smooth="yes"/>
      <point x="407" y="275"/>
      <point x="409" y="295"/>
      <point x="412" y="322" type="curve" smooth="yes"/>
      <point x="415" y="349"/>
      <point x="419" y="377"/>
      <point x="426" y="408" type="curve" smooth="yes"/>
      <point x="559" y="976" type="line"/>
      <point x="313" y="976" type="line"/>
      <point x="342" y="1120" type="line"/>
      <point x="772" y="1120" type="line"/>
      <point x="610" y="404" type="line" smooth="yes"/>
      <point x="605" y="383"/>
      <point x="601" y="354"/>
      <point x="600" y="342" type="curve" smooth="yes"/>
      <point x="597" y="319"/>
      <point x="596" y="311"/>
      <point x="596" y="298" type="curve" smooth="yes"/>
      <point x="596" y="248"/>
      <point x="611" y="211"/>
      <point x="640" y="188" type="curve" smooth="yes"/>
      <point x="670" y="164"/>
      <point x="715" y="152"/>
      <point x="776" y="152" type="curve" smooth="yes"/>
      <point x="987" y="152" type="line"/>
      <point x="956" y="-4" type="line"/>
    </contour>
  </outline>
</glyph>
<glyph name="lacute" format="1">
  <advance width="1233"/>
  <unicode hex="013A"/>
  <outline>
    <contour>
      <point x="889" y="1901" type="line" name="av01"/>
      <point x="1097" y="1901" type="line"/>
      <point x="790" y="1637" type="line"/>
      <point x="630" y="1637" type="line" name="iv01"/>
    </contour>
    <contour>
      <point x="739" y="-8" type="line" smooth="yes" name="ab01"/>
      <point x="511" y="-8" name="dh01"/>
      <point x="397" y="76"/>
      <point x="397" y="245" type="curve" smooth="yes" name="sv01"/>
      <point x="397" y="290"/>
      <point x="405" y="349" name="at01"/>
      <point x="416" y="404" type="curve" smooth="yes"/>
      <point x="627" y="1412" type="line"/>
      <point x="311" y="1412" type="line" name="dh02"/>
      <point x="340" y="1556" type="line" name="sv02"/>
      <point x="840" y="1556" type="line"/>
      <point x="600" y="400" type="line"/>
      <point x="591" y="353"/>
      <point x="586" y="316"/>
      <point x="586" y="289" type="curve" smooth="yes"/>
      <point x="586" y="197"/>
      <point x="645" y="148"/>
      <point x="766" y="148" type="curve" smooth="yes"/>
      <point x="977" y="148" type="line"/>
      <point x="946" y="-8" type="line"/>
    </contour>
  </outline>
</glyph>
<glyph name="Eng" format="1">
  <advance width="1233"/>
  <unicode hex="014A"/>
  <outline>
    <contour>
      <point x="377" y="-270" type="line" name="hr00"/>
      <point x="544" y="-270" type="line" smooth="yes" name="dv02"/>
      <point x="668" y="-270" name="ab01"/>
      <point x="738" y="-191"/>
      <point x="775" y="0" type="curve" smooth="yes" name="dh01"/>
      <point x="972" y="1009" type="line" name="sv01"/>
      <point x="983" y="1062"/>
      <point x="988" y="1110" name="ab02"/>
      <point x="988" y="1153" type="curve" smooth="yes"/>
      <point x="988" y="1294" name="at01"/>
      <point x="927" y="1358"/>
      <point x="800" y="1358" type="curve" smooth="yes" name="iv01"/>
      <point x="613" y="1358" name="sv02"/>
      <point x="480" y="1217" name="dh02"/>
      <point x="425" y="937" type="curve" smooth="yes"/>
      <point x="242" y="0" type="line"/>
      <point x="40" y="0" type="line" name="dv01"/>
      <point x="331" y="1493" type="line"/>
      <point x="513" y="1493" type="line"/>
      <point x="494" y="1295" type="line" name="sh01"/>
      <point x="595" y="1444"/>
      <point x="733" y="1522"/>
      <point x="902" y="1522" type="curve" smooth="yes"/>
      <point x="1097" y="1522"/>
      <point x="1195" y="1415"/>
      <point x="1195" y="1200" type="curve" smooth="yes"/>
      <point x="1195" y="1139"/>
      <point x="1188" y="1072"/>
      <point x="1173" y="999" type="curve"/>
      <point x="975" y="-20" type="line" smooth="yes"/>
      <point x="925" y="-280"/>
      <point x="772" y="-426"/>
      <point x="552" y="-426" type="curve" smooth="yes"/>
      <point x="347" y="-426" type="line"/>
    </contour>
  </outline>
</glyph>
<glyph name="Sacute" format="1">
  <advance width="1233"/>
  <unicode hex="015A"/>
  <outline>
    <contour>
      <point x="907" y="1866" type="line" name="sv02"/>
      <point x="1115" y="1866" type="line"/>
      <point x="808" y="1602" type="line"/>
      <point x="648" y="1602" type="line" name="ih01"/>
    </contour>
    <contour>
      <point x="435" y="-29" type="curve" smooth="yes" name="dv01"/>
      <point x="288" y="-29"/>
      <point x="158" y="1"/>
      <point x="25" y="61" type="curve" name="dv02"/>
      <point x="66" y="270" type="line" name="ah02"/>
      <point x="201" y="174"/>
      <point x="338" y="135"/>
      <point x="469" y="135" type="curve" smooth="yes" name="sh01"/>
      <point x="705" y="135" name="at01"/>
      <point x="848" y="266"/>
      <point x="848" y="452" type="curve" smooth="yes"/>
      <point x="848" y="559" name="sv01"/>
      <point x="800" y="603" name="sh03"/>
      <point x="627" y="659" type="curve" smooth="yes"/>
      <point x="526" y="692" type="line" smooth="yes"/>
      <point x="277" y="772" name="sh02"/>
      <point x="195" y="855"/>
      <point x="195" y="1022" type="curve" smooth="yes" name="ah01"/>
      <point x="195" y="1313" name="sh04"/>
      <point x="443" y="1520"/>
      <point x="782" y="1520" type="curve" smooth="yes"/>
      <point x="898" y="1520"/>
      <point x="1011" y="1495"/>
      <point x="1147" y="1442" type="curve"/>
      <point x="1108" y="1237" type="line"/>
      <point x="999" y="1316"/>
      <point x="883" y="1356"/>
      <point x="759" y="1356" type="curve" smooth="yes"/>
      <point x="539" y="1356"/>
      <point x="387" y="1233"/>
      <point x="387" y="1066" type="curve" smooth="yes"/>
      <point x="387" y="966"/>
      <point x="441" y="922"/>
      <point x="614" y="866" type="curve" smooth="yes"/>
      <point x="735" y="827" type="line" smooth="yes"/>
      <point x="965" y="752"/>
      <point x="1049" y="652"/>
      <point x="1049" y="472" type="curve" smooth="yes"/>
      <point x="1049" y="174"/>
      <point x="813" y="-29"/>
    </contour>
  </outline>
</glyph>
<glyph name="tbar" format="1">
  <advance width="1233"/>
  <unicode hex="0167"/>
  <outline>
    <contour>
      <point x="667" y="-4" type="line" smooth="yes" name="ab01"/>
      <point x="530" y="-4"/>
      <point x="440" y="22" name="dh01"/>
      <point x="392" y="79" type="curve" smooth="yes"/>
      <point x="360" y="118" name="dv01"/>
      <point x="348" y="168"/>
      <point x="348" y="232" type="curve" smooth="yes"/>
      <point x="348" y="275" name="dv02"/>
      <point x="353" y="316" name="sv01"/>
      <point x="362" y="365" type="curve" smooth="yes" name="sv02"/>
      <point x="407" y="602" type="line" name="at01"/>
      <point x="178" y="602" type="line"/>
      <point x="206" y="744" type="line" name="sv03"/>
      <point x="435" y="744" type="line"/>
      <point x="480" y="977" type="line" name="at02"/>
      <point x="181" y="977" type="line"/>
      <point x="209" y="1120" type="line" name="sv04"/>
      <point x="508" y="1120" type="line" name="sv05"/>
      <point x="570" y="1438" type="line" name="sv06"/>
      <point x="754" y="1438" type="line"/>
      <point x="692" y="1120" type="line" name="sv07"/>
      <point x="1110" y="1120" type="line"/>
      <point x="1082" y="977" type="line"/>
      <point x="664" y="977" type="line" name="dh02"/>
      <point x="619" y="744" type="line"/>
      <point x="848" y="744" type="line" name="sv08"/>
      <point x="820" y="602" type="line" name="sv09"/>
      <point x="591" y="602" type="line" name="ab02"/>
      <point x="546" y="365" type="line" smooth="yes"/>
      <point x="540" y="332"/>
      <point x="537" y="303"/>
      <point x="537" y="279" type="curve" smooth="yes"/>
      <point x="537" y="240"/>
      <point x="544" y="211"/>
      <point x="559" y="192" type="curve" smooth="yes"/>
      <point x="584" y="159"/>
      <point x="635" y="143"/>
      <point x="714" y="143" type="curve" smooth="yes"/>
      <point x="921" y="143" type="line"/>
      <point x="892" y="-4" type="line"/>
    </contour>
  </outline>
</glyph>
<glyph name="Ohorn" format="1">
  <advance width="1233"/>
  <unicode hex="01A0"/>
  <outline>
    <contour>
      <point x="1367" y="1557" type="line" name="sh02"/>
      <point x="1368" y="1538" name="sh01"/>
      <point x="1369" y="1523"/>
      <point x="1369" y="1508" type="curve" smooth="yes" name="sv01"/>
      <point x="1369" y="1472" name="sh03"/>
      <point x="1365" y="1445" name="dh04"/>
      <point x="1361" y="1421" type="curve" smooth="yes"/>
      <point x="1333" y="1269"/>
      <point x="1263" y="1184" name="dv01"/>
      <point x="1142" y="1184" type="curve" smooth="yes" name="dh01"/>
      <point x="1121" y="1184"/>
      <point x="1103" y="1186"/>
      <point x="1086" y="1191" type="curve"/>
      <point x="1094" y="1145" name="at01"/>
      <point x="1098" y="1094"/>
      <point x="1098" y="1037" type="curve" smooth="yes" name="sv02"/>
      <point x="1098" y="876"/>
      <point x="1064" y="683"/>
      <point x="1011" y="516" type="curve" smooth="yes" name="ih01"/>
      <point x="971" y="391"/>
      <point x="923" y="292" name="dh03"/>
      <point x="874" y="219" type="curve" smooth="yes" name="sv03"/>
      <point x="761" y="48"/>
      <point x="614" y="-29" name="dh02"/>
      <point x="427" y="-29" type="curve" smooth="yes" name="dv02"/>
      <point x="162" y="-29"/>
      <point x="29" y="134"/>
      <point x="29" y="459" type="curve" smooth="yes" name="sh04"/>
      <point x="29" y="544"/>
      <point x="37" y="632"/>
      <point x="52" y="722" type="curve" smooth="yes"/>
      <point x="68" y="812"/>
      <point x="89" y="896"/>
      <point x="114" y="975" type="curve" smooth="yes"/>
      <point x="155" y="1104"/>
      <point x="203" y="1200"/>
      <point x="251" y="1272" type="curve" smooth="yes"/>
      <point x="363" y="1439"/>
      <point x="507" y="1520"/>
      <point x="698" y="1520" type="curve" smooth="yes"/>
      <point x="849" y="1520"/>
      <point x="958" y="1468"/>
      <point x="1024" y="1364" type="curve"/>
      <point x="1067" y="1335"/>
      <point x="1099" y="1323"/>
      <point x="1131" y="1323" type="curve" smooth="yes"/>
      <point x="1187" y="1323"/>
      <point x="1225" y="1360"/>
      <point x="1240" y="1432" type="curve"/>
      <point x="1243" y="1451"/>
      <point x="1245" y="1468"/>
      <point x="1245" y="1483" type="curve" smooth="yes"/>
      <point x="1245" y="1506"/>
      <point x="1241" y="1531"/>
      <point x="1234" y="1557" type="curve"/>
    </contour>
    <contour>
      <point x="725" y="333" type="curve" smooth="yes"/>
      <point x="825" y="521"/>
      <point x="891" y="841"/>
      <point x="891" y="1060" type="curve" smooth="yes"/>
      <point x="891" y="1236"/>
      <point x="848" y="1356"/>
      <point x="681" y="1356" type="curve" smooth="yes"/>
      <point x="550" y="1356"/>
      <point x="469" y="1283"/>
      <point x="402" y="1159" type="curve" smooth="yes"/>
      <point x="302" y="972"/>
      <point x="234" y="651"/>
      <point x="234" y="432" type="curve" smooth="yes"/>
      <point x="234" y="247"/>
      <point x="281" y="135"/>
      <point x="444" y="135" type="curve" smooth="yes"/>
      <point x="575" y="135"/>
      <point x="659" y="209"/>
    </contour>
  </outline>
</glyph>
<glyph name="uhorn" format="1">
  <advance width="1233"/>
  <unicode hex="01B0"/>
  <outline>
    <contour>
      <point x="1260" y="1137" type="line" name="at01"/>
      <point x="1261" y="1118"/>
      <point x="1262" y="1103"/>
      <point x="1262" y="1088" type="curve" smooth="yes" name="sv01"/>
      <point x="1262" y="1052"/>
      <point x="1258" y="1025" name="ab02"/>
      <point x="1254" y="1001" type="curve" smooth="yes"/>
      <point x="1226" y="849" name="iv01"/>
      <point x="1156" y="764" name="ab01"/>
      <point x="1035" y="764" type="curve" smooth="yes" name="dh01"/>
      <point x="1008" y="764"/>
      <point x="983" y="768" name="at03"/>
      <point x="960" y="777" type="curve"/>
      <point x="809" y="0" type="line"/>
      <point x="645" y="0" type="line" name="dh02"/>
      <point x="658" y="168" type="line" name="sv02"/>
      <point x="562" y="38"/>
      <point x="444" y="-27" name="at04"/>
      <point x="303" y="-27" type="curve" smooth="yes"/>
      <point x="127" y="-27"/>
      <point x="19" y="74" name="sv03"/>
      <point x="19" y="253" type="curve" smooth="yes"/>
      <point x="19" y="296"/>
      <point x="25" y="362" name="at02"/>
      <point x="37" y="426" type="curve" smooth="yes"/>
      <point x="170" y="1120" type="line"/>
      <point x="355" y="1120" type="line"/>
      <point x="220" y="426" type="line" smooth="yes"/>
      <point x="212" y="383"/>
      <point x="205" y="331"/>
      <point x="205" y="296" type="curve" smooth="yes"/>
      <point x="205" y="192"/>
      <point x="270" y="133"/>
      <point x="383" y="133" type="curve" smooth="yes"/>
      <point x="548" y="133"/>
      <point x="674" y="256"/>
      <point x="719" y="487" type="curve" smooth="yes"/>
      <point x="842" y="1120" type="line"/>
      <point x="1027" y="1120" type="line"/>
      <point x="986" y="909" type="line"/>
      <point x="999" y="905"/>
      <point x="1011" y="903"/>
      <point x="1024" y="903" type="curve" smooth="yes"/>
      <point x="1080" y="903"/>
      <point x="1118" y="940"/>
      <point x="1133" y="1012" type="curve"/>
      <point x="1136" y="1031"/>
      <point x="1138" y="1048"/>
      <point x="1138" y="1063" type="curve" smooth="yes"/>
      <point x="1138" y="1086"/>
      <point x="1134" y="1111"/>
      <point x="1127" y="1137" type="curve"/>
    </contour>
  </outline>
</glyph>
<glyph name="uni021B" format="1">
  <advance width="1233"/>
  <unicode hex="021B"/>
  <outline>
    <contour>
      <point x="559" y="365" type="line" name="sh03"/>
      <point x="550" y="310" type="line" name="sh04"/>
      <point x="548" y="293" name="sh02"/>
      <point x="547" y="277"/>
      <point x="547" y="263" type="curve" smooth="yes" name="sv01"/>
      <point x="547" y="218" name="sv02"/>
      <point x="560" y="187" name="ab01"/>
      <point x="586" y="170" type="curve" smooth="yes" name="ih01"/>
      <point x="612" y="152" name="sh05"/>
      <point x="659" y="143" name="dv01"/>
      <point x="727" y="143" type="curve" smooth="yes"/>
      <point x="934" y="143" type="line" name="sh06"/>
      <point x="905" y="-4" type="line" name="dv02"/>
      <point x="702" y="-4" type="line" name="ah02"/>
      <point x="747" y="-84" name="ab02"/>
      <point x="768" y="-139"/>
      <point x="768" y="-186" type="curve" smooth="yes" name="sh01"/>
      <point x="768" y="-310" name="sh07"/>
      <point x="667" y="-388"/>
      <point x="508" y="-388" type="curve" smooth="yes" name="sv03"/>
      <point x="447" y="-388" name="sv04"/>
      <point x="386" y="-378" name="at01"/>
      <point x="323" y="-358" type="curve"/>
      <point x="348" y="-229" type="line" name="sv05"/>
      <point x="402" y="-254" name="sh08"/>
      <point x="450" y="-267" name="at02"/>
      <point x="493" y="-267" type="curve" smooth="yes"/>
      <point x="582" y="-267" name="sv06"/>
      <point x="635" y="-225" name="sv07"/>
      <point x="635" y="-153" type="curve" smooth="yes"/>
      <point x="635" y="-118" name="ah01"/>
      <point x="616" y="-66"/>
      <point x="579" y="2" type="curve"/>
      <point x="516" y="11"/>
      <point x="472" y="28"/>
      <point x="437" y="52" type="curve" smooth="yes"/>
      <point x="384" y="89"/>
      <point x="358" y="142"/>
      <point x="358" y="222" type="curve" smooth="yes"/>
      <point x="358" y="238"/>
      <point x="359" y="261"/>
      <point x="362" y="284" type="curve" smooth="yes"/>
      <point x="365" y="301"/>
      <point x="368" y="330"/>
      <point x="375" y="365" type="curve" smooth="yes"/>
      <point x="494" y="977" type="line"/>
      <point x="195" y="977" type="line"/>
      <point x="223" y="1120" type="line"/>
      <point x="522" y="1120" type="line"/>
      <point x="584" y="1438" type="line"/>
      <point x="768" y="1438" type="line"/>
      <point x="707" y="1120" type="line"/>
      <point x="1124" y="1120" type="line"/>
      <point x="1096" y="977" type="line"/>
      <point x="678" y="977" type="line"/>
    </contour>
  </outline>
</glyph>
<glyph name="tildecomb" format="1">
  <advance width="0"/>
  <unicode hex="0303"/>
  <outline>
    <contour>
      <point x="-347" y="1307" type="curve" smooth="yes" name="dv01"/>
      <point x="-392" y="1307"/>
      <point x="-437" y="1320"/>
      <point x="-492" y="1376" type="curve" smooth="yes" name="dv03"/>
      <point x="-539" y="1425" type="line" smooth="yes" name="sv01"/>
      <point x="-563" y="1450"/>
      <point x="-588" y="1462" name="dv04"/>
      <point x="-613" y="1462" type="curve" smooth="yes"/>
      <point x="-669" y="1462"/>
      <point x="-696" y="1406" name="dv02"/>
      <point x="-707" y="1309" type="curve" name="sv02"/>
      <point x="-832" y="1309" type="line"/>
      <point x="-809" y="1488"/>
      <point x="-736" y="1591"/>
      <point x="-609" y="1591" type="curve" smooth="yes"/>
      <point x="-556" y="1591"/>
      <point x="-514" y="1573"/>
      <point x="-463" y="1522" type="curve" smooth="yes"/>
      <point x="-416" y="1475" type="line" smooth="yes"/>
      <point x="-389" y="1448"/>
      <point x="-373" y="1436"/>
      <point x="-346" y="1436" type="curve" smooth="yes"/>
      <point x="-292" y="1436"/>
      <point x="-259" y="1488"/>
      <point x="-248" y="1591" type="curve"/>
      <point x="-123" y="1591" type="line"/>
      <point x="-147" y="1404"/>
      <point x="-220" y="1307"/>
    </contour>
  </outline>
</glyph>
<glyph name="uni030A" format="1">
  <advance width="0"/>
  <unicode hex="030A"/>
  <outline>
    <contour>
      <point x="-455" y="1321" type="curve" smooth="yes" name="dv01"/>
      <point x="-607" y="1321" name="sh01"/>
      <point x="-729" y="1442" name="dv04"/>
      <point x="-729" y="1596" type="curve" smooth="yes" name="sh02"/>
      <point x="-729" y="1751"/>
      <point x="-607" y="1870" name="dv02"/>
      <point x="-455" y="1870" type="curve" smooth="yes" name="ah02"/>
      <point x="-302" y="1870" name="dv03"/>
      <point x="-180" y="1751" name="sh03"/>
      <point x="-180" y="1596" type="curve" smooth="yes"/>
      <point x="-180" y="1442" name="ah01"/>
      <point x="-302" y="1321"/>
    </contour>
    <contour>
      <point x="-455" y="1444" type="curve" smooth="yes"/>
      <point x="-371" y="1444"/>
      <point x="-303" y="1511"/>
      <point x="-303" y="1595" type="curve" smooth="yes"/>
      <point x="-303" y="1679"/>
      <point x="-371" y="1747"/>
      <point x="-455" y="1747" type="curve" smooth="yes"/>
      <point x="-540" y="1747"/>
      <point x="-606" y="1681"/>
      <point x="-606" y="1596" type="curve" smooth="yes"/>
      <point x="-606" y="1510"/>
      <point x="-540" y="1444"/>
    </contour>
  </outline>
</glyph>
<glyph name="uni0310" format="1">
  <advance width="0"/>
  <unicode hex="0310"/>
  <outline>
    <contour>
      <point x="-87" y="1812" type="line" name="sv02"/>
      <point x="-131" y="1620" name="dv01"/>
      <point x="-253" y="1525"/>
      <point x="-438" y="1525" type="curve" smooth="yes"/>
      <point x="-617" y="1525" name="sv01"/>
      <point x="-716" y="1614"/>
      <point x="-716" y="1771" type="curve" smooth="yes"/>
      <point x="-716" y="1794" name="dv02"/>
      <point x="-716" y="1801"/>
      <point x="-713" y="1812" type="curve" name="iv01"/>
      <point x="-593" y="1812" type="line"/>
      <point x="-593" y="1795" type="line" smooth="yes"/>
      <point x="-593" y="1742"/>
      <point x="-571" y="1705"/>
      <point x="-528" y="1682" type="curve"/>
      <point x="-513" y="1756" type="line"/>
      <point x="-308" y="1756" type="line"/>
      <point x="-323" y="1680" type="line"/>
      <point x="-268" y="1703"/>
      <point x="-233" y="1745"/>
      <point x="-206" y="1812" type="curve"/>
    </contour>
  </outline>
</glyph>
<glyph name="uni0314" format="1">
  <advance width="0"/>
  <unicode hex="0314"/>
  <outline>
    <contour>
      <point x="-545" y="1218" type="line" name="dv01"/>
      <point x="-678" y="1218" name="dh01"/>
      <point x="-745" y="1277"/>
      <point x="-745" y="1395" type="curve" smooth="yes"/>
      <point x="-745" y="1419" name="dv02"/>
      <point x="-744" y="1446"/>
      <point x="-737" y="1475" type="curve"/>
      <point x="-688" y="1729" type="line" name="dh02"/>
      <point x="-447" y="1729" type="line"/>
      <point x="-496" y="1475" type="line"/>
      <point x="-607" y="1475" type="line"/>
      <point x="-611" y="1458"/>
      <point x="-612" y="1443"/>
      <point x="-612" y="1428" type="curve" smooth="yes"/>
      <point x="-612" y="1370"/>
      <point x="-582" y="1341"/>
      <point x="-522" y="1341" type="curve"/>
    </contour>
  </outline>
</glyph>
<glyph name="uni031B" format="1">
  <advance width="0"/>
  <unicode hex="031B"/>
  <outline>
    <contour>
      <point x="-628" y="764" type="curve" smooth="yes" name="sv01"/>
      <point x="-703" y="764"/>
      <point x="-760" y="797" name="iv01"/>
      <point x="-829" y="872" type="curve" name="sv02"/>
      <point x="-806" y="991" type="line"/>
      <point x="-733" y="927"/>
      <point x="-684" y="903" name="at01"/>
      <point x="-639" y="903" type="curve" smooth="yes"/>
      <point x="-583" y="903"/>
      <point x="-545" y="940"/>
      <point x="-530" y="1012" type="curve"/>
      <point x="-527" y="1031"/>
      <point x="-525" y="1048"/>
      <point x="-525" y="1063" type="curve" smooth="yes"/>
      <point x="-525" y="1086"/>
      <point x="-529" y="1111"/>
      <point x="-536" y="1137" type="curve"/>
      <point x="-403" y="1137" type="line"/>
      <point x="-402" y="1118"/>
      <point x="-401" y="1103"/>
      <point x="-401" y="1088" type="curve" smooth="yes"/>
      <point x="-401" y="1052"/>
      <point x="-405" y="1025"/>
      <point x="-409" y="1001" type="curve" smooth="yes"/>
      <point x="-437" y="849"/>
      <point x="-507" y="764"/>
    </contour>
  </outline>
</glyph>
<glyph name="uni033A" format="1">
  <advance width="0"/>
  <unicode hex="033A"/>
  <outline>
    <contour>
      <point x="-860" y="-54" type="line" name="sv02"/>
      <point x="-723" y="-54" type="line"/>
      <point x="-761" y="-248" type="line"/>
      <point x="-484" y="-248" type="line" name="dv02"/>
      <point x="-446" y="-54" type="line"/>
      <point x="-309" y="-54" type="line" name="sv01"/>
      <point x="-373" y="-384" type="line" name="dv01"/>
      <point x="-924" y="-384" type="line"/>
    </contour>
  </outline>
</glyph>
<glyph name="uni03A9" format="1">
  <advance width="1233"/>
  <unicode hex="03A9"/>
  <outline>
    <contour>
      <point x="74" y="172" type="line" name="sh01"/>
      <point x="319" y="172" type="line"/>
      <point x="238" y="260"/>
      <point x="178" y="353" name="dh01"/>
      <point x="141" y="450" type="curve" smooth="yes"/>
      <point x="104" y="545" name="dv02"/>
      <point x="86" y="656"/>
      <point x="86" y="783" type="curve" smooth="yes" name="dh04"/>
      <point x="86" y="989"/>
      <point x="134" y="1154" name="ih01"/>
      <point x="230" y="1277" type="curve" smooth="yes" name="sh02"/>
      <point x="325" y="1398" name="ab01"/>
      <point x="451" y="1460"/>
      <point x="614" y="1460" type="curve" smooth="yes" name="dh03"/>
      <point x="781" y="1460"/>
      <point x="908" y="1396" name="sh03"/>
      <point x="1001" y="1277" type="curve" smooth="yes"/>
      <point x="1097" y="1155" name="dv01"/>
      <point x="1145" y="990"/>
      <point x="1145" y="783" type="curve" smooth="yes" name="dh02"/>
      <point x="1145" y="656"/>
      <point x="1127" y="545" name="sh04"/>
      <point x="1090" y="450" type="curve" smooth="yes" name="ab02"/>
      <point x="1051" y="350"/>
      <point x="992" y="260"/>
      <point x="911" y="172" type="curve" name="sh05"/>
      <point x="1159" y="172" type="line"/>
      <point x="1159" y="0" type="line"/>
      <point x="696" y="0" type="line"/>
      <point x="696" y="172" type="line"/>
      <point x="776" y="223"/>
      <point x="838" y="303"/>
      <point x="883" y="413" type="curve" smooth="yes"/>
      <point x="927" y="521"/>
      <point x="950" y="649"/>
      <point x="950" y="790" type="curve" smooth="yes"/>
      <point x="950" y="945"/>
      <point x="922" y="1071"/>
      <point x="861" y="1162" type="curve" smooth="yes"/>
      <point x="804" y="1246"/>
      <point x="720" y="1294"/>
      <point x="616" y="1294" type="curve" smooth="yes"/>
      <point x="507" y="1294"/>
      <point x="427" y="1242"/>
      <point x="372" y="1162" type="curve" smooth="yes"/>
      <point x="313" y="1075"/>
      <point x="283" y="954"/>
      <point x="283" y="790" type="curve" smooth="yes"/>
      <point x="283" y="649"/>
      <point x="306" y="521"/>
      <point x="350" y="413" type="curve" smooth="yes"/>
      <point x="397" y="300"/>
      <point x="460" y="221"/>
      <point x="537" y="172" type="curve"/>
      <point x="537" y="0" type="line"/>
      <point x="74" y="0" type="line"/>
    </contour>
  </outline>
</glyph>
<glyph name="beta" format="1">
  <advance width="1233"/>
  <unicode hex="03B2"/>
  <outline>
    <contour>
      <point x="258" y="1113" type="line" smooth="yes" name="hr00"/>
      <point x="320" y="1434" name="at01"/>
      <point x="552" y="1574" name="sh01"/>
      <point x="761" y="1574" type="curve" smooth="yes" name="sh02"/>
      <point x="958" y="1574" name="iv01"/>
      <point x="1136" y="1451" name="dh02"/>
      <point x="1136" y="1240" type="curve" smooth="yes"/>
      <point x="1136" y="1221" name="ab01"/>
      <point x="1135" y="1203" name="iv02"/>
      <point x="1132" y="1184" type="curve" smooth="yes" name="av01"/>
      <point x="1111" y="1034"/>
      <point x="1012" y="869"/>
      <point x="887" y="810" type="curve" name="sv01"/>
      <point x="1039" y="779" name="sh03"/>
      <point x="1108" y="694" name="dh01"/>
      <point x="1108" y="553" type="curve" smooth="yes" name="dv01"/>
      <point x="1108" y="522" name="sv02"/>
      <point x="1105" y="489" name="sv03"/>
      <point x="1098" y="453" type="curve" smooth="yes" name="dv02"/>
      <point x="1045" y="153"/>
      <point x="824" y="-21" name="ih01"/>
      <point x="523" y="-21" type="curve" smooth="yes" name="sv04"/>
      <point x="438" y="-21"/>
      <point x="362" y="-8"/>
      <point x="240" y="69" type="curve" name="sh04"/>
      <point x="144" y="-426" type="line"/>
      <point x="-41" y="-426" type="line"/>
    </contour>
    <contour>
      <point x="293" y="342" type="line"/>
      <point x="325" y="249"/>
      <point x="460" y="181"/>
      <point x="596" y="181" type="curve" smooth="yes"/>
      <point x="738" y="181"/>
      <point x="881" y="255"/>
      <point x="910" y="450" type="curve" smooth="yes"/>
      <point x="913" y="469"/>
      <point x="914" y="486"/>
      <point x="914" y="502" type="curve" smooth="yes"/>
      <point x="914" y="642"/>
      <point x="811" y="711"/>
      <point x="561" y="711" type="curve" smooth="yes"/>
      <point x="540" y="711"/>
      <point x="519" y="711"/>
      <point x="496" y="710" type="curve"/>
      <point x="529" y="880" type="line"/>
      <point x="538" y="880"/>
      <point x="547" y="879"/>
      <point x="556" y="879" type="curve" smooth="yes"/>
      <point x="684" y="879"/>
      <point x="779" y="919"/>
      <point x="846" y="979" type="curve" smooth="yes"/>
      <point x="918" y="1042"/>
      <point x="952" y="1124"/>
      <point x="952" y="1197" type="curve" smooth="yes"/>
      <point x="952" y="1317"/>
      <point x="854" y="1384"/>
      <point x="745" y="1384" type="curve" smooth="yes"/>
      <point x="620" y="1384"/>
      <point x="479" y="1298"/>
      <point x="442" y="1107" type="curve" smooth="yes"/>
    </contour>
  </outline>
</glyph>
<glyph name="delta" format="1">
  <advance width="1233"/>
  <unicode hex="03B4"/>
  <outline>
    <contour>
      <point x="502" y="-29" type="curve" smooth="yes" name="dv01"/>
      <point x="250" y="-29" name="sh01"/>
      <point x="115" y="101"/>
      <point x="115" y="364" type="curve" smooth="yes"/>
      <point x="115" y="423" name="ih01"/>
      <point x="122" y="488"/>
      <point x="136" y="559" type="curve" smooth="yes"/>
      <point x="173" y="751"/>
      <point x="244" y="896" name="at01"/>
      <point x="344" y="996" type="curve" smooth="yes" name="at02"/>
      <point x="365" y="1017"/>
      <point x="393" y="1040" name="sh03"/>
      <point x="432" y="1067" type="curve" name="sv02"/>
      <point x="421" y="1074"/>
      <point x="398" y="1095"/>
      <point x="382" y="1116" type="curve" smooth="yes"/>
      <point x="358" y="1147"/>
      <point x="345" y="1181"/>
      <point x="345" y="1222" type="curve" smooth="yes" name="at03"/>
      <point x="345" y="1237" name="at04"/>
      <point x="347" y="1252" name="sh02"/>
      <point x="350" y="1269" type="curve" smooth="yes"/>
      <point x="385" y="1453"/>
      <point x="581" y="1569" name="dv02"/>
      <point x="853" y="1569" type="curve" smooth="yes"/>
      <point x="904" y="1569" name="ah02"/>
      <point x="960" y="1565" name="sv01"/>
      <point x="992" y="1557" type="curve" smooth="yes"/>
      <point x="1136" y="1521" type="line" name="sh04"/>
      <point x="1102" y="1348" type="line"/>
      <point x="1021" y="1380" name="ah01"/>
      <point x="918" y="1405" name="sh05"/>
      <point x="810" y="1402" type="curve" smooth="yes"/>
      <point x="778" y="1401" type="line" smooth="yes"/>
      <point x="729" y="1400"/>
      <point x="681" y="1385"/>
      <point x="636" y="1356" type="curve" smooth="yes"/>
      <point x="592" y="1328" type="line"/>
      <point x="561" y="1305"/>
      <point x="549" y="1266"/>
      <point x="549" y="1235" type="curve" smooth="yes"/>
      <point x="549" y="1224"/>
      <point x="551" y="1214"/>
      <point x="554" y="1206" type="curve"/>
      <point x="561" y="1193"/>
      <point x="576" y="1176"/>
      <point x="603" y="1161" type="curve" smooth="yes"/>
      <point x="624" y="1150"/>
      <point x="654" y="1148"/>
      <point x="729" y="1147" type="curve"/>
      <point x="989" y="1140"/>
      <point x="1116" y="1008"/>
      <point x="1116" y="756" type="curve" smooth="yes"/>
      <point x="1116" y="697"/>
      <point x="1109" y="631"/>
      <point x="1095" y="559" type="curve" smooth="yes"/>
      <point x="1021" y="179"/>
      <point x="815" y="-29"/>
    </contour>
    <contour>
      <point x="531" y="127" type="curve" smooth="yes"/>
      <point x="715" y="127"/>
      <point x="843" y="266"/>
      <point x="900" y="559" type="curve" smooth="yes"/>
      <point x="913" y="623"/>
      <point x="919" y="680"/>
      <point x="919" y="731" type="curve" smooth="yes"/>
      <point x="919" y="906"/>
      <point x="845" y="991"/>
      <point x="700" y="991" type="curve" smooth="yes"/>
      <point x="508" y="991"/>
      <point x="384" y="836"/>
      <point x="331" y="559" type="curve" smooth="yes"/>
      <point x="319" y="495"/>
      <point x="312" y="439"/>
      <point x="312" y="388" type="curve" smooth="yes"/>
      <point x="312" y="217"/>
      <point x="383" y="127"/>
    </contour>
  </outline>
</glyph>
<glyph name="zeta" format="1">
  <advance width="1233"/>
  <unicode hex="03B6"/>
  <outline>
    <contour>
      <point x="595" y="-430" type="curve" name="av01"/>
      <point x="606" y="-379"/>
      <point x="615" y="-330" name="sh01"/>
      <point x="624" y="-279" type="curve" name="ah02"/>
      <point x="715" y="-287" name="dv01"/>
      <point x="781" y="-216" name="sh02"/>
      <point x="789" y="-168" type="curve" smooth="yes" name="ih01"/>
      <point x="791" y="-158"/>
      <point x="792" y="-148" name="at01"/>
      <point x="792" y="-137" type="curve" smooth="yes"/>
      <point x="792" y="-78"/>
      <point x="760" y="-29" name="sh05"/>
      <point x="695" y="-29" type="curve" smooth="yes" name="sh04"/>
      <point x="347" y="-29" name="dv02"/>
      <point x="183" y="152" name="sh03"/>
      <point x="183" y="396" type="curve" smooth="yes" name="sh06"/>
      <point x="183" y="702"/>
      <point x="442" y="1106" name="ah01"/>
      <point x="931" y="1371" type="curve" name="sh07"/>
      <point x="399" y="1371" type="line"/>
      <point x="435" y="1556" type="line"/>
      <point x="1305" y="1556" type="line"/>
      <point x="1269" y="1371" type="line"/>
      <point x="703" y="1094"/>
      <point x="407" y="815"/>
      <point x="382" y="534" type="curve" smooth="yes"/>
      <point x="380" y="511"/>
      <point x="379" y="489"/>
      <point x="379" y="469" type="curve" smooth="yes"/>
      <point x="379" y="241"/>
      <point x="494" y="127"/>
      <point x="725" y="127" type="curve" smooth="yes"/>
      <point x="880" y="127"/>
      <point x="973" y="39"/>
      <point x="973" y="-91" type="curve" smooth="yes"/>
      <point x="973" y="-109"/>
      <point x="971" y="-128"/>
      <point x="967" y="-148" type="curve" smooth="yes"/>
      <point x="935" y="-301"/>
      <point x="812" y="-430"/>
    </contour>
  </outline>
</glyph>
<glyph name="eta" format="1">
  <advance width="1233"/>
  <unicode hex="03B7"/>
  <outline>
    <contour>
      <point x="890" y="694" type="line" smooth="yes" name="hr00"/>
      <point x="898" y="737" name="dh01"/>
      <point x="903" y="774" name="sv01"/>
      <point x="903" y="809" type="curve" smooth="yes"/>
      <point x="903" y="933" name="ab01"/>
      <point x="845" y="987"/>
      <point x="729" y="987" type="curve" smooth="yes" name="at02"/>
      <point x="557" y="987"/>
      <point x="436" y="866" name="iv01"/>
      <point x="391" y="633" type="curve" smooth="yes" name="at01"/>
      <point x="268" y="0" type="line" name="dh02"/>
      <point x="84" y="0" type="line"/>
      <point x="302" y="1120" type="line" name="av01"/>
      <point x="466" y="1120" type="line"/>
      <point x="453" y="952" type="line"/>
      <point x="545" y="1081" name="sh01"/>
      <point x="670" y="1147"/>
      <point x="823" y="1147" type="curve" smooth="yes"/>
      <point x="1003" y="1147"/>
      <point x="1093" y="1052"/>
      <point x="1093" y="863" type="curve" smooth="yes"/>
      <point x="1093" y="813"/>
      <point x="1087" y="757"/>
      <point x="1075" y="694" type="curve" smooth="yes"/>
      <point x="857" y="-426" type="line"/>
      <point x="672" y="-426" type="line"/>
    </contour>
  </outline>
</glyph>
<glyph name="uni03BC" format="1">
  <advance width="1233"/>
  <unicode hex="03BC"/>
  <outline>
    <contour>
      <point x="262" y="1120" type="line" name="at01"/>
      <point x="449" y="1120" type="line"/>
      <point x="313" y="424" type="line" smooth="yes"/>
      <point x="305" y="383" name="dh01"/>
      <point x="301" y="348" name="dv02"/>
      <point x="301" y="319" type="curve" smooth="yes"/>
      <point x="301" y="198" name="at02"/>
      <point x="375" y="131"/>
      <point x="512" y="131" type="curve" smooth="yes"/>
      <point x="696" y="131" name="sh01"/>
      <point x="802" y="239" name="sv01"/>
      <point x="846" y="467" type="curve" smooth="yes"/>
      <point x="973" y="1120" type="line" name="iv01"/>
      <point x="1159" y="1120" type="line"/>
      <point x="991" y="258" type="line" name="sv02"/>
      <point x="987" y="234" name="dh02"/>
      <point x="985" y="218" name="dv01"/>
      <point x="985" y="203" type="curve" smooth="yes" name="iv02"/>
      <point x="985" y="162" name="av01"/>
      <point x="1001" y="141"/>
      <point x="1034" y="141" type="curve" smooth="yes"/>
      <point x="1039" y="141"/>
      <point x="1047" y="143"/>
      <point x="1059" y="146" type="curve" smooth="yes"/>
      <point x="1068" y="149"/>
      <point x="1084" y="155"/>
      <point x="1106" y="164" type="curve"/>
      <point x="1077" y="16" type="line"/>
      <point x="1024" y="-13"/>
      <point x="974" y="-29"/>
      <point x="930" y="-29" type="curve" smooth="yes"/>
      <point x="841" y="-29"/>
      <point x="784" y="32"/>
      <point x="784" y="129" type="curve"/>
      <point x="712" y="20"/>
      <point x="626" y="-29"/>
      <point x="494" y="-29" type="curve" smooth="yes"/>
      <point x="371" y="-29"/>
      <point x="289" y="26"/>
      <point x="246" y="137" type="curve"/>
      <point x="137" y="-426" type="line"/>
      <point x="-39" y="-426" type="line"/>
    </contour>
  </outline>
</glyph>
<glyph name="rho" format="1">
  <advance width="1233"/>
  <unicode hex="03C1"/>
  <outline>
    <contour>
      <point x="185" y="540" type="line" smooth="yes" name="hr00"/>
      <point x="268" y="967" name="at01"/>
      <point x="478" y="1147" name="dh02"/>
      <point x="755" y="1147" type="curve" smooth="yes"/>
      <point x="1004" y="1147" name="dv01"/>
      <point x="1128" y="1003" name="iv01"/>
      <point x="1128" y="754" type="curve" smooth="yes" name="av01"/>
      <point x="1128" y="694"/>
      <point x="1121" y="627" name="dv02"/>
      <point x="1106" y="555" type="curve" smooth="yes"/>
      <point x="1028" y="181" name="dh01"/>
      <point x="825" y="-29"/>
      <point x="560" y="-29" type="curve" smooth="yes" name="sv01"/>
      <point x="420" y="-29"/>
      <point x="329" y="29"/>
      <point x="292" y="141" type="curve"/>
      <point x="182" y="-426" type="line"/>
      <point x="-3" y="-426" type="line" name="sh01"/>
    </contour>
    <contour>
      <point x="562" y="127" type="curve" smooth="yes"/>
      <point x="657" y="127"/>
      <point x="729" y="168"/>
      <point x="784" y="236" type="curve" smooth="yes"/>
      <point x="872" y="345"/>
      <point x="932" y="566"/>
      <point x="932" y="733" type="curve" smooth="yes"/>
      <point x="932" y="792"/>
      <point x="925" y="843"/>
      <point x="909" y="882" type="curve" smooth="yes"/>
      <point x="878" y="957"/>
      <point x="817" y="991"/>
      <point x="729" y="991" type="curve" smooth="yes"/>
      <point x="554" y="991"/>
      <point x="431" y="850"/>
      <point x="374" y="559" type="curve" smooth="yes"/>
      <point x="361" y="492"/>
      <point x="355" y="434"/>
      <point x="355" y="383" type="curve" smooth="yes"/>
      <point x="355" y="211"/>
      <point x="425" y="127"/>
    </contour>
  </outline>
</glyph>
<glyph name="phi" format="1">
  <advance width="1233"/>
  <unicode hex="03C6"/>
  <outline>
    <contour>
      <point x="422" y="-25" type="line" name="ab01"/>
      <point x="201" y="-25" name="sh01"/>
      <point x="69" y="121"/>
      <point x="69" y="384" type="curve" smooth="yes" name="ih01"/>
      <point x="69" y="436"/>
      <point x="75" y="494"/>
      <point x="86" y="559" type="curve" name="sh03"/>
      <point x="158" y="951"/>
      <point x="377" y="1096" name="sv01"/>
      <point x="581" y="1128" type="curve"/>
      <point x="549" y="965" type="line" name="at01"/>
      <point x="501" y="947" name="sh02"/>
      <point x="457" y="913"/>
      <point x="416" y="864" type="curve" smooth="yes" name="ab02"/>
      <point x="320" y="749" name="av01"/>
      <point x="263" y="559"/>
      <point x="263" y="405" type="curve" smooth="yes" name="sv02"/>
      <point x="263" y="341"/>
      <point x="273" y="285" name="ah02"/>
      <point x="294" y="242" type="curve" smooth="yes"/>
      <point x="329" y="173" name="sv03"/>
      <point x="390" y="139"/>
      <point x="454" y="139" type="curve" name="ah01"/>
      <point x="587" y="826" type="line" smooth="yes" name="sh04"/>
      <point x="626" y="1027"/>
      <point x="733" y="1128"/>
      <point x="885" y="1128" type="curve" smooth="yes"/>
      <point x="1061" y="1128"/>
      <point x="1187" y="991"/>
      <point x="1187" y="741" type="curve" smooth="yes"/>
      <point x="1187" y="685"/>
      <point x="1181" y="627"/>
      <point x="1168" y="560" type="curve" smooth="yes"/>
      <point x="1096" y="188"/>
      <point x="866" y="-24"/>
      <point x="605" y="-24" type="curve"/>
      <point x="527" y="-426" type="line"/>
      <point x="344" y="-426" type="line"/>
    </contour>
    <contour>
      <point x="637" y="140" type="line"/>
      <point x="759" y="140"/>
      <point x="913" y="251"/>
      <point x="974" y="560" type="curve" smooth="yes"/>
      <point x="986" y="620"/>
      <point x="991" y="671"/>
      <point x="991" y="718" type="curve" smooth="yes"/>
      <point x="991" y="786"/>
      <point x="979" y="837"/>
      <point x="959" y="880" type="curve" smooth="yes"/>
      <point x="931" y="939"/>
      <point x="890" y="971"/>
      <point x="859" y="971" type="curve" smooth="yes"/>
      <point x="824" y="971"/>
      <point x="789" y="925"/>
      <point x="770" y="826" type="curve" smooth="yes"/>
    </contour>
  </outline>
</glyph>
<glyph name="chi" format="1">
  <advance width="1233"/>
  <unicode hex="03C7"/>
  <outline>
    <contour>
      <point x="524" y="351" type="line" name="hr00"/>
      <point x="436" y="836" type="line" smooth="yes"/>
      <point x="421" y="920" name="sv01"/>
      <point x="361" y="962"/>
      <point x="258" y="962" type="curve" smooth="yes" name="at01"/>
      <point x="209" y="962" type="line"/>
      <point x="239" y="1120" type="line"/>
      <point x="309" y="1120" type="line" smooth="yes"/>
      <point x="480" y="1120" name="at02"/>
      <point x="577" y="1061"/>
      <point x="598" y="944" type="curve" smooth="yes"/>
      <point x="667" y="564" type="line"/>
      <point x="1041" y="1120" type="line" name="dv02"/>
      <point x="1232" y="1120" type="line"/>
      <point x="708" y="340" type="line" name="dv01"/>
      <point x="796" y="-142" type="line" smooth="yes"/>
      <point x="811" y="-226"/>
      <point x="870" y="-268"/>
      <point x="975" y="-268" type="curve" smooth="yes" name="sv02"/>
      <point x="1024" y="-268" type="line"/>
      <point x="994" y="-426" type="line"/>
      <point x="924" y="-426" type="line" smooth="yes"/>
      <point x="752" y="-426"/>
      <point x="655" y="-367"/>
      <point x="634" y="-250" type="curve" smooth="yes"/>
      <point x="565" y="128" type="line"/>
      <point x="193" y="-426" type="line"/>
      <point x="2" y="-426" type="line"/>
    </contour>
  </outline>
</glyph>
<glyph name="iotadieresis" format="1">
  <advance width="1233"/>
  <unicode hex="03CA"/>
  <outline>
    <contour>
      <point x="459" y="1320" type="line" smooth="yes" name="dv01"/>
      <point x="439" y="1320"/>
      <point x="428" y="1333"/>
      <point x="432" y="1353" type="curve" smooth="yes" name="dv02"/>
      <point x="460" y="1495" type="line" smooth="yes"/>
      <point x="463" y="1513"/>
      <point x="473" y="1522"/>
      <point x="492" y="1522" type="curve" smooth="yes"/>
      <point x="635" y="1522" type="line" smooth="yes" name="sv01"/>
      <point x="655" y="1522"/>
      <point x="666" y="1509"/>
      <point x="662" y="1489" type="curve" smooth="yes" name="sv02"/>
      <point x="634" y="1347" type="line" smooth="yes"/>
      <point x="631" y="1329"/>
      <point x="620" y="1320"/>
      <point x="602" y="1320" type="curve" smooth="yes"/>
    </contour>
    <contour>
      <point x="850" y="1320" type="line" smooth="yes" name="ab01"/>
      <point x="830" y="1320" name="dh01"/>
      <point x="819" y="1333"/>
      <point x="823" y="1353" type="curve" smooth="yes" name="sv03"/>
      <point x="851" y="1495" type="line" smooth="yes"/>
      <point x="854" y="1513" name="at01"/>
      <point x="864" y="1522"/>
      <point x="883" y="1522" type="curve" smooth="yes"/>
      <point x="1026" y="1522" type="line" smooth="yes" name="dh02"/>
      <point x="1046" y="1522" name="sv04"/>
      <point x="1057" y="1509"/>
      <point x="1053" y="1489" type="curve" smooth="yes"/>
      <point x="1025" y="1347" type="line" smooth="yes"/>
      <point x="1022" y="1329"/>
      <point x="1011" y="1320"/>
      <point x="993" y="1320" type="curve" smooth="yes"/>
    </contour>
    <contour>
      <point x="746" y="-5" type="line" smooth="yes"/>
      <point x="553" y="-5"/>
      <point x="464" y="73"/>
      <point x="464" y="249" type="curve" smooth="yes"/>
      <point x="464" y="292"/>
      <point x="470" y="342"/>
      <point x="481" y="401" type="curve" smooth="yes"/>
      <point x="591" y="977" type="line"/>
      <point x="381" y="977" type="line"/>
      <point x="409" y="1120" type="line"/>
      <point x="807" y="1120" type="line"/>
      <point x="666" y="390" type="line" smooth="yes"/>
      <point x="656" y="339"/>
      <point x="651" y="297"/>
      <point x="651" y="265" type="curve" smooth="yes"/>
      <point x="651" y="177"/>
      <point x="691" y="151"/>
      <point x="798" y="151" type="curve" smooth="yes"/>
      <point x="886" y="151" type="line"/>
      <point x="856" y="-5" type="line"/>
    </contour>
  </outline>
</glyph>
<glyph name="upsilontonos" format="1">
  <advance width="1233"/>
  <unicode hex="03CD"/>
  <outline>
    <contour>
      <point x="907" y="1648" type="line" name="av01"/>
      <point x="1126" y="1648" type="line" name="ih01"/>
      <point x="731" y="1272" type="line"/>
      <point x="575" y="1272" type="line" name="ih02"/>
    </contour>
    <contour>
      <point x="485" y="0" type="curve" smooth="yes" name="ab01"/>
      <point x="302" y="0" name="sh02"/>
      <point x="216" y="81"/>
      <point x="216" y="257" type="curve" smooth="yes" name="sv01"/>
      <point x="216" y="301"/>
      <point x="221" y="350" name="at01"/>
      <point x="232" y="406" type="curve" smooth="yes"/>
      <point x="342" y="977" type="line"/>
      <point x="132" y="977" type="line" name="sh03"/>
      <point x="160" y="1120" type="line" name="sv02"/>
      <point x="558" y="1120" type="line"/>
      <point x="417" y="395" type="line" smooth="yes" name="ah02"/>
      <point x="408" y="347" name="ih03"/>
      <point x="402" y="307"/>
      <point x="402" y="275" type="curve" smooth="yes" name="sh01"/>
      <point x="402" y="190"/>
      <point x="437" y="156"/>
      <point x="525" y="156" type="curve" smooth="yes" name="ah01"/>
      <point x="750" y="156" name="sh04"/>
      <point x="894" y="387"/>
      <point x="958" y="640" type="curve" smooth="yes"/>
      <point x="973" y="697"/>
      <point x="982" y="756"/>
      <point x="982" y="820" type="curve" smooth="yes"/>
      <point x="982" y="913"/>
      <point x="960" y="1012"/>
      <point x="895" y="1120" type="curve"/>
      <point x="1081" y="1120" type="line"/>
      <point x="1129" y="1037"/>
      <point x="1161" y="932"/>
      <point x="1161" y="803" type="curve" smooth="yes"/>
      <point x="1161" y="751"/>
      <point x="1156" y="697"/>
      <point x="1144" y="638" type="curve" smooth="yes"/>
      <point x="1084" y="342"/>
      <point x="860" y="0"/>
    </contour>
  </outline>
</glyph>
<glyph name="uni0419" format="1">
  <advance width="1233"/>
  <unicode hex="0419"/>
  <outline>
    <contour>
      <point x="795" y="1608" type="curve" smooth="yes" name="dv01"/>
      <point x="617" y="1608" name="dh01"/>
      <point x="528" y="1676"/>
      <point x="528" y="1813" type="curve" smooth="yes" name="dh02"/>
      <point x="528" y="1825" name="dv02"/>
      <point x="529" y="1837" name="sv01"/>
      <point x="530" y="1850" type="curve"/>
      <point x="649" y="1850" type="line"/>
      <point x="650" y="1778" name="at01"/>
      <point x="710" y="1739"/>
      <point x="823" y="1739" type="curve" smooth="yes" name="iv01"/>
      <point x="932" y="1739" name="at02"/>
      <point x="1003" y="1776"/>
      <point x="1038" y="1850" type="curve" name="ab01"/>
      <point x="1157" y="1850" type="line"/>
      <point x="1110" y="1690" name="iv02"/>
      <point x="988" y="1608" name="ab02"/>
    </contour>
    <contour>
      <point x="285" y="1493" type="line"/>
      <point x="480" y="1493" type="line"/>
      <point x="241" y="264" type="line"/>
      <point x="984" y="1493" type="line"/>
      <point x="1240" y="1493" type="line"/>
      <point x="950" y="0" type="line"/>
      <point x="755" y="0" type="line"/>
      <point x="994" y="1229" type="line"/>
      <point x="251" y="0" type="line"/>
      <point x="-5" y="0" type="line"/>
    </contour>
  </outline>
</glyph>
<glyph name="uni0424" format="1">
  <advance width="1233"/>
  <unicode hex="0424"/>
  <outline>
    <contour>
      <point x="406" y="152" type="line" name="hr00"/>
      <point x="224" y="163"/>
      <point x="150" y="204" name="sh01"/>
      <point x="107" y="297" type="curve" smooth="yes"/>
      <point x="75" y="366"/>
      <point x="55" y="471" name="at01"/>
      <point x="55" y="559" type="curve" smooth="yes"/>
      <point x="55" y="616"/>
      <point x="63" y="689" name="sh02"/>
      <point x="76" y="762" type="curve" smooth="yes"/>
      <point x="140" y="1116"/>
      <point x="306" y="1363" name="ab01"/>
      <point x="643" y="1371" type="curve"/>
      <point x="667" y="1493" type="line" name="ih01"/>
      <point x="870" y="1493" type="line"/>
      <point x="846" y="1371" type="line" name="sh04"/>
      <point x="1199" y="1359" name="sh03"/>
      <point x="1200" y="1133"/>
      <point x="1200" y="990" type="curve" smooth="yes" name="ih02"/>
      <point x="1200" y="919"/>
      <point x="1192" y="843" name="sh05"/>
      <point x="1177" y="762" type="curve" smooth="yes" name="ah02"/>
      <point x="1111" y="411"/>
      <point x="959" y="163" name="ah01"/>
      <point x="609" y="152" type="curve" name="sh06"/>
      <point x="580" y="0" type="line"/>
      <point x="377" y="0" type="line"/>
    </contour>
    <contour>
      <point x="612" y="1207" type="line"/>
      <point x="381" y="1170"/>
      <point x="336" y="1015"/>
      <point x="293" y="790" type="curve" smooth="yes"/>
      <point x="264" y="638"/>
      <point x="262" y="600"/>
      <point x="259" y="551" type="curve" smooth="yes"/>
      <point x="258" y="530"/>
      <point x="257" y="510"/>
      <point x="257" y="491" type="curve" smooth="yes"/>
      <point x="257" y="408"/>
      <point x="279" y="343"/>
      <point x="438" y="316" type="curve"/>
    </contour>
    <contour>
      <point x="641" y="316" type="line"/>
      <point x="845" y="343"/>
      <point x="920" y="497"/>
      <point x="963" y="733" type="curve" smooth="yes"/>
      <point x="985" y="849"/>
      <point x="991" y="946"/>
      <point x="994" y="973" type="curve"/>
      <point x="995" y="992"/>
      <point x="996" y="1010"/>
      <point x="996" y="1026" type="curve" smooth="yes"/>
      <point x="996" y="1125"/>
      <point x="963" y="1183"/>
      <point x="815" y="1207" type="curve"/>
    </contour>
  </outline>
</glyph>
<glyph name="uni0427" format="1">
  <advance width="1233"/>
  <unicode hex="0427"/>
  <outline>
    <contour>
      <point x="872" y="658" type="line" name="iv01"/>
      <point x="715" y="586" name="dv01"/>
      <point x="621" y="577"/>
      <point x="512" y="577" type="curve" smooth="yes" name="dh01"/>
      <point x="334" y="577"/>
      <point x="264" y="601" name="at01"/>
      <point x="211" y="675" type="curve" smooth="yes"/>
      <point x="182" y="716"/>
      <point x="167" y="759" name="dh02"/>
      <point x="167" y="830" type="curve" smooth="yes"/>
      <point x="167" y="870" name="dv02"/>
      <point x="171" y="929"/>
      <point x="182" y="980" type="curve" name="at02"/>
      <point x="282" y="1493" type="line"/>
      <point x="485" y="1493" type="line" name="ab01"/>
      <point x="390" y="1006" type="line" smooth="yes"/>
      <point x="382" y="963"/>
      <point x="378" y="920"/>
      <point x="378" y="889" type="curve" smooth="yes"/>
      <point x="378" y="836"/>
      <point x="390" y="818"/>
      <point x="406" y="803" type="curve" smooth="yes"/>
      <point x="441" y="771"/>
      <point x="493" y="763"/>
      <point x="593" y="763" type="curve" smooth="yes"/>
      <point x="716" y="763"/>
      <point x="782" y="775"/>
      <point x="911" y="861" type="curve"/>
      <point x="1034" y="1493" type="line"/>
      <point x="1237" y="1493" type="line"/>
      <point x="947" y="0" type="line"/>
      <point x="744" y="0" type="line"/>
    </contour>
  </outline>
</glyph>
<glyph name="uni042B" format="1">
  <advance width="1233"/>
  <unicode hex="042B"/>
  <outline>
    <contour>
      <point x="211" y="1493" type="line" name="at01"/>
      <point x="413" y="1493" type="line"/>
      <point x="296" y="893" type="line"/>
      <point x="387" y="893" type="line" smooth="yes" name="dv02"/>
      <point x="618" y="893" name="dh02"/>
      <point x="763" y="773"/>
      <point x="763" y="557" type="curve" smooth="yes" name="ab01"/>
      <point x="763" y="522"/>
      <point x="760" y="485" name="at02"/>
      <point x="752" y="446" type="curve" smooth="yes"/>
      <point x="693" y="150" name="ab02"/>
      <point x="467" y="0"/>
      <point x="214" y="0" type="curve" smooth="yes" name="sv01"/>
      <point x="-79" y="0" type="line"/>
    </contour>
    <contour>
      <point x="1077" y="1493" type="line" name="dh01"/>
      <point x="1280" y="1493" type="line" name="dv01"/>
      <point x="990" y="0" type="line"/>
      <point x="787" y="0" type="line"/>
    </contour>
    <contour>
      <point x="246" y="166" type="line" smooth="yes"/>
      <point x="383" y="166"/>
      <point x="504" y="250"/>
      <point x="541" y="446" type="curve" smooth="yes"/>
      <point x="547" y="477"/>
      <point x="550" y="506"/>
      <point x="550" y="533" type="curve" smooth="yes"/>
      <point x="550" y="657"/>
      <point x="486" y="727"/>
      <point x="355" y="727" type="curve" smooth="yes"/>
      <point x="264" y="727" type="line"/>
      <point x="155" y="166" type="line"/>
    </contour>
  </outline>
</glyph>
<glyph name="uni042E" format="1">
  <advance width="1233"/>
  <unicode hex="042E"/>
  <outline>
    <contour>
      <point x="661" y="-29" type="curve" smooth="yes" name="dv01"/>
      <point x="461" y="-29" name="sh01"/>
      <point x="372" y="113"/>
      <point x="372" y="372" type="curve" smooth="yes"/>
      <point x="372" y="459" name="ab01"/>
      <point x="381" y="555"/>
      <point x="400" y="666" type="curve" name="at01"/>
      <point x="289" y="666" type="line"/>
      <point x="159" y="0" type="line"/>
      <point x="-44" y="0" type="line"/>
      <point x="247" y="1493" type="line" name="at02"/>
      <point x="450" y="1493" type="line"/>
      <point x="322" y="836" type="line" name="sh02"/>
      <point x="433" y="836" type="line"/>
      <point x="529" y="1259"/>
      <point x="693" y="1520" name="dv02"/>
      <point x="963" y="1520" type="curve" smooth="yes"/>
      <point x="1104" y="1520" name="ah02"/>
      <point x="1191" y="1451" name="sh03"/>
      <point x="1228" y="1328" type="curve" smooth="yes" name="sv01"/>
      <point x="1245" y="1271"/>
      <point x="1253" y="1197" name="sh04"/>
      <point x="1253" y="1113" type="curve" smooth="yes" name="sh05"/>
      <point x="1253" y="807"/>
      <point x="1146" y="371" name="ah01"/>
      <point x="1002" y="163" type="curve" smooth="yes" name="sh06"/>
      <point x="918" y="42"/>
      <point x="804" y="-29"/>
    </contour>
    <contour>
      <point x="695" y="135" type="curve" smooth="yes"/>
      <point x="767" y="135"/>
      <point x="831" y="184"/>
      <point x="878" y="276" type="curve" smooth="yes"/>
      <point x="966" y="448"/>
      <point x="1064" y="906"/>
      <point x="1064" y="1144" type="curve" smooth="yes"/>
      <point x="1064" y="1171"/>
      <point x="1063" y="1195"/>
      <point x="1060" y="1215" type="curve" smooth="yes"/>
      <point x="1049" y="1303"/>
      <point x="1008" y="1356"/>
      <point x="932" y="1356" type="curve" smooth="yes"/>
      <point x="864" y="1356"/>
      <point x="802" y="1312"/>
      <point x="751" y="1215" type="curve"/>
      <point x="658" y="1033"/>
      <point x="564" y="579"/>
      <point x="564" y="346" type="curve" smooth="yes"/>
      <point x="564" y="319"/>
      <point x="565" y="296"/>
      <point x="568" y="276" type="curve" smooth="yes"/>
      <point x="579" y="188"/>
      <point x="620" y="135"/>
    </contour>
  </outline>
</glyph>
<glyph name="uni0437" format="1">
  <advance width="1233"/>
  <unicode hex="0437"/>
  <outline>
    <contour>
      <point x="426" y="-22" type="curve" smooth="yes" name="ab01"/>
      <point x="301" y="-22"/>
      <point x="187" y="-3" name="iv01"/>
      <point x="66" y="34" type="curve" name="sv01"/>
      <point x="100" y="207" type="line" name="dh01"/>
      <point x="192" y="162" name="dv01"/>
      <point x="311" y="138"/>
      <point x="442" y="138" type="curve" smooth="yes"/>
      <point x="695" y="138" name="dv02"/>
      <point x="840" y="228"/>
      <point x="840" y="364" type="curve" smooth="yes" name="ih01"/>
      <point x="840" y="465" name="sv02"/>
      <point x="743" y="532" name="iv02"/>
      <point x="556" y="532" type="curve" smooth="yes"/>
      <point x="398" y="532" type="line" name="at01"/>
      <point x="426" y="676" type="line" name="sh01"/>
      <point x="591" y="676" type="line" smooth="yes"/>
      <point x="775" y="676" name="iv03"/>
      <point x="879" y="741" name="dh02"/>
      <point x="900" y="824" type="curve"/>
      <point x="903" y="833"/>
      <point x="904" y="842"/>
      <point x="904" y="852" type="curve" smooth="yes" name="sh02"/>
      <point x="904" y="931"/>
      <point x="815" y="984"/>
      <point x="640" y="984" type="curve" smooth="yes"/>
      <point x="545" y="984"/>
      <point x="427" y="968"/>
      <point x="282" y="932" type="curve"/>
      <point x="314" y="1099" type="line"/>
      <point x="461" y="1131"/>
      <point x="586" y="1147"/>
      <point x="690" y="1147" type="curve" smooth="yes"/>
      <point x="941" y="1147"/>
      <point x="1094" y="1057"/>
      <point x="1094" y="905" type="curve" smooth="yes"/>
      <point x="1094" y="890"/>
      <point x="1092" y="874"/>
      <point x="1089" y="855" type="curve"/>
      <point x="1062" y="726"/>
      <point x="956" y="640"/>
      <point x="792" y="607" type="curve"/>
      <point x="941" y="579"/>
      <point x="1023" y="502"/>
      <point x="1023" y="379" type="curve" smooth="yes"/>
      <point x="1023" y="363"/>
      <point x="1021" y="346"/>
      <point x="1018" y="327" type="curve" smooth="yes"/>
      <point x="983" y="121"/>
      <point x="769" y="-22"/>
    </contour>
  </outline>
</glyph>
<glyph name="uni044C" format="1">
  <advance width="1233"/>
  <unicode hex="044C"/>
  <outline>
    <contour>
      <point x="335" y="1120" type="line" name="at01"/>
      <point x="519" y="1120" type="line"/>
      <point x="431" y="667" type="line"/>
      <point x="687" y="667" type="line" smooth="yes" name="dv02"/>
      <point x="935" y="667" name="dh02"/>
      <point x="1075" y="581"/>
      <point x="1075" y="406" type="curve" smooth="yes" name="ab01"/>
      <point x="1075" y="383"/>
      <point x="1073" y="359" name="sv01"/>
      <point x="1068" y="332" type="curve" smooth="yes"/>
      <point x="1027" y="113" name="dh01"/>
      <point x="851" y="0" name="dv01"/>
      <point x="558" y="0" type="curve" smooth="yes"/>
      <point x="118" y="0" type="line"/>
    </contour>
    <contour>
      <point x="579" y="153" type="line" smooth="yes"/>
      <point x="751" y="153" name="sh01"/>
      <point x="847" y="209"/>
      <point x="871" y="332" type="curve" smooth="yes"/>
      <point x="874" y="347"/>
      <point x="876" y="360"/>
      <point x="876" y="375" type="curve" smooth="yes"/>
      <point x="876" y="474"/>
      <point x="791" y="514"/>
      <point x="650" y="514" type="curve" smooth="yes"/>
      <point x="402" y="514" type="line"/>
      <point x="331" y="153" type="line"/>
    </contour>
  </outline>
</glyph>
<glyph name="uni0458" format="1">
  <advance width="1233"/>
  <unicode hex="0458"/>
  <outline>
    <contour>
      <point x="823" y="1556" type="line" name="at01"/>
      <point x="1007" y="1556" type="line"/>
      <point x="962" y="1323" type="line" name="sv01"/>
      <point x="778" y="1323" type="line"/>
    </contour>
    <contour>
      <point x="55" y="-270" type="line"/>
      <point x="288" y="-270" type="line" smooth="yes" name="dv02"/>
      <point x="417" y="-270"/>
      <point x="485" y="-192" name="sv02"/>
      <point x="518" y="-20" type="curve" smooth="yes"/>
      <point x="710" y="977" type="line" name="at02"/>
      <point x="393" y="977" type="line"/>
      <point x="421" y="1120" type="line"/>
      <point x="923" y="1120" type="line" name="dv01"/>
      <point x="702" y="-20" type="line"/>
      <point x="646" y="-304"/>
      <point x="519" y="-426"/>
      <point x="278" y="-426" type="curve" smooth="yes"/>
      <point x="24" y="-426" type="line"/>
    </contour>
  </outline>
</glyph>
<glyph name="uni04AA" format="1">
  <advance width="1233"/>
  <unicode hex="04AA"/>
  <outline>
    <contour>
      <point x="866" y="1356" type="curve" smooth="yes" name="sv01"/>
      <point x="737" y="1356"/>
      <point x="630" y="1300" name="dh02"/>
      <point x="539" y="1192" type="curve" smooth="yes" name="dv04"/>
      <point x="403" y="1030"/>
      <point x="308" y="749"/>
      <point x="308" y="508" type="curve" smooth="yes" name="ih01"/>
      <point x="308" y="253" name="dh04"/>
      <point x="415" y="135" name="dv01"/>
      <point x="608" y="135" type="curve" smooth="yes"/>
      <point x="725" y="135"/>
      <point x="848" y="179" name="dv02"/>
      <point x="965" y="260" type="curve" name="dh03"/>
      <point x="926" y="53" type="line" name="dv03"/>
      <point x="837" y="9" name="dh01"/>
      <point x="745" y="-17"/>
      <point x="651" y="-26" type="curve" name="at01"/>
      <point x="692" y="-101"/>
      <point x="709" y="-149"/>
      <point x="709" y="-198" type="curve" smooth="yes"/>
      <point x="709" y="-314"/>
      <point x="608" y="-395"/>
      <point x="448" y="-395" type="curve" smooth="yes"/>
      <point x="391" y="-395"/>
      <point x="328" y="-385"/>
      <point x="264" y="-365" type="curve"/>
      <point x="289" y="-236" type="line"/>
      <point x="342" y="-261"/>
      <point x="390" y="-274"/>
      <point x="437" y="-274" type="curve" smooth="yes"/>
      <point x="524" y="-274"/>
      <point x="576" y="-230"/>
      <point x="576" y="-162" type="curve" smooth="yes"/>
      <point x="576" y="-129"/>
      <point x="561" y="-84"/>
      <point x="532" y="-28" type="curve"/>
      <point x="255" y="-11"/>
      <point x="97" y="164"/>
      <point x="97" y="499" type="curve" smooth="yes"/>
      <point x="97" y="773"/>
      <point x="201" y="1076"/>
      <point x="351" y="1266" type="curve" smooth="yes"/>
      <point x="487" y="1437"/>
      <point x="666" y="1520"/>
      <point x="874" y="1520" type="curve" smooth="yes"/>
      <point x="989" y="1520"/>
      <point x="1086" y="1494"/>
      <point x="1194" y="1438" type="curve"/>
      <point x="1153" y="1231" type="line"/>
      <point x="1069" y="1314"/>
      <point x="973" y="1356"/>
    </contour>
  </outline>
</glyph>
<glyph name="uni04DF" format="1">
  <advance width="1233"/>
  <unicode hex="04DF"/>
  <outline>
    <contour>
      <point x="457" y="1350" type="line" smooth="yes" name="dv01"/>
      <point x="437" y="1350"/>
      <point x="426" y="1363"/>
      <point x="430" y="1383" type="curve" smooth="yes" name="dv02"/>
      <point x="458" y="1525" type="line" smooth="yes"/>
      <point x="461" y="1543"/>
      <point x="471" y="1552"/>
      <point x="490" y="1552" type="curve" smooth="yes"/>
      <point x="633" y="1552" type="line" smooth="yes"/>
      <point x="652" y="1552" name="sv01"/>
      <point x="661" y="1544"/>
      <point x="661" y="1527" type="curve" smooth="yes"/>
      <point x="661" y="1524" name="sv02"/>
      <point x="661" y="1521"/>
      <point x="660" y="1519" type="curve" smooth="yes"/>
      <point x="632" y="1377" type="line" smooth="yes"/>
      <point x="629" y="1359"/>
      <point x="618" y="1350"/>
      <point x="600" y="1350" type="curve" smooth="yes" name="ab01"/>
    </contour>
    <contour>
      <point x="848" y="1350" type="line" smooth="yes"/>
      <point x="828" y="1350" name="iv01"/>
      <point x="817" y="1363" name="sv03"/>
      <point x="821" y="1383" type="curve" smooth="yes" name="dh01"/>
      <point x="849" y="1525" type="line" smooth="yes" name="dv03"/>
      <point x="852" y="1543"/>
      <point x="862" y="1552"/>
      <point x="881" y="1552" type="curve" smooth="yes" name="dv04"/>
      <point x="1024" y="1552" type="line" smooth="yes"/>
      <point x="1043" y="1552" name="ih01"/>
      <point x="1052" y="1544" name="sv04"/>
      <point x="1052" y="1527" type="curve" smooth="yes" name="iv02"/>
      <point x="1052" y="1524"/>
      <point x="1052" y="1521" name="at01"/>
      <point x="1051" y="1519" type="curve" smooth="yes" name="sh01"/>
      <point x="1023" y="1377" type="line" smooth="yes"/>
      <point x="1020" y="1359" name="iv03"/>
      <point x="1009" y="1350" name="dh02"/>
      <point x="991" y="1350" type="curve" smooth="yes"/>
    </contour>
    <contour>
      <point x="426" y="-22" type="curve" smooth="yes"/>
      <point x="301" y="-22"/>
      <point x="187" y="-3" name="sh02"/>
      <point x="66" y="34" type="curve"/>
      <point x="100" y="207" type="line"/>
      <point x="192" y="162"/>
      <point x="311" y="138"/>
      <point x="442" y="138" type="curve" smooth="yes"/>
      <point x="695" y="138"/>
      <point x="840" y="228"/>
      <point x="840" y="364" type="curve" smooth="yes"/>
      <point x="840" y="465"/>
      <point x="743" y="532"/>
      <point x="556" y="532" type="curve" smooth="yes"/>
      <point x="398" y="532" type="line"/>
      <point x="426" y="676" type="line"/>
      <point x="591" y="676" type="line" smooth="yes"/>
      <point x="775" y="676"/>
      <point x="879" y="741"/>
      <point x="900" y="824" type="curve"/>
      <point x="903" y="833"/>
      <point x="904" y="842"/>
      <point x="904" y="852" type="curve" smooth="yes"/>
      <point x="904" y="931"/>
      <point x="815" y="984"/>
      <point x="640" y="984" type="curve" smooth="yes"/>
      <point x="545" y="984"/>
      <point x="427" y="968"/>
      <point x="282" y="932" type="curve"/>
      <point x="314" y="1099" type="line"/>
      <point x="461" y="1131"/>
      <point x="586" y="1147"/>
      <point x="690" y="1147" type="curve" smooth="yes"/>
      <point x="941" y="1147"/>
      <point x="1094" y="1057"/>
      <point x="1094" y="905" type="curve" smooth="yes"/>
      <point x="1094" y="890"/>
      <point x="1092" y="874"/>
      <point x="1089" y="855" type="curve"/>
      <point x="1062" y="726"/>
      <point x="956" y="640"/>
      <point x="792" y="607" type="curve"/>
      <point x="941" y="579"/>
      <point x="1023" y="502"/>
      <point x="1023" y="379" type="curve" smooth="yes"/>
      <point x="1023" y="363"/>
      <point x="1021" y="346"/>
      <point x="1018" y="327" type="curve" smooth="yes"/>
      <point x="983" y="121"/>
      <point x="769" y="-22"/>
    </contour>
  </outline>
</glyph>
<glyph name="uni04E6" format="1">
  <advance width="1233"/>
  <unicode hex="04E6"/>
  <outline>
    <contour>
      <point x="492" y="1647" type="line" smooth="yes" name="dv03"/>
      <point x="472" y="1647"/>
      <point x="461" y="1660"/>
      <point x="465" y="1680" type="curve" smooth="yes" name="dv04"/>
      <point x="493" y="1823" type="line" smooth="yes"/>
      <point x="496" y="1841"/>
      <point x="506" y="1850"/>
      <point x="525" y="1850" type="curve" smooth="yes"/>
      <point x="669" y="1850" type="line" smooth="yes"/>
      <point x="687" y="1850" name="sv01"/>
      <point x="696" y="1842"/>
      <point x="696" y="1826" type="curve" smooth="yes"/>
      <point x="696" y="1822" name="sv02"/>
      <point x="696" y="1819"/>
      <point x="695" y="1817" type="curve" smooth="yes"/>
      <point x="666" y="1674" type="line" smooth="yes"/>
      <point x="662" y="1656"/>
      <point x="651" y="1647" name="dv01"/>
      <point x="634" y="1647" type="curve" smooth="yes" name="sh01"/>
    </contour>
    <contour>
      <point x="883" y="1647" type="line" smooth="yes"/>
      <point x="863" y="1647"/>
      <point x="852" y="1660"/>
      <point x="856" y="1680" type="curve" smooth="yes" name="at01"/>
      <point x="884" y="1823" type="line" smooth="yes" name="sh02"/>
      <point x="887" y="1841"/>
      <point x="897" y="1850"/>
      <point x="916" y="1850" type="curve" smooth="yes"/>
      <point x="1059" y="1850" type="line" smooth="yes" name="dv02"/>
      <point x="1079" y="1850"/>
      <point x="1090" y="1837" name="ah02"/>
      <point x="1086" y="1817" type="curve" smooth="yes" name="sv03"/>
      <point x="1058" y="1674" type="line" smooth="yes"/>
      <point x="1055" y="1656" name="sh03"/>
      <point x="1044" y="1647"/>
      <point x="1026" y="1647" type="curve" smooth="yes" name="ah01"/>
    </contour>
    <contour>
      <point x="480" y="-29" type="curve" smooth="yes" name="sh04"/>
      <point x="215" y="-29"/>
      <point x="82" y="134"/>
      <point x="82" y="459" type="curve" smooth="yes"/>
      <point x="82" y="544"/>
      <point x="90" y="632"/>
      <point x="105" y="722" type="curve" smooth="yes"/>
      <point x="121" y="812"/>
      <point x="142" y="896"/>
      <point x="167" y="975" type="curve" smooth="yes"/>
      <point x="208" y="1104"/>
      <point x="256" y="1200"/>
      <point x="304" y="1272" type="curve" smooth="yes"/>
      <point x="416" y="1439"/>
      <point x="560" y="1520"/>
      <point x="751" y="1520" type="curve" smooth="yes"/>
      <point x="1019" y="1520"/>
      <point x="1151" y="1362"/>
      <point x="1151" y="1037" type="curve" smooth="yes"/>
      <point x="1151" y="876"/>
      <point x="1117" y="683"/>
      <point x="1064" y="516" type="curve" smooth="yes"/>
      <point x="1024" y="391"/>
      <point x="976" y="292"/>
      <point x="927" y="219" type="curve" smooth="yes"/>
      <point x="814" y="48"/>
      <point x="667" y="-29"/>
    </contour>
    <contour>
      <point x="497" y="135" type="curve" smooth="yes"/>
      <point x="628" y="135"/>
      <point x="712" y="209"/>
      <point x="778" y="333" type="curve" smooth="yes"/>
      <point x="878" y="521"/>
      <point x="944" y="841"/>
      <point x="944" y="1060" type="curve" smooth="yes"/>
      <point x="944" y="1236"/>
      <point x="901" y="1356"/>
      <point x="734" y="1356" type="curve" smooth="yes"/>
      <point x="603" y="1356"/>
      <point x="522" y="1283"/>
      <point x="455" y="1159" type="curve" smooth="yes"/>
      <point x="355" y="972"/>
      <point x="287" y="651"/>
      <point x="287" y="432" type="curve" smooth="yes"/>
      <point x="287" y="247"/>
      <point x="334" y="135"/>
    </contour>
  </outline>
</glyph>
<glyph name="uni04E9" format="1">
  <advance width="1233"/>
  <unicode hex="04E9"/>
  <outline>
    <contour>
      <point x="502" y="-29" type="curve" smooth="yes" name="dv01"/>
      <point x="246" y="-29" name="sh01"/>
      <point x="116" y="108"/>
      <point x="116" y="364" type="curve" smooth="yes"/>
      <point x="116" y="423" name="at01"/>
      <point x="123" y="488" name="sh02"/>
      <point x="137" y="559" type="curve" smooth="yes"/>
      <point x="174" y="750"/>
      <point x="241" y="893" name="sh03"/>
      <point x="345" y="996" type="curve" smooth="yes" name="ah02"/>
      <point x="452" y="1101" name="sv01"/>
      <point x="580" y="1147"/>
      <point x="729" y="1147" type="curve" smooth="yes" name="dv02"/>
      <point x="986" y="1147" name="dv03"/>
      <point x="1117" y="1012" name="sh05"/>
      <point x="1117" y="753" type="curve" smooth="yes" name="sh04"/>
      <point x="1117" y="694"/>
      <point x="1110" y="630" name="ah01"/>
      <point x="1096" y="559" type="curve" smooth="yes" name="sh06"/>
      <point x="1021" y="178"/>
      <point x="815" y="-29"/>
    </contour>
    <contour>
      <point x="910" y="611" type="line"/>
      <point x="917" y="654"/>
      <point x="920" y="694"/>
      <point x="920" y="731" type="curve" smooth="yes"/>
      <point x="920" y="894"/>
      <point x="853" y="991"/>
      <point x="700" y="991" type="curve" smooth="yes"/>
      <point x="513" y="991"/>
      <point x="399" y="846"/>
      <point x="343" y="611" type="curve"/>
    </contour>
    <contour>
      <point x="532" y="127" type="curve" smooth="yes"/>
      <point x="720" y="127"/>
      <point x="819" y="270"/>
      <point x="873" y="447" type="curve"/>
      <point x="316" y="447" type="line"/>
      <point x="314" y="426"/>
      <point x="313" y="406"/>
      <point x="313" y="387" type="curve" smooth="yes"/>
      <point x="313" y="239"/>
      <point x="367" y="127"/>
    </contour>
  </outline>
</glyph>
<glyph name="uni04EA" format="1">
  <advance width="1233"/>
  <unicode hex="04EA"/>
  <outline>
    <contour>
      <point x="492" y="1647" type="line" smooth="yes" name="dv03"/>
      <point x="472" y="1647"/>
      <point x="461" y="1660"/>
      <point x="465" y="1680" type="curve" smooth="yes" name="dv04"/>
      <point x="493" y="1823" type="line" smooth="yes"/>
      <point x="496" y="1841"/>
      <point x="506" y="1850"/>
      <point x="525" y="1850" type="curve" smooth="yes"/>
      <point x="669" y="1850" type="line" smooth="yes"/>
      <point x="687" y="1850" name="sv01"/>
      <point x="696" y="1842"/>
      <point x="696" y="1826" type="curve" smooth="yes"/>
      <point x="696" y="1822" name="sv02"/>
      <point x="696" y="1819"/>
      <point x="695" y="1817" type="curve" smooth="yes"/>
      <point x="666" y="1674" type="line" smooth="yes"/>
      <point x="662" y="1656"/>
      <point x="651" y="1647" name="dv01"/>
      <point x="634" y="1647" type="curve" smooth="yes" name="sh01"/>
    </contour>
    <contour>
      <point x="883" y="1647" type="line" smooth="yes"/>
      <point x="863" y="1647" name="at01"/>
      <point x="852" y="1660" name="sh02"/>
      <point x="856" y="1680" type="curve" smooth="yes"/>
      <point x="884" y="1823" type="line" smooth="yes"/>
      <point x="887" y="1841" name="dv06"/>
      <point x="897" y="1850" name="ah02"/>
      <point x="916" y="1850" type="curve" smooth="yes" name="sv03"/>
      <point x="1059" y="1850" type="line" smooth="yes"/>
      <point x="1079" y="1850" name="dv02"/>
      <point x="1090" y="1837" name="dv05"/>
      <point x="1086" y="1817" type="curve" smooth="yes"/>
      <point x="1058" y="1674" type="line" smooth="yes" name="sh03"/>
      <point x="1055" y="1656"/>
      <point x="1044" y="1647"/>
      <point x="1026" y="1647" type="curve" smooth="yes" name="ah01"/>
    </contour>
    <contour>
      <point x="465" y="-29" type="curve" smooth="yes" name="sh04"/>
      <point x="210" y="-29"/>
      <point x="81" y="116"/>
      <point x="81" y="421" type="curve" smooth="yes"/>
      <point x="81" y="514"/>
      <point x="93" y="622"/>
      <point x="117" y="745" type="curve" smooth="yes"/>
      <point x="217" y="1258"/>
      <point x="424" y="1520"/>
      <point x="767" y="1520" type="curve" smooth="yes"/>
      <point x="1028" y="1520"/>
      <point x="1152" y="1369"/>
      <point x="1152" y="1068" type="curve" smooth="yes"/>
      <point x="1152" y="975"/>
      <point x="1140" y="867"/>
      <point x="1116" y="745" type="curve" smooth="yes"/>
      <point x="1015" y="225"/>
      <point x="802" y="-29"/>
    </contour>
    <contour>
      <point x="928" y="881" type="line"/>
      <point x="939" y="956"/>
      <point x="945" y="1021"/>
      <point x="945" y="1080" type="curve" smooth="yes"/>
      <point x="945" y="1256"/>
      <point x="890" y="1356"/>
      <point x="735" y="1356" type="curve" smooth="yes"/>
      <point x="530" y="1356"/>
      <point x="429" y="1177"/>
      <point x="357" y="881" type="curve"/>
    </contour>
    <contour>
      <point x="499" y="135" type="curve" smooth="yes"/>
      <point x="705" y="135"/>
      <point x="818" y="319"/>
      <point x="898" y="711" type="curve"/>
      <point x="321" y="711" type="line"/>
      <point x="298" y="594"/>
      <point x="289" y="495"/>
      <point x="289" y="415" type="curve" smooth="yes"/>
      <point x="289" y="359"/>
      <point x="294" y="313"/>
      <point x="304" y="276" type="curve" smooth="yes"/>
      <point x="330" y="182"/>
      <point x="395" y="135"/>
    </contour>
  </outline>
</glyph>
<glyph name="uni04EB" format="1">
  <advance width="1233"/>
  <unicode hex="04EB"/>
  <outline>
    <contour>
      <point x="469" y="1350" type="line" smooth="yes" name="dv03"/>
      <point x="449" y="1350"/>
      <point x="438" y="1363"/>
      <point x="442" y="1383" type="curve" smooth="yes" name="dv04"/>
      <point x="470" y="1525" type="line" smooth="yes"/>
      <point x="473" y="1543"/>
      <point x="483" y="1552"/>
      <point x="502" y="1552" type="curve" smooth="yes"/>
      <point x="645" y="1552" type="line" smooth="yes"/>
      <point x="664" y="1552" name="sv01"/>
      <point x="673" y="1544"/>
      <point x="673" y="1527" type="curve" smooth="yes"/>
      <point x="673" y="1524" name="sv02"/>
      <point x="673" y="1521"/>
      <point x="672" y="1519" type="curve" smooth="yes"/>
      <point x="644" y="1377" type="line" smooth="yes"/>
      <point x="641" y="1359"/>
      <point x="630" y="1350"/>
      <point x="612" y="1350" type="curve" smooth="yes" name="dv01"/>
    </contour>
    <contour>
      <point x="860" y="1350" type="line" smooth="yes" name="sh01"/>
      <point x="840" y="1350"/>
      <point x="829" y="1363"/>
      <point x="833" y="1383" type="curve" smooth="yes" name="at01"/>
      <point x="861" y="1525" type="line" smooth="yes" name="sh02"/>
      <point x="864" y="1543"/>
      <point x="874" y="1552"/>
      <point x="893" y="1552" type="curve" smooth="yes" name="sh03"/>
      <point x="1036" y="1552" type="line" smooth="yes" name="ah02"/>
      <point x="1055" y="1552" name="sv03"/>
      <point x="1064" y="1544"/>
      <point x="1064" y="1527" type="curve" smooth="yes" name="dv02"/>
      <point x="1064" y="1524" name="dv05"/>
      <point x="1064" y="1521" name="sh05"/>
      <point x="1063" y="1519" type="curve" smooth="yes" name="sh04"/>
      <point x="1035" y="1377" type="line" smooth="yes"/>
      <point x="1032" y="1359" name="ah01"/>
      <point x="1021" y="1350" name="sh06"/>
      <point x="1003" y="1350" type="curve" smooth="yes"/>
    </contour>
    <contour>
      <point x="502" y="-29" type="curve" smooth="yes"/>
      <point x="246" y="-29"/>
      <point x="116" y="108"/>
      <point x="116" y="364" type="curve" smooth="yes"/>
      <point x="116" y="423"/>
      <point x="123" y="488"/>
      <point x="137" y="559" type="curve" smooth="yes"/>
      <point x="174" y="750"/>
      <point x="241" y="893"/>
      <point x="345" y="996" type="curve" smooth="yes"/>
      <point x="452" y="1101"/>
      <point x="580" y="1147"/>
      <point x="729" y="1147" type="curve" smooth="yes"/>
      <point x="986" y="1147"/>
      <point x="1117" y="1012"/>
      <point x="1117" y="753" type="curve" smooth="yes"/>
      <point x="1117" y="694"/>
      <point x="1110" y="630"/>
      <point x="1096" y="559" type="curve" smooth="yes"/>
      <point x="1021" y="178"/>
      <point x="815" y="-29"/>
    </contour>
    <contour>
      <point x="910" y="611" type="line"/>
      <point x="917" y="654"/>
      <point x="920" y="694"/>
      <point x="920" y="731" type="curve" smooth="yes"/>
      <point x="920" y="894"/>
      <point x="853" y="991"/>
      <point x="700" y="991" type="curve" smooth="yes"/>
      <point x="513" y="991"/>
      <point x="399" y="846"/>
      <point x="343" y="611" type="curve"/>
    </contour>
    <contour>
      <point x="532" y="127" type="curve" smooth="yes"/>
      <point x="720" y="127"/>
      <point x="819" y="270"/>
      <point x="873" y="447" type="curve"/>
      <point x="316" y="447" type="line"/>
      <point x="314" y="426"/>
      <point x="313" y="406"/>
      <point x="313" y="387" type="curve" smooth="yes"/>
      <point x="313" y="239"/>
      <point x="367" y="127"/>
    </contour>
  </outline>
</glyph>
<glyph name="uni04EE" format="1">
  <advance width="1233"/>
  <unicode hex="04EE"/>
  <outline>
    <contour>
      <point x="546" y="1850" type="line" name="hr00"/>
      <point x="1144" y="1850" type="line" name="dv02"/>
      <point x="1115" y="1702" type="line" name="dv01"/>
      <point x="517" y="1702" type="line"/>
    </contour>
    <contour>
      <point x="87" y="172" type="line" name="sv01"/>
      <point x="196" y="172" type="line" smooth="yes"/>
      <point x="303" y="172"/>
      <point x="371" y="238"/>
      <point x="435" y="342" type="curve" name="at01"/>
      <point x="479" y="416" type="line"/>
      <point x="264" y="1493" type="line" name="iv01"/>
      <point x="481" y="1493" type="line" name="at02"/>
      <point x="631" y="663" type="line"/>
      <point x="1100" y="1493" type="line"/>
      <point x="1313" y="1493" type="line"/>
      <point x="694" y="425" type="line" name="ab01"/>
      <point x="633" y="318"/>
      <point x="569" y="221"/>
      <point x="513" y="156" type="curve" smooth="yes"/>
      <point x="450" y="82"/>
      <point x="359" y="0"/>
      <point x="202" y="0" type="curve" smooth="yes"/>
      <point x="54" y="0" type="line"/>
    </contour>
  </outline>
</glyph>
<glyph name="uni04F3" format="1">
  <advance width="1233"/>
  <unicode hex="04F3"/>
  <outline>
    <contour>
      <point x="703" y="1648" type="line" name="dv04"/>
      <point x="892" y="1648" type="line"/>
      <point x="590" y="1272" type="line" name="sv01"/>
      <point x="455" y="1272" type="line"/>
    </contour>
    <contour>
      <point x="1043" y="1648" type="line"/>
      <point x="1240" y="1648" type="line" name="sv02"/>
      <point x="916" y="1272" type="line"/>
      <point x="781" y="1272" type="line" name="dv03"/>
    </contour>
    <contour>
      <point x="5" y="-272" type="line"/>
      <point x="113" y="-272" type="line" smooth="yes" name="dv02"/>
      <point x="224" y="-272"/>
      <point x="298" y="-208"/>
      <point x="371" y="-66" type="curve" smooth="yes" name="at01"/>
      <point x="414" y="18" type="line"/>
      <point x="197" y="1120" type="line"/>
      <point x="380" y="1120" type="line" name="at02"/>
      <point x="552" y="258" type="line"/>
      <point x="1035" y="1120" type="line"/>
      <point x="1240" y="1120" type="line"/>
      <point x="801" y="360" type="line" smooth="yes"/>
      <point x="735" y="246" name="dv01"/>
      <point x="666" y="123"/>
      <point x="636" y="72" type="curve" smooth="yes"/>
      <point x="531" y="-112"/>
      <point x="468" y="-220"/>
      <point x="427" y="-276" type="curve"/>
      <point x="347" y="-381"/>
      <point x="245" y="-426"/>
      <point x="124" y="-426" type="curve" smooth="yes"/>
      <point x="-24" y="-426" type="line"/>
    </contour>
  </outline>
</glyph>
<glyph name="uni04F7" format="1">
  <advance width="1233"/>
  <unicode hex="04F7"/>
  <outline>
    <contour>
      <point x="586" y="184" type="line" name="sv01"/>
      <point x="769" y="184" type="line" name="dv02"/>
      <point x="843" y="566" type="line"/>
      <point x="817" y="531"/>
      <point x="782" y="502"/>
      <point x="739" y="479" type="curve" smooth="yes" name="dv03"/>
      <point x="688" y="452" type="line" smooth="yes" name="dh01"/>
      <point x="625" y="419"/>
      <point x="555" y="402" name="at01"/>
      <point x="479" y="402" type="curve" smooth="yes"/>
      <point x="295" y="402"/>
      <point x="209" y="498" name="dh02"/>
      <point x="209" y="686" type="curve" smooth="yes" name="dv04"/>
      <point x="209" y="735"/>
      <point x="215" y="792" name="at02"/>
      <point x="227" y="855" type="curve" smooth="yes"/>
      <point x="279" y="1122" type="line" name="ab01"/>
      <point x="464" y="1122" type="line"/>
      <point x="412" y="855" type="line" smooth="yes" name="dv01"/>
      <point x="404" y="812"/>
      <point x="399" y="775"/>
      <point x="399" y="740" type="curve" smooth="yes"/>
      <point x="399" y="616"/>
      <point x="457" y="562"/>
      <point x="573" y="562" type="curve" smooth="yes"/>
      <point x="746" y="562"/>
      <point x="866" y="684"/>
      <point x="911" y="916" type="curve" smooth="yes"/>
      <point x="951" y="1122" type="line"/>
      <point x="1135" y="1122" type="line"/>
      <point x="917" y="0" type="line"/>
      <point x="733" y="0" type="line"/>
      <point x="679" y="-276" type="line"/>
      <point x="496" y="-276" type="line"/>
    </contour>
  </outline>
</glyph>
<glyph name="uni0510" format="1">
  <advance width="1233"/>
  <unicode hex="0510"/>
  <outline>
    <contour>
      <point x="512" y="-29" type="curve" smooth="yes" name="dv01"/>
      <point x="224" y="-29" name="dh01"/>
      <point x="62" y="97"/>
      <point x="62" y="313" type="curve" smooth="yes" name="iv01"/>
      <point x="62" y="346" name="ih01"/>
      <point x="65" y="379"/>
      <point x="72" y="412" type="curve" smooth="yes" name="at01"/>
      <point x="111" y="611"/>
      <point x="241" y="746"/>
      <point x="450" y="799" type="curve" name="sv01"/>
      <point x="309" y="838"/>
      <point x="238" y="922" name="sh01"/>
      <point x="238" y="1047" type="curve" smooth="yes"/>
      <point x="238" y="1070" name="dv04"/>
      <point x="240" y="1095" name="dv03"/>
      <point x="245" y="1120" type="curve" smooth="yes"/>
      <point x="290" y="1362"/>
      <point x="516" y="1520" name="dh02"/>
      <point x="798" y="1520" type="curve" smooth="yes" name="dv02"/>
      <point x="902" y="1520"/>
      <point x="1019" y="1499"/>
      <point x="1172" y="1456" type="curve"/>
      <point x="1136" y="1270" type="line"/>
      <point x="1007" y="1325"/>
      <point x="881" y="1350"/>
      <point x="778" y="1350" type="curve" smooth="yes"/>
      <point x="586" y="1350"/>
      <point x="468" y="1261"/>
      <point x="443" y="1112" type="curve" smooth="yes"/>
      <point x="440" y="1097"/>
      <point x="439" y="1081"/>
      <point x="439" y="1065" type="curve" smooth="yes"/>
      <point x="439" y="941"/>
      <point x="532" y="881"/>
      <point x="693" y="881" type="curve" smooth="yes"/>
      <point x="847" y="881" type="line"/>
      <point x="815" y="715" type="line"/>
      <point x="661" y="715" type="line" smooth="yes"/>
      <point x="463" y="715"/>
      <point x="316" y="615"/>
      <point x="276" y="432" type="curve"/>
      <point x="271" y="405"/>
      <point x="268" y="382"/>
      <point x="268" y="361" type="curve" smooth="yes"/>
      <point x="268" y="224"/>
      <point x="367" y="141"/>
      <point x="566" y="141" type="curve" smooth="yes"/>
      <point x="694" y="141"/>
      <point x="833" y="174"/>
      <point x="982" y="246" type="curve"/>
      <point x="943" y="45" type="line"/>
      <point x="795" y="-3"/>
      <point x="644" y="-29"/>
    </contour>
  </outline>
</glyph>
<glyph name="uni051A" format="1">
  <advance width="1233"/>
  <unicode hex="051A"/>
  <outline>
    <contour>
      <point x="504" y="-27" type="line" name="ab01"/>
      <point x="494" y="-27" type="line" smooth="yes"/>
      <point x="213" y="-27" name="sh01"/>
      <point x="82" y="125"/>
      <point x="82" y="457" type="curve" smooth="yes"/>
      <point x="82" y="630" name="at01"/>
      <point x="116" y="818" name="sh02"/>
      <point x="167" y="975" type="curve" smooth="yes"/>
      <point x="207" y="1100"/>
      <point x="255" y="1199" name="ih01"/>
      <point x="304" y="1272" type="curve" smooth="yes"/>
      <point x="417" y="1443" name="av01"/>
      <point x="564" y="1520" name="sv01"/>
      <point x="751" y="1520" type="curve" smooth="yes"/>
      <point x="1020" y="1520" name="ah02"/>
      <point x="1151" y="1359" name="sv02"/>
      <point x="1151" y="1040" type="curve" smooth="yes"/>
      <point x="1151" y="912" name="sh03"/>
      <point x="1130" y="769"/>
      <point x="1095" y="629" type="curve" smooth="yes" name="ah01"/>
      <point x="1056" y="477" name="sh04"/>
      <point x="1009" y="360"/>
      <point x="962" y="275" type="curve" smooth="yes"/>
      <point x="885" y="135"/>
      <point x="794" y="55"/>
      <point x="690" y="10" type="curve"/>
      <point x="844" y="-178" type="line"/>
      <point x="690" y="-270" type="line"/>
    </contour>
    <contour>
      <point x="497" y="135" type="curve" smooth="yes"/>
      <point x="628" y="135"/>
      <point x="712" y="209"/>
      <point x="778" y="333" type="curve" smooth="yes"/>
      <point x="878" y="521"/>
      <point x="944" y="841"/>
      <point x="944" y="1060" type="curve" smooth="yes"/>
      <point x="944" y="1236"/>
      <point x="901" y="1356"/>
      <point x="734" y="1356" type="curve" smooth="yes"/>
      <point x="603" y="1356"/>
      <point x="522" y="1283"/>
      <point x="455" y="1159" type="curve" smooth="yes"/>
      <point x="355" y="972"/>
      <point x="287" y="651"/>
      <point x="287" y="432" type="curve" smooth="yes"/>
      <point x="287" y="247"/>
      <point x="334" y="135"/>
    </contour>
  </outline>
</glyph>
<glyph name="uni0533" format="1">
  <advance width="1233"/>
  <unicode hex="0533"/>
  <outline>
    <contour>
      <point x="760" y="451" type="line" name="dv01"/>
      <point x="491" y="451" type="line" smooth="yes"/>
      <point x="346" y="451"/>
      <point x="241" y="491" name="sh01"/>
      <point x="177" y="579" type="curve"/>
      <point x="134" y="636"/>
      <point x="111" y="712" name="at01"/>
      <point x="111" y="816" type="curve" smooth="yes"/>
      <point x="111" y="867" name="sh02"/>
      <point x="117" y="924"/>
      <point x="129" y="988" type="curve" smooth="yes" name="sv01"/>
      <point x="165" y="1179"/>
      <point x="235" y="1312" name="sh03"/>
      <point x="331" y="1397" type="curve" smooth="yes"/>
      <point x="427" y="1482" name="ab01"/>
      <point x="550" y="1520"/>
      <point x="699" y="1520" type="curve" smooth="yes" name="dv02"/>
      <point x="847" y="1520" name="sh04"/>
      <point x="957" y="1482" name="ah02"/>
      <point x="1021" y="1397" type="curve" smooth="yes"/>
      <point x="1064" y="1341" name="sv02"/>
      <point x="1086" y="1263"/>
      <point x="1086" y="1163" type="curve" smooth="yes"/>
      <point x="1086" y="1110" name="sh05"/>
      <point x="1080" y="1051" name="sh06"/>
      <point x="1067" y="988" type="curve" smooth="yes"/>
      <point x="995" y="621" type="line" name="ah01"/>
      <point x="1120" y="621" type="line" name="sh07"/>
      <point x="1087" y="451" type="line"/>
      <point x="962" y="451" type="line"/>
      <point x="875" y="0" type="line"/>
      <point x="673" y="0" type="line"/>
    </contour>
    <contour>
      <point x="793" y="621" type="line"/>
      <point x="878" y="1058" type="line" smooth="yes"/>
      <point x="885" y="1094"/>
      <point x="890" y="1129"/>
      <point x="890" y="1161" type="curve" smooth="yes"/>
      <point x="890" y="1198"/>
      <point x="884" y="1231"/>
      <point x="869" y="1262" type="curve" smooth="yes"/>
      <point x="841" y="1318"/>
      <point x="781" y="1356"/>
      <point x="664" y="1356" type="curve" smooth="yes"/>
      <point x="547" y="1356"/>
      <point x="480" y="1319"/>
      <point x="431" y="1251" type="curve" smooth="yes"/>
      <point x="383" y="1186"/>
      <point x="347" y="1088"/>
      <point x="328" y="988" type="curve" smooth="yes"/>
      <point x="317" y="932"/>
      <point x="312" y="879"/>
      <point x="312" y="832" type="curve" smooth="yes"/>
      <point x="312" y="787"/>
      <point x="317" y="751"/>
      <point x="326" y="724" type="curve" smooth="yes"/>
      <point x="347" y="663"/>
      <point x="407" y="621"/>
      <point x="524" y="621" type="curve" smooth="yes"/>
    </contour>
  </outline>
</glyph>
<glyph name="uni0546" format="1">
  <advance width="1233"/>
  <unicode hex="0546"/>
  <outline>
    <contour>
      <point x="562" y="-29" type="curve" smooth="yes" name="dv01"/>
      <point x="414" y="-29"/>
      <point x="305" y="10" name="dh01"/>
      <point x="240" y="90" type="curve" smooth="yes"/>
      <point x="195" y="145" name="sv01"/>
      <point x="172" y="220" name="sh01"/>
      <point x="172" y="314" type="curve" smooth="yes" name="at01"/>
      <point x="172" y="357"/>
      <point x="177" y="405"/>
      <point x="187" y="457" type="curve" smooth="yes" name="dh02"/>
      <point x="355" y="1323" type="line"/>
      <point x="168" y="1323" type="line" name="dv02"/>
      <point x="201" y="1493" type="line"/>
      <point x="590" y="1493" type="line"/>
      <point x="377" y="395" type="line" smooth="yes"/>
      <point x="372" y="368"/>
      <point x="369" y="343"/>
      <point x="369" y="319" type="curve" smooth="yes"/>
      <point x="369" y="284"/>
      <point x="375" y="250"/>
      <point x="391" y="221" type="curve" smooth="yes"/>
      <point x="419" y="170"/>
      <point x="476" y="135"/>
      <point x="592" y="135" type="curve" smooth="yes"/>
      <point x="707" y="135"/>
      <point x="781" y="170"/>
      <point x="829" y="221" type="curve" smooth="yes"/>
      <point x="876" y="270"/>
      <point x="899" y="334"/>
      <point x="911" y="395" type="curve" smooth="yes"/>
      <point x="954" y="618" type="line"/>
      <point x="1156" y="618" type="line"/>
      <point x="1125" y="457" type="line" smooth="yes"/>
      <point x="1093" y="290"/>
      <point x="1026" y="170"/>
      <point x="930" y="90" type="curve" smooth="yes"/>
      <point x="834" y="10"/>
      <point x="710" y="-29"/>
    </contour>
  </outline>
</glyph>
<glyph name="uni0552" format="1">
  <advance width="1233"/>
  <unicode hex="0552"/>
  <outline>
    <contour>
      <point x="280" y="1493" type="line" name="at01"/>
      <point x="483" y="1493" type="line"/>
      <point x="410" y="1120" type="line" name="at02"/>
      <point x="1170" y="1120" type="line"/>
      <point x="1136" y="945" type="line" name="sv01"/>
      <point x="376" y="945" type="line"/>
      <point x="192" y="0" type="line" name="ab01"/>
      <point x="-10" y="0" type="line"/>
    </contour>
  </outline>
</glyph>
<glyph name="uni0565" format="1">
  <advance width="1233"/>
  <unicode hex="0565"/>
  <outline>
    <contour>
      <point x="347" y="-29" type="curve" smooth="yes" name="sv02"/>
      <point x="164" y="-29" name="dh01"/>
      <point x="79" y="63"/>
      <point x="79" y="251" type="curve" smooth="yes" name="at01"/>
      <point x="79" y="303"/>
      <point x="85" y="361" name="at02"/>
      <point x="98" y="424" type="curve"/>
      <point x="318" y="1556" type="line" name="sv03"/>
      <point x="502" y="1556" type="line"/>
      <point x="417" y="1120" type="line"/>
      <point x="1138" y="1120" type="line" name="dh02"/>
      <point x="1110" y="977" type="line" name="sv01"/>
      <point x="389" y="977" type="line"/>
      <point x="282" y="424" type="line" smooth="yes"/>
      <point x="274" y="381"/>
      <point x="269" y="344" name="ab01"/>
      <point x="269" y="309" type="curve" smooth="yes"/>
      <point x="269" y="188" name="iv01"/>
      <point x="325" y="131"/>
      <point x="444" y="131" type="curve" smooth="yes"/>
      <point x="623" y="131"/>
      <point x="736" y="257"/>
      <point x="780" y="485" type="curve" smooth="yes"/>
      <point x="826" y="720" type="line"/>
      <point x="1011" y="720" type="line"/>
      <point x="871" y="0" type="line"/>
      <point x="686" y="0" type="line"/>
      <point x="719" y="168" type="line"/>
      <point x="627" y="39"/>
      <point x="503" y="-29"/>
    </contour>
  </outline>
</glyph>
<glyph name="uni0573" format="1">
  <advance width="1233"/>
  <unicode hex="0573"/>
  <outline>
    <contour>
      <point x="404" y="-29" type="curve" smooth="yes" name="dv01"/>
      <point x="279" y="-29"/>
      <point x="201" y="16" name="sh01"/>
      <point x="154" y="92" type="curve" smooth="yes" name="sh02"/>
      <point x="122" y="144" name="ih01"/>
      <point x="109" y="205"/>
      <point x="109" y="272" type="curve" smooth="yes" name="at03"/>
      <point x="109" y="311"/>
      <point x="114" y="351"/>
      <point x="121" y="392" type="curve" smooth="yes" name="at01"/>
      <point x="148" y="548" name="at02"/>
      <point x="234" y="786"/>
      <point x="345" y="977" type="curve" name="sv01"/>
      <point x="200" y="977" type="line"/>
      <point x="228" y="1120" type="line" name="ih02"/>
      <point x="438" y="1120" type="line"/>
      <point x="530" y="1245" name="sh03"/>
      <point x="634" y="1356" name="sh04"/>
      <point x="749" y="1433" type="curve" smooth="yes" name="ab01"/>
      <point x="865" y="1512"/>
      <point x="990" y="1556" name="ih03"/>
      <point x="1113" y="1556" type="curve" smooth="yes"/>
      <point x="1150" y="1556"/>
      <point x="1187" y="1552" name="dv02"/>
      <point x="1200" y="1545" type="curve"/>
      <point x="1171" y="1394" type="line"/>
      <point x="1146" y="1406" name="sh05"/>
      <point x="1108" y="1413" name="ah02"/>
      <point x="1073" y="1413" type="curve" smooth="yes"/>
      <point x="1000" y="1413" name="sv02"/>
      <point x="920" y="1382" name="sh07"/>
      <point x="847" y="1333" type="curve" smooth="yes" name="sh06"/>
      <point x="768" y="1280"/>
      <point x="693" y="1208"/>
      <point x="622" y="1116" type="curve" name="ah01"/>
      <point x="782" y="1103" name="sh08"/>
      <point x="900" y="1048"/>
      <point x="972" y="960" type="curve" smooth="yes"/>
      <point x="1026" y="894"/>
      <point x="1053" y="811"/>
      <point x="1053" y="712" type="curve" smooth="yes"/>
      <point x="1053" y="675"/>
      <point x="1049" y="636"/>
      <point x="1041" y="596" type="curve" smooth="yes"/>
      <point x="925" y="0" type="line"/>
      <point x="761" y="0" type="line"/>
      <point x="774" y="168" type="line"/>
      <point x="730" y="108"/>
      <point x="678" y="61"/>
      <point x="618" y="26" type="curve" smooth="yes"/>
      <point x="557" y="-9"/>
      <point x="487" y="-29"/>
    </contour>
    <contour>
      <point x="496" y="131" type="curve" smooth="yes"/>
      <point x="600" y="131"/>
      <point x="673" y="175"/>
      <point x="729" y="240" type="curve" smooth="yes"/>
      <point x="786" y="308"/>
      <point x="817" y="393"/>
      <point x="832" y="470" type="curve" smooth="yes"/>
      <point x="859" y="609" type="line" smooth="yes"/>
      <point x="865" y="639"/>
      <point x="868" y="668"/>
      <point x="868" y="697" type="curve" smooth="yes"/>
      <point x="868" y="761"/>
      <point x="851" y="818"/>
      <point x="815" y="862" type="curve" smooth="yes"/>
      <point x="762" y="926"/>
      <point x="669" y="966"/>
      <point x="525" y="975" type="curve"/>
      <point x="426" y="818"/>
      <point x="344" y="602"/>
      <point x="315" y="435" type="curve" smooth="yes"/>
      <point x="308" y="392"/>
      <point x="304" y="356"/>
      <point x="304" y="325" type="curve" smooth="yes"/>
      <point x="304" y="270"/>
      <point x="314" y="228"/>
      <point x="341" y="195" type="curve" smooth="yes"/>
      <point x="380" y="146"/>
      <point x="436" y="131"/>
    </contour>
  </outline>
</glyph>
<glyph name="uni0580" format="1">
  <advance width="1233"/>
  <unicode hex="0580"/>
  <outline>
    <contour>
      <point x="335" y="1120" type="line" name="at02"/>
      <point x="499" y="1120" type="line"/>
      <point x="486" y="952" type="line" name="iv01"/>
      <point x="578" y="1082" name="at01"/>
      <point x="701" y="1147" name="dh02"/>
      <point x="856" y="1147" type="curve" smooth="yes"/>
      <point x="1039" y="1147" name="ab01"/>
      <point x="1127" y="1056"/>
      <point x="1127" y="865" type="curve" smooth="yes"/>
      <point x="1127" y="814" name="dh01"/>
      <point x="1120" y="758" name="sv01"/>
      <point x="1108" y="694" type="curve" smooth="yes"/>
      <point x="973" y="0" type="line" name="av01"/>
      <point x="788" y="0" type="line"/>
      <point x="923" y="694" type="line" smooth="yes"/>
      <point x="931" y="737" name="sh01"/>
      <point x="936" y="774"/>
      <point x="936" y="809" type="curve" smooth="yes"/>
      <point x="936" y="933"/>
      <point x="878" y="987"/>
      <point x="762" y="987" type="curve" smooth="yes"/>
      <point x="583" y="987"/>
      <point x="467" y="855"/>
      <point x="424" y="633" type="curve" smooth="yes"/>
      <point x="219" y="-426" type="line"/>
      <point x="35" y="-426" type="line"/>
    </contour>
  </outline>
</glyph>
<glyph name="uni0586" format="1">
  <advance width="1233"/>
  <unicode hex="0586"/>
  <outline>
    <contour>
      <point x="385" y="-5" type="line" name="sh03"/>
      <point x="285" y="-5"/>
      <point x="206" y="16"/>
      <point x="138" y="53" type="curve" smooth="yes"/>
      <point x="73" y="89"/>
      <point x="24" y="135" name="sv01"/>
      <point x="-29" y="210" type="curve" name="dv01"/>
      <point x="118" y="338" type="line"/>
      <point x="155" y="271" name="sh01"/>
      <point x="189" y="229" name="sh04"/>
      <point x="234" y="194" type="curve" smooth="yes"/>
      <point x="281" y="158" name="at01"/>
      <point x="336" y="138"/>
      <point x="412" y="138" type="curve" name="sv02"/>
      <point x="571" y="952" type="line"/>
      <point x="439" y="952" name="sh05"/>
      <point x="343" y="984"/>
      <point x="280" y="1037" type="curve" smooth="yes"/>
      <point x="229" y="1080" name="ab01"/>
      <point x="204" y="1135" name="av01"/>
      <point x="204" y="1203" type="curve" smooth="yes"/>
      <point x="204" y="1220" name="sv03"/>
      <point x="206" y="1237" name="sh06"/>
      <point x="209" y="1256" type="curve" smooth="yes" name="sh02"/>
      <point x="225" y="1341" name="dv02"/>
      <point x="274" y="1423" name="sv04"/>
      <point x="366" y="1479" type="curve" smooth="yes"/>
      <point x="449" y="1530" name="sh07"/>
      <point x="560" y="1556" name="ah02"/>
      <point x="697" y="1556" type="curve" smooth="yes"/>
      <point x="872" y="1556" type="line" name="sv05"/>
      <point x="786" y="1115" type="line" name="ah01"/>
      <point x="971" y="1115" name="sh08"/>
      <point x="1089" y="1067"/>
      <point x="1153" y="975" type="curve" smooth="yes"/>
      <point x="1196" y="915"/>
      <point x="1212" y="840"/>
      <point x="1212" y="752" type="curve" smooth="yes"/>
      <point x="1212" y="699"/>
      <point x="1206" y="641"/>
      <point x="1194" y="579" type="curve" smooth="yes"/>
      <point x="1161" y="404"/>
      <point x="1099" y="261"/>
      <point x="996" y="157" type="curve" smooth="yes"/>
      <point x="893" y="53"/>
      <point x="756" y="-5"/>
      <point x="569" y="-5" type="curve"/>
      <point x="487" y="-426" type="line"/>
      <point x="303" y="-426" type="line"/>
    </contour>
    <contour>
      <point x="661" y="1414" type="line"/>
      <point x="497" y="1414"/>
      <point x="405" y="1359"/>
      <point x="390" y="1263" type="curve" smooth="yes"/>
      <point x="389" y="1255"/>
      <point x="388" y="1248"/>
      <point x="388" y="1241" type="curve" smooth="yes"/>
      <point x="388" y="1164"/>
      <point x="455" y="1115"/>
      <point x="602" y="1115" type="curve"/>
    </contour>
    <contour>
      <point x="596" y="138" type="line"/>
      <point x="725" y="138"/>
      <point x="812" y="184"/>
      <point x="879" y="264" type="curve" smooth="yes"/>
      <point x="947" y="345"/>
      <point x="992" y="459"/>
      <point x="1015" y="576" type="curve" smooth="yes"/>
      <point x="1024" y="625"/>
      <point x="1029" y="670"/>
      <point x="1029" y="711" type="curve" smooth="yes"/>
      <point x="1029" y="768"/>
      <point x="1020" y="819"/>
      <point x="1000" y="854" type="curve" smooth="yes"/>
      <point x="964" y="919"/>
      <point x="882" y="952"/>
      <point x="755" y="952" type="curve"/>
    </contour>
  </outline>
</glyph>
<glyph name="uni10D0" format="1">
  <advance width="1233"/>
  <unicode hex="10D0"/>
  <outline>
    <contour>
      <point x="493" y="0" type="curve" smooth="yes" name="ab01"/>
      <point x="242" y="0" name="dh01"/>
      <point x="123" y="106"/>
      <point x="123" y="338" type="curve" smooth="yes" name="ih01"/>
      <point x="123" y="511"/>
      <point x="190" y="585" name="dh02"/>
      <point x="257" y="660" type="curve" name="sv01"/>
      <point x="447" y="660" type="line" name="sh01"/>
      <point x="371" y="586" name="dh05"/>
      <point x="339" y="536"/>
      <point x="326" y="473" type="curve" smooth="yes" name="dh03"/>
      <point x="319" y="442" name="sh02"/>
      <point x="314" y="394"/>
      <point x="314" y="358" type="curve" smooth="yes" name="dh04"/>
      <point x="314" y="218"/>
      <point x="388" y="145" name="dh06"/>
      <point x="528" y="145" type="curve" smooth="yes"/>
      <point x="701" y="145"/>
      <point x="840" y="261"/>
      <point x="872" y="480" type="curve" smooth="yes" name="sh03"/>
      <point x="876" y="507"/>
      <point x="879" y="542"/>
      <point x="879" y="565" type="curve" smooth="yes"/>
      <point x="879" y="657"/>
      <point x="829" y="731"/>
      <point x="738" y="768" type="curve"/>
      <point x="585" y="825"/>
      <point x="509" y="923"/>
      <point x="509" y="1062" type="curve" smooth="yes"/>
      <point x="509" y="1087"/>
      <point x="512" y="1115"/>
      <point x="517" y="1146" type="curve"/>
      <point x="698" y="1146" type="line"/>
      <point x="694" y="1124"/>
      <point x="692" y="1103"/>
      <point x="692" y="1084" type="curve" smooth="yes"/>
      <point x="692" y="1011"/>
      <point x="723" y="961"/>
      <point x="784" y="934" type="curve"/>
      <point x="974" y="861"/>
      <point x="1069" y="744"/>
      <point x="1069" y="583" type="curve" smooth="yes"/>
      <point x="1069" y="554"/>
      <point x="1067" y="528"/>
      <point x="1060" y="495" type="curve"/>
      <point x="1000" y="163"/>
      <point x="806" y="0"/>
    </contour>
  </outline>
</glyph>
<glyph name="uni10D9" format="1">
  <advance width="1233"/>
  <unicode hex="10D9"/>
  <outline>
    <contour>
      <point x="485" y="-423" type="curve" smooth="yes" name="dv01"/>
      <point x="221" y="-423" name="dh01"/>
      <point x="87" y="-320"/>
      <point x="87" y="-119" type="curve" smooth="yes"/>
      <point x="87" y="-84" name="ih02"/>
      <point x="91" y="-39"/>
      <point x="99" y="0" type="curve" smooth="yes" name="dh02"/>
      <point x="119" y="96" name="dv02"/>
      <point x="167" y="170"/>
      <point x="258" y="241" type="curve"/>
      <point x="431" y="241" type="line" name="dh03"/>
      <point x="347" y="164" name="dv05"/>
      <point x="301" y="76"/>
      <point x="286" y="0" type="curve" smooth="yes"/>
      <point x="282" y="-21" name="dv06"/>
      <point x="278" y="-57"/>
      <point x="278" y="-86" type="curve" smooth="yes" name="ih01"/>
      <point x="278" y="-217" name="dv03"/>
      <point x="360" y="-282" name="dv04"/>
      <point x="513" y="-282" type="curve" smooth="yes" name="sh01"/>
      <point x="682" y="-282"/>
      <point x="793" y="-202"/>
      <point x="824" y="-30" type="curve" smooth="yes"/>
      <point x="833" y="20" type="line" name="dh04"/>
      <point x="840" y="52"/>
      <point x="843" y="75"/>
      <point x="843" y="106" type="curve" smooth="yes"/>
      <point x="843" y="231"/>
      <point x="781" y="292" name="sh02"/>
      <point x="648" y="292" type="curve" smooth="yes"/>
      <point x="583" y="292" type="line"/>
      <point x="613" y="444" type="line"/>
      <point x="678" y="444" type="line" smooth="yes"/>
      <point x="827" y="444"/>
      <point x="919" y="507"/>
      <point x="944" y="642" type="curve" smooth="yes"/>
      <point x="947" y="657"/>
      <point x="948" y="672"/>
      <point x="948" y="683" type="curve" smooth="yes"/>
      <point x="948" y="810"/>
      <point x="826" y="872"/>
      <point x="567" y="872" type="curve"/>
      <point x="597" y="1026" type="line"/>
      <point x="954" y="1026"/>
      <point x="1132" y="926"/>
      <point x="1132" y="725" type="curve" smooth="yes"/>
      <point x="1132" y="698"/>
      <point x="1129" y="669"/>
      <point x="1124" y="642" type="curve" smooth="yes"/>
      <point x="1097" y="507"/>
      <point x="1003" y="420"/>
      <point x="808" y="385" type="curve"/>
      <point x="804" y="365" type="line"/>
      <point x="964" y="336"/>
      <point x="1031" y="250"/>
      <point x="1031" y="110" type="curve" smooth="yes"/>
      <point x="1031" y="75"/>
      <point x="1028" y="52"/>
      <point x="1021" y="20" type="curve"/>
      <point x="1012" y="-30" type="line" smooth="yes"/>
      <point x="965" y="-286"/>
      <point x="790" y="-423"/>
    </contour>
  </outline>
</glyph>
<glyph name="uni10DC" format="1">
  <advance width="1233"/>
  <unicode hex="10DC"/>
  <outline>
    <contour>
      <point x="459" y="0" type="curve" smooth="yes" name="ab01"/>
      <point x="215" y="0" name="sh01"/>
      <point x="89" y="111"/>
      <point x="89" y="336" type="curve" smooth="yes"/>
      <point x="89" y="381"/>
      <point x="94" y="433" name="dv02"/>
      <point x="105" y="490" type="curve" smooth="yes" name="dv01"/>
      <point x="240" y="1184" type="line" smooth="yes"/>
      <point x="285" y="1415"/>
      <point x="419" y="1531" name="sv01"/>
      <point x="640" y="1531" type="curve" smooth="yes"/>
      <point x="1102" y="1531" type="line" name="dv04"/>
      <point x="1074" y="1388" type="line" name="sh02"/>
      <point x="592" y="1388" type="line" smooth="yes"/>
      <point x="499" y="1388"/>
      <point x="440" y="1329" name="sv02"/>
      <point x="417" y="1212" type="curve" smooth="yes" name="sh03"/>
      <point x="360" y="918" type="line" name="ah02"/>
      <point x="395" y="918" type="line" name="dv03"/>
      <point x="448" y="993"/>
      <point x="580" y="1049" name="sh04"/>
      <point x="712" y="1049" type="curve" smooth="yes"/>
      <point x="881" y="1049" name="ah01"/>
      <point x="1048" y="958" name="sh05"/>
      <point x="1048" y="701" type="curve" smooth="yes"/>
      <point x="1048" y="656"/>
      <point x="1043" y="605"/>
      <point x="1032" y="548" type="curve" smooth="yes"/>
      <point x="964" y="181"/>
      <point x="772" y="0"/>
    </contour>
    <contour>
      <point x="492" y="146" type="line" smooth="yes"/>
      <point x="669" y="146"/>
      <point x="802" y="284"/>
      <point x="847" y="545" type="curve" smooth="yes"/>
      <point x="855" y="593"/>
      <point x="860" y="645"/>
      <point x="860" y="682" type="curve" smooth="yes"/>
      <point x="860" y="826"/>
      <point x="785" y="904"/>
      <point x="640" y="904" type="curve" smooth="yes"/>
      <point x="455" y="904"/>
      <point x="338" y="778"/>
      <point x="291" y="525" type="curve" smooth="yes"/>
      <point x="281" y="471"/>
      <point x="276" y="423"/>
      <point x="276" y="381" type="curve" smooth="yes"/>
      <point x="276" y="224"/>
      <point x="347" y="146"/>
      <point x="489" y="146" type="curve" smooth="yes"/>
    </contour>
  </outline>
</glyph>
<glyph name="uni10E0" format="1">
  <advance width="1233"/>
  <unicode hex="10E0"/>
  <outline>
    <contour>
      <point x="114" y="0" type="line" name="ab01"/>
      <point x="29" y="107" name="sh01"/>
      <point x="-14" y="223" name="sh02"/>
      <point x="-14" y="359" type="curve" smooth="yes"/>
      <point x="-14" y="400" name="sh03"/>
      <point x="-10" y="445"/>
      <point x="-1" y="490" type="curve" smooth="yes" name="ih01"/>
      <point x="19" y="593" type="line" smooth="yes"/>
      <point x="83" y="928" name="sv01"/>
      <point x="380" y="1393"/>
      <point x="975" y="1557" type="curve"/>
      <point x="972" y="1409" type="line" name="dv02"/>
      <point x="719" y="1354" name="sh04"/>
      <point x="498" y="1209"/>
      <point x="307" y="974" type="curve"/>
      <point x="331" y="974" type="line" name="ab02"/>
      <point x="429" y="1035" type="line" name="ih02"/>
      <point x="539" y="1035"/>
      <point x="612" y="1002"/>
      <point x="647" y="937" type="curve" name="ah02"/>
      <point x="662" y="937" type="line" name="dv01"/>
      <point x="723" y="1002"/>
      <point x="806" y="1035"/>
      <point x="911" y="1035" type="curve" smooth="yes"/>
      <point x="1078" y="1035"/>
      <point x="1161" y="944"/>
      <point x="1161" y="762" type="curve" smooth="yes"/>
      <point x="1161" y="714" name="sv02"/>
      <point x="1155" y="659"/>
      <point x="1143" y="596" type="curve" smooth="yes"/>
      <point x="1115" y="454" type="line" smooth="yes" name="sh06"/>
      <point x="1083" y="289" name="sh05"/>
      <point x="988" y="143" name="ih03"/>
      <point x="819" y="0" type="curve"/>
      <point x="622" y="0" type="line" name="ah01"/>
      <point x="789" y="123" name="sh07"/>
      <point x="887" y="258"/>
      <point x="916" y="403" type="curve" smooth="yes"/>
      <point x="954" y="596" type="line" smooth="yes"/>
      <point x="965" y="655"/>
      <point x="971" y="711"/>
      <point x="971" y="752" type="curve" smooth="yes"/>
      <point x="971" y="847"/>
      <point x="940" y="894"/>
      <point x="879" y="894" type="curve" smooth="yes"/>
      <point x="791" y="894" type="line" smooth="yes"/>
      <point x="746" y="894"/>
      <point x="715" y="835"/>
      <point x="694" y="727" type="curve" smooth="yes"/>
      <point x="632" y="410" type="line"/>
      <point x="472" y="410" type="line"/>
      <point x="535" y="727" type="line" smooth="yes"/>
      <point x="542" y="760"/>
      <point x="545" y="789"/>
      <point x="545" y="814" type="curve" smooth="yes"/>
      <point x="545" y="867"/>
      <point x="528" y="894"/>
      <point x="494" y="894" type="curve" smooth="yes"/>
      <point x="370" y="894" type="line" smooth="yes"/>
      <point x="301" y="894"/>
      <point x="248" y="796"/>
      <point x="210" y="601" type="curve" smooth="yes"/>
      <point x="178" y="436" type="line"/>
      <point x="171" y="404"/>
      <point x="169" y="367"/>
      <point x="169" y="336" type="curve" smooth="yes"/>
      <point x="169" y="210"/>
      <point x="221" y="98"/>
      <point x="324" y="0" type="curve"/>
    </contour>
  </outline>
</glyph>
<glyph name="uni10E1" format="1">
  <advance width="1233"/>
  <unicode hex="10E1"/>
  <outline>
    <contour>
      <point x="467" y="0" type="curve" smooth="yes" name="ab01"/>
      <point x="226" y="0" name="dh01"/>
      <point x="94" y="115"/>
      <point x="94" y="346" type="curve" smooth="yes" name="av01"/>
      <point x="94" y="397"/>
      <point x="100" y="456"/>
      <point x="111" y="515" type="curve" smooth="yes" name="dh02"/>
      <point x="307" y="1521" type="line" name="sv01"/>
      <point x="489" y="1521" type="line" name="sh02"/>
      <point x="293" y="515" type="line" smooth="yes" name="sh01"/>
      <point x="284" y="467"/>
      <point x="279" y="418" name="dh03"/>
      <point x="279" y="379" type="curve" smooth="yes"/>
      <point x="279" y="222"/>
      <point x="359" y="145"/>
      <point x="496" y="145" type="curve" smooth="yes"/>
      <point x="685" y="145"/>
      <point x="810" y="295"/>
      <point x="842" y="515" type="curve" smooth="yes" name="dh04"/>
      <point x="846" y="542" name="sh03"/>
      <point x="849" y="574"/>
      <point x="849" y="597" type="curve" smooth="yes"/>
      <point x="849" y="680" name="sh04"/>
      <point x="808" y="731"/>
      <point x="751" y="774" type="curve" smooth="yes"/>
      <point x="714" y="801"/>
      <point x="653" y="844"/>
      <point x="653" y="924" type="curve" smooth="yes"/>
      <point x="653" y="934"/>
      <point x="654" y="944"/>
      <point x="656" y="954" type="curve" smooth="yes"/>
      <point x="675" y="1053"/>
      <point x="762" y="1144"/>
      <point x="915" y="1227" type="curve"/>
      <point x="978" y="1103" type="line"/>
      <point x="876" y="1066"/>
      <point x="821" y="1028"/>
      <point x="813" y="988" type="curve" smooth="yes"/>
      <point x="812" y="985"/>
      <point x="812" y="981"/>
      <point x="812" y="976" type="curve" smooth="yes"/>
      <point x="812" y="915"/>
      <point x="885" y="866"/>
      <point x="925" y="834" type="curve" smooth="yes"/>
      <point x="992" y="781"/>
      <point x="1037" y="724"/>
      <point x="1037" y="617" type="curve" smooth="yes"/>
      <point x="1037" y="585"/>
      <point x="1033" y="547"/>
      <point x="1028" y="515" type="curve" smooth="yes"/>
      <point x="977" y="192"/>
      <point x="777" y="0"/>
    </contour>
  </outline>
</glyph>
<glyph name="uni10E2" format="1">
  <advance width="1233"/>
  <unicode hex="10E2"/>
  <outline>
    <contour>
      <point x="452" y="-423" type="curve" smooth="yes" name="dv01"/>
      <point x="147" y="-423" name="sh01"/>
      <point x="-7" y="-267"/>
      <point x="-7" y="33" type="curve" smooth="yes"/>
      <point x="-7" y="105" name="av01"/>
      <point x="2" y="198"/>
      <point x="19" y="290" type="curve" smooth="yes"/>
      <point x="97" y="704" name="sh02"/>
      <point x="324" y="950"/>
      <point x="664" y="1001" type="curve"/>
      <point x="699" y="1258" type="line" name="dv02"/>
      <point x="865" y="1258" type="line"/>
      <point x="800" y="997" type="line" name="ah02"/>
      <point x="1059" y="957"/>
      <point x="1187" y="795"/>
      <point x="1187" y="523" type="curve" smooth="yes"/>
      <point x="1187" y="455" name="ih01"/>
      <point x="1179" y="372"/>
      <point x="1163" y="284" type="curve" smooth="yes" name="sh03"/>
      <point x="1078" y="-176"/>
      <point x="831" y="-423" name="ah01"/>
    </contour>
    <contour>
      <point x="479" y="-283" type="curve" smooth="yes" name="sh04"/>
      <point x="732" y="-283"/>
      <point x="913" y="-89"/>
      <point x="982" y="290" type="curve" smooth="yes"/>
      <point x="997" y="370"/>
      <point x="1004" y="447"/>
      <point x="1004" y="510" type="curve" smooth="yes"/>
      <point x="1004" y="694"/>
      <point x="931" y="832"/>
      <point x="778" y="888" type="curve"/>
      <point x="689" y="349" type="line"/>
      <point x="524" y="349" type="line"/>
      <point x="642" y="887" type="line"/>
      <point x="407" y="815"/>
      <point x="263" y="586"/>
      <point x="207" y="290" type="curve" smooth="yes"/>
      <point x="191" y="203"/>
      <point x="183" y="119"/>
      <point x="183" y="55" type="curve" smooth="yes"/>
      <point x="183" y="-166"/>
      <point x="280" y="-283"/>
    </contour>
  </outline>
</glyph>
<glyph name="uni10EA" format="1">
  <advance width="1233"/>
  <unicode hex="10EA"/>
  <outline>
    <contour>
      <point x="484" y="-423" type="curve" smooth="yes" name="dv01"/>
      <point x="193" y="-423" name="dh01"/>
      <point x="51" y="-278"/>
      <point x="51" y="25" type="curve" smooth="yes"/>
      <point x="51" y="101" name="av01"/>
      <point x="60" y="188"/>
      <point x="79" y="284" type="curve" smooth="yes"/>
      <point x="98" y="381" type="line" smooth="yes"/>
      <point x="140" y="597" name="dh02"/>
      <point x="254" y="824" name="dv02"/>
      <point x="439" y="1061" type="curve"/>
      <point x="569" y="985" type="line" name="ih01"/>
      <point x="428" y="818" name="dv03"/>
      <point x="338" y="637"/>
      <point x="299" y="442" type="curve" smooth="yes"/>
      <point x="268" y="284" type="line" smooth="yes" name="dv04"/>
      <point x="252" y="201"/>
      <point x="242" y="117" name="dh05"/>
      <point x="242" y="42" type="curve" smooth="yes"/>
      <point x="242" y="-179" name="dh03"/>
      <point x="329" y="-283" name="sh01"/>
      <point x="517" y="-283" type="curve" smooth="yes"/>
      <point x="726" y="-283" name="dh04"/>
      <point x="880" y="-151"/>
      <point x="925" y="102" type="curve" smooth="yes" name="dh06"/>
      <point x="930" y="133"/>
      <point x="933" y="159"/>
      <point x="933" y="180" type="curve" smooth="yes" name="sh02"/>
      <point x="933" y="274" name="sh03"/>
      <point x="884" y="321" name="sh04"/>
      <point x="785" y="321" type="curve" smooth="yes"/>
      <point x="601" y="321" type="line"/>
      <point x="628" y="457" type="line" name="sh05"/>
      <point x="804" y="457" type="line" smooth="yes"/>
      <point x="909" y="457"/>
      <point x="980" y="516"/>
      <point x="1003" y="641" type="curve" smooth="yes"/>
      <point x="1005" y="652"/>
      <point x="1006" y="662"/>
      <point x="1006" y="672" type="curve" smooth="yes"/>
      <point x="1006" y="744"/>
      <point x="955" y="779"/>
      <point x="875" y="808" type="curve" smooth="yes"/>
      <point x="837" y="822"/>
      <point x="767" y="851"/>
      <point x="767" y="963" type="curve" smooth="yes"/>
      <point x="767" y="982"/>
      <point x="769" y="1003"/>
      <point x="773" y="1026" type="curve"/>
      <point x="956" y="1026" type="line"/>
      <point x="953" y="1013"/>
      <point x="952" y="1000"/>
      <point x="952" y="987" type="curve" smooth="yes"/>
      <point x="952" y="924"/>
      <point x="980" y="886"/>
      <point x="1053" y="855" type="curve" smooth="yes"/>
      <point x="1097" y="836"/>
      <point x="1184" y="801"/>
      <point x="1184" y="691" type="curve" smooth="yes"/>
      <point x="1184" y="675"/>
      <point x="1182" y="662"/>
      <point x="1179" y="645" type="curve" smooth="yes"/>
      <point x="1158" y="537"/>
      <point x="1085" y="463"/>
      <point x="962" y="404" type="curve"/>
      <point x="958" y="384" type="line"/>
      <point x="1051" y="320"/>
      <point x="1104" y="233"/>
      <point x="1104" y="140" type="curve" smooth="yes"/>
      <point x="1104" y="121"/>
      <point x="1102" y="95"/>
      <point x="1099" y="70" type="curve" smooth="yes"/>
      <point x="1062" y="-226"/>
      <point x="821" y="-423"/>
    </contour>
  </outline>
</glyph>
<glyph name="uni10EE" format="1">
  <advance width="1233"/>
  <unicode hex="10EE"/>
  <outline>
    <contour>
      <point x="468" y="0" type="curve" smooth="yes" name="ab01"/>
      <point x="221" y="0" name="sh01"/>
      <point x="95" y="116"/>
      <point x="95" y="353" type="curve" smooth="yes" name="av01"/>
      <point x="95" y="404"/>
      <point x="101" y="462" name="sv01"/>
      <point x="113" y="525" type="curve" smooth="yes"/>
      <point x="307" y="1521" type="line" name="dv02"/>
      <point x="478" y="1521" type="line" name="sh02"/>
      <point x="360" y="914" type="line"/>
      <point x="401" y="914" type="line"/>
      <point x="460" y="992" name="sv02"/>
      <point x="591" y="1049"/>
      <point x="722" y="1049" type="curve" smooth="yes" name="ah02"/>
      <point x="887" y="1049" name="dv01"/>
      <point x="1049" y="957"/>
      <point x="1049" y="702" type="curve" smooth="yes" name="sh03"/>
      <point x="1049" y="649"/>
      <point x="1042" y="585" name="ah01"/>
      <point x="1031" y="525" type="curve" smooth="yes" name="sh04"/>
      <point x="967" y="178"/>
      <point x="771" y="0"/>
    </contour>
    <contour>
      <point x="498" y="145" type="curve" smooth="yes"/>
      <point x="683" y="145"/>
      <point x="801" y="286"/>
      <point x="844" y="525" type="curve"/>
      <point x="855" y="580"/>
      <point x="859" y="638"/>
      <point x="859" y="677" type="curve" smooth="yes"/>
      <point x="859" y="825"/>
      <point x="789" y="904"/>
      <point x="648" y="904" type="curve" smooth="yes"/>
      <point x="461" y="904"/>
      <point x="342" y="764"/>
      <point x="298" y="523" type="curve"/>
      <point x="287" y="467"/>
      <point x="283" y="415"/>
      <point x="283" y="376" type="curve" smooth="yes"/>
      <point x="283" y="227"/>
      <point x="355" y="145"/>
    </contour>
  </outline>
</glyph>
<glyph name="uni10F2" format="1">
  <advance width="1233"/>
  <unicode hex="10F2"/>
  <outline>
    <contour>
      <point x="114" y="-60" type="line" name="hr00"/>
      <point x="213" y="-60" name="sh03"/>
      <point x="295" y="-30" name="sh01"/>
      <point x="360" y="29" type="curve" name="sh04"/>
      <point x="235" y="119" name="dv02"/>
      <point x="172" y="240" name="sh05"/>
      <point x="172" y="391" type="curve" smooth="yes"/>
      <point x="172" y="430"/>
      <point x="176" y="474" name="sh06"/>
      <point x="185" y="519" type="curve" smooth="yes" name="sh07"/>
      <point x="257" y="886" name="av01"/>
      <point x="509" y="1045"/>
      <point x="734" y="1045" type="curve" smooth="yes" name="av02"/>
      <point x="938" y="1045"/>
      <point x="1120" y="913"/>
      <point x="1120" y="685" type="curve" smooth="yes" name="ah02"/>
      <point x="1120" y="642" name="dv01"/>
      <point x="1114" y="583" name="sh08"/>
      <point x="1101" y="519" type="curve" smooth="yes" name="sh02"/>
      <point x="1058" y="311"/>
      <point x="948" y="150" name="ah01"/>
      <point x="725" y="29" type="curve" name="sh09"/>
      <point x="772" y="-30"/>
      <point x="840" y="-60"/>
      <point x="928" y="-60" type="curve" smooth="yes"/>
      <point x="943" y="-60" type="line"/>
      <point x="902" y="-269" type="line"/>
      <point x="735" y="-223"/>
      <point x="614" y="-135"/>
      <point x="539" y="-6" type="curve"/>
      <point x="386" y="-135"/>
      <point x="230" y="-222"/>
      <point x="73" y="-269" type="curve"/>
    </contour>
    <contour>
      <point x="563" y="118" type="curve"/>
      <point x="757" y="177"/>
      <point x="869" y="299"/>
      <point x="914" y="519" type="curve" smooth="yes"/>
      <point x="925" y="572"/>
      <point x="930" y="620"/>
      <point x="930" y="663" type="curve" smooth="yes"/>
      <point x="930" y="824"/>
      <point x="854" y="902"/>
      <point x="718" y="902" type="curve" smooth="yes"/>
      <point x="532" y="902"/>
      <point x="409" y="756"/>
      <point x="369" y="519" type="curve" smooth="yes"/>
      <point x="362" y="478"/>
      <point x="358" y="430"/>
      <point x="358" y="397" type="curve" smooth="yes"/>
      <point x="358" y="260"/>
      <point x="428" y="161"/>
    </contour>
  </outline>
</glyph>
<glyph name="uni10F6" format="1">
  <advance width="1233"/>
  <unicode hex="10F6"/>
  <outline>
    <contour>
      <point x="245" y="-282" type="line" name="sh03"/>
      <point x="367" y="-282"/>
      <point x="440" y="-205"/>
      <point x="464" y="-51" type="curve"/>
      <point x="615" y="726" type="line" smooth="yes"/>
      <point x="622" y="763" name="dv02"/>
      <point x="625" y="794"/>
      <point x="625" y="818" type="curve" smooth="yes"/>
      <point x="625" y="875" name="sh04"/>
      <point x="607" y="904" name="sh02"/>
      <point x="572" y="904" type="curve"/>
      <point x="475" y="903" type="line"/>
      <point x="474" y="903" type="line" name="sh01"/>
      <point x="398" y="903" name="sh05"/>
      <point x="348" y="840"/>
      <point x="324" y="715" type="curve" smooth="yes" name="dv03"/>
      <point x="262" y="396" type="line" smooth="yes" name="sv01"/>
      <point x="255" y="360"/>
      <point x="251" y="329" name="sv02"/>
      <point x="251" y="301" type="curve" smooth="yes" name="sh06"/>
      <point x="251" y="220"/>
      <point x="283" y="179"/>
      <point x="347" y="179" type="curve" name="ab01"/>
      <point x="319" y="31" type="line"/>
      <point x="147" y="32"/>
      <point x="61" y="116"/>
      <point x="61" y="284" type="curve" smooth="yes" name="dv01"/>
      <point x="61" y="320" name="sv03"/>
      <point x="65" y="363"/>
      <point x="74" y="410" type="curve" smooth="yes" name="sh07"/>
      <point x="121" y="650" type="line" smooth="yes" name="ah02"/>
      <point x="172" y="913" name="sv04"/>
      <point x="296" y="1046"/>
      <point x="503" y="1046" type="curve" smooth="yes"/>
      <point x="625" y="1046"/>
      <point x="699" y="998"/>
      <point x="726" y="901" type="curve"/>
      <point x="742" y="901" type="line" name="ah01"/>
      <point x="799" y="990" name="sh08"/>
      <point x="911" y="1046"/>
      <point x="1020" y="1046" type="curve" smooth="yes"/>
      <point x="1144" y="1046"/>
      <point x="1259" y="971"/>
      <point x="1259" y="788" type="curve" smooth="yes"/>
      <point x="1259" y="749"/>
      <point x="1254" y="703"/>
      <point x="1244" y="650" type="curve" smooth="yes"/>
      <point x="1196" y="406" type="line" smooth="yes"/>
      <point x="1144" y="138"/>
      <point x="1017" y="0"/>
      <point x="821" y="0" type="curve" smooth="yes"/>
      <point x="725" y="0"/>
      <point x="686" y="33"/>
      <point x="681" y="116" type="curve"/>
      <point x="666" y="116" type="line"/>
      <point x="635" y="-36" type="line" smooth="yes"/>
      <point x="582" y="-299"/>
      <point x="437" y="-424"/>
      <point x="217" y="-424" type="curve"/>
    </contour>
    <contour>
      <point x="833" y="145" type="curve" smooth="yes"/>
      <point x="921" y="145"/>
      <point x="968" y="200"/>
      <point x="989" y="312" type="curve" smooth="yes"/>
      <point x="1070" y="729" type="line" smooth="yes"/>
      <point x="1075" y="752"/>
      <point x="1077" y="774"/>
      <point x="1077" y="793" type="curve" smooth="yes"/>
      <point x="1077" y="868"/>
      <point x="1044" y="904"/>
      <point x="968" y="904" type="curve" smooth="yes"/>
      <point x="892" y="904" type="line" smooth="yes"/>
      <point x="843" y="904"/>
      <point x="808" y="848"/>
      <point x="787" y="737" type="curve" smooth="yes"/>
      <point x="713" y="356" type="line" smooth="yes"/>
      <point x="708" y="328"/>
      <point x="705" y="304"/>
      <point x="705" y="281" type="curve" smooth="yes"/>
      <point x="705" y="189"/>
      <point x="753" y="145"/>
    </contour>
  </outline>
</glyph>
<glyph name="uni10F9" format="1">
  <advance width="1233"/>
  <unicode hex="10F9"/>
  <outline>
    <contour>
      <point x="490" y="-425" type="curve" smooth="yes" name="dv01"/>
      <point x="285" y="-425" name="ih01"/>
      <point x="190" y="-353"/>
      <point x="190" y="-200" type="curve" smooth="yes" name="ih02"/>
      <point x="190" y="-173" name="dh01"/>
      <point x="193" y="-144"/>
      <point x="199" y="-113" type="curve" smooth="yes" name="dv04"/>
      <point x="229" y="41" name="dh04"/>
      <point x="329" y="146"/>
      <point x="500" y="202" type="curve"/>
      <point x="273" y="252"/>
      <point x="160" y="362" name="sh01"/>
      <point x="160" y="532" type="curve" smooth="yes" name="dv02"/>
      <point x="160" y="559"/>
      <point x="163" y="588" name="sv01"/>
      <point x="169" y="619" type="curve" smooth="yes"/>
      <point x="228" y="924"/>
      <point x="503" y="1061"/>
      <point x="753" y="1061" type="curve" smooth="yes"/>
      <point x="984" y="1061"/>
      <point x="1194" y="944" name="dh03"/>
      <point x="1194" y="735" type="curve" smooth="yes" name="dv03"/>
      <point x="1194" y="706" name="sh02"/>
      <point x="1190" y="660" name="dh02"/>
      <point x="1182" y="619" type="curve" smooth="yes"/>
      <point x="1145" y="428"/>
      <point x="993" y="285" name="sh03"/>
      <point x="733" y="173" type="curve"/>
      <point x="523" y="96"/>
      <point x="407" y="4"/>
      <point x="385" y="-102" type="curve" smooth="yes"/>
      <point x="381" y="-122"/>
      <point x="379" y="-145"/>
      <point x="379" y="-164" type="curve" smooth="yes"/>
      <point x="379" y="-247"/>
      <point x="421" y="-284"/>
      <point x="520" y="-284" type="curve" smooth="yes"/>
      <point x="631" y="-284"/>
      <point x="711" y="-236"/>
      <point x="730" y="-143" type="curve" smooth="yes"/>
      <point x="745" y="-67" type="line"/>
      <point x="923" y="-67" type="line"/>
      <point x="908" y="-143" type="line" smooth="yes"/>
      <point x="871" y="-332"/>
      <point x="726" y="-425"/>
    </contour>
    <contour>
      <point x="623" y="326" type="curve"/>
      <point x="837" y="353"/>
      <point x="961" y="450"/>
      <point x="995" y="619" type="curve" smooth="yes"/>
      <point x="1001" y="650"/>
      <point x="1004" y="677"/>
      <point x="1004" y="702" type="curve" smooth="yes"/>
      <point x="1004" y="847"/>
      <point x="913" y="917"/>
      <point x="741" y="917" type="curve" smooth="yes"/>
      <point x="529" y="917"/>
      <point x="390" y="811"/>
      <point x="359" y="619" type="curve" smooth="yes"/>
      <point x="355" y="592"/>
      <point x="353" y="568"/>
      <point x="353" y="549" type="curve" smooth="yes"/>
      <point x="353" y="430"/>
      <point x="438" y="347"/>
    </contour>
  </outline>
</glyph>
<glyph name="uni10FA" format="1">
  <advance width="1233"/>
  <unicode hex="10FA"/>
  <outline>
    <contour>
      <point x="636" y="-134" type="line" name="hr00"/>
      <point x="638" y="-134"/>
      <point x="605" y="-85" name="ab01"/>
      <point x="591" y="-68" type="curve" smooth="yes" name="av01"/>
      <point x="559" y="-28"/>
      <point x="512" y="-8"/>
      <point x="451" y="-8" type="curve" smooth="yes"/>
      <point x="364" y="-8" name="sh01"/>
      <point x="290" y="-47"/>
      <point x="230" y="-124" type="curve" name="dv02"/>
      <point x="115" y="-50" type="line" name="sh02"/>
      <point x="173" y="18"/>
      <point x="242" y="60"/>
      <point x="322" y="76" type="curve" name="ah02"/>
      <point x="328" y="106" type="line" name="dv01"/>
      <point x="225" y="193"/>
      <point x="174" y="311" name="sh03"/>
      <point x="174" y="460" type="curve" smooth="yes"/>
      <point x="174" y="507"/>
      <point x="179" y="557" name="av02"/>
      <point x="190" y="608" type="curve" smooth="yes" name="ah01"/>
      <point x="250" y="901" name="sh04"/>
      <point x="432" y="1043"/>
      <point x="759" y="1046" type="curve"/>
      <point x="1005" y="1025"/>
      <point x="1128" y="932"/>
      <point x="1128" y="768" type="curve" smooth="yes"/>
      <point x="1128" y="634"/>
      <point x="1048" y="454"/>
      <point x="888" y="227" type="curve"/>
      <point x="754" y="288" type="line"/>
      <point x="881" y="483"/>
      <point x="944" y="631"/>
      <point x="944" y="734" type="curve" smooth="yes"/>
      <point x="944" y="843"/>
      <point x="870" y="903"/>
      <point x="725" y="903" type="curve" smooth="yes"/>
      <point x="538" y="903"/>
      <point x="420" y="806"/>
      <point x="381" y="610" type="curve" smooth="yes"/>
      <point x="372" y="565"/>
      <point x="366" y="507"/>
      <point x="366" y="452" type="curve" smooth="yes"/>
      <point x="366" y="375"/>
      <point x="378" y="275"/>
      <point x="501" y="147" type="curve"/>
      <point x="615" y="119"/>
      <point x="703" y="56"/>
      <point x="766" y="-42" type="curve"/>
      <point x="636" y="-135" type="line"/>
    </contour>
  </outline>
</glyph>
<glyph name="ygrave" format="1">
  <advance width="1233"/>
  <unicode hex="1EF3"/>
  <outline>
    <contour>
      <point x="470" y="1646" type="line" name="av01"/>
      <point x="668" y="1646" type="line"/>
      <point x="865" y="1270" type="line" name="iv01"/>
      <point x="722" y="1270" type="line"/>
    </contour>
    <contour>
      <point x="20" y="-272" type="line"/>
      <point x="128" y="-272" type="line" smooth="yes" name="dv02"/>
      <point x="239" y="-272"/>
      <point x="313" y="-208"/>
      <point x="386" y="-66" type="curve" smooth="yes" name="at01"/>
      <point x="429" y="18" type="line"/>
      <point x="212" y="1120" type="line"/>
      <point x="395" y="1120" type="line" name="at02"/>
      <point x="567" y="258" type="line"/>
      <point x="1050" y="1120" type="line"/>
      <point x="1255" y="1120" type="line"/>
      <point x="816" y="360" type="line" smooth="yes"/>
      <point x="750" y="246" name="dv01"/>
      <point x="681" y="123"/>
      <point x="651" y="72" type="curve" smooth="yes"/>
      <point x="546" y="-112"/>
      <point x="483" y="-220"/>
      <point x="442" y="-276" type="curve"/>
      <point x="362" y="-381"/>
      <point x="260" y="-426"/>
      <point x="139" y="-426" type="curve" smooth="yes"/>
      <point x="-9" y="-426" type="line"/>
    </contour>
  </outline>
</glyph>
<glyph name="uni2031" format="1">
  <advance width="1233"/>
  <unicode hex="2031"/>
  <outline>
    <contour>
      <point x="286" y="856" type="curve" smooth="yes" name="dv05"/>
      <point x="126" y="856" name="dh01"/>
      <point x="0" y="984" name="dv02"/>
      <point x="0" y="1144" type="curve" smooth="yes" name="sh01"/>
      <point x="0" y="1304"/>
      <point x="126" y="1432" name="dv06"/>
      <point x="287" y="1432" type="curve" smooth="yes" name="ih01"/>
      <point x="447" y="1432" name="dv01"/>
      <point x="573" y="1305"/>
      <point x="573" y="1145" type="curve" smooth="yes" name="dh02"/>
      <point x="573" y="984"/>
      <point x="447" y="856"/>
    </contour>
    <contour>
      <point x="287" y="979" type="curve" smooth="yes"/>
      <point x="379" y="979"/>
      <point x="453" y="1053"/>
      <point x="453" y="1144" type="curve" smooth="yes" name="ab01"/>
      <point x="453" y="1234" name="sh02"/>
      <point x="378" y="1311" name="dv04"/>
      <point x="285" y="1311" type="curve" smooth="yes"/>
      <point x="240" y="1311" name="ih02"/>
      <point x="202" y="1295"/>
      <point x="170" y="1263" type="curve" smooth="yes" name="sv01"/>
      <point x="137" y="1230"/>
      <point x="121" y="1191" name="ih03"/>
      <point x="121" y="1146" type="curve" smooth="yes"/>
      <point x="121" y="1053" name="sv02"/>
      <point x="195" y="979" name="dh08"/>
    </contour>
    <contour>
      <point x="35" y="664" type="line" name="ab02"/>
      <point x="1079" y="1079" type="line"/>
      <point x="1118" y="983" type="line" name="ih04"/>
      <point x="72" y="567" type="line"/>
    </contour>
    <contour>
      <point x="239" y="0" type="curve" smooth="yes" name="ab03"/>
      <point x="103" y="0"/>
      <point x="0" y="124" name="ih05"/>
      <point x="0" y="287" type="curve" smooth="yes"/>
      <point x="0" y="450"/>
      <point x="103" y="575" name="sv03"/>
      <point x="240" y="575" type="curve" smooth="yes" name="dh03"/>
      <point x="300" y="575" name="dv03"/>
      <point x="356" y="552"/>
      <point x="407" y="492" type="curve" smooth="yes"/>
      <point x="414" y="484" name="sv04"/>
      <point x="419" y="475" name="dh05"/>
      <point x="426" y="466" type="curve" name="sv05"/>
      <point x="445" y="492" type="line" name="dh04"/>
      <point x="491" y="547"/>
      <point x="548" y="575" name="sv06"/>
      <point x="617" y="575" type="curve" smooth="yes" name="dh07"/>
      <point x="680" y="575" name="sv07"/>
      <point x="733" y="552" name="dh06"/>
      <point x="785" y="492" type="curve" smooth="yes"/>
      <point x="792" y="485"/>
      <point x="795" y="480" name="sh03"/>
      <point x="804" y="467" type="curve"/>
      <point x="813" y="482"/>
      <point x="820" y="488"/>
      <point x="823" y="492" type="curve" smooth="yes"/>
      <point x="868" y="545"/>
      <point x="923" y="575"/>
      <point x="991" y="575" type="curve" smooth="yes"/>
      <point x="1129" y="575"/>
      <point x="1233" y="449"/>
      <point x="1233" y="289" type="curve" smooth="yes"/>
      <point x="1233" y="128"/>
      <point x="1128" y="0"/>
      <point x="991" y="0" type="curve" smooth="yes"/>
      <point x="922" y="0"/>
      <point x="868" y="32"/>
      <point x="823" y="84" type="curve" smooth="yes"/>
      <point x="816" y="91"/>
      <point x="813" y="96"/>
      <point x="804" y="109" type="curve"/>
      <point x="797" y="100"/>
      <point x="793" y="93"/>
      <point x="785" y="84" type="curve" smooth="yes"/>
      <point x="737" y="28"/>
      <point x="681" y="0"/>
      <point x="616" y="0" type="curve" smooth="yes"/>
      <point x="549" y="0"/>
      <point x="492" y="28"/>
      <point x="445" y="84" type="curve" smooth="yes"/>
      <point x="438" y="93"/>
      <point x="431" y="101"/>
      <point x="426" y="110" type="curve"/>
      <point x="407" y="84" type="line"/>
      <point x="360" y="28"/>
      <point x="304" y="0"/>
    </contour>
    <contour>
      <point x="237" y="121" type="curve" smooth="yes"/>
      <point x="314" y="121"/>
      <point x="376" y="197"/>
      <point x="376" y="288" type="curve" smooth="yes"/>
      <point x="376" y="378"/>
      <point x="314" y="455"/>
      <point x="237" y="455" type="curve" smooth="yes"/>
      <point x="161" y="455"/>
      <point x="101" y="381"/>
      <point x="101" y="288" type="curve" smooth="yes"/>
      <point x="101" y="195"/>
      <point x="161" y="121"/>
    </contour>
    <contour>
      <point x="616" y="121" type="curve" smooth="yes"/>
      <point x="693" y="121"/>
      <point x="754" y="195"/>
      <point x="754" y="287" type="curve" smooth="yes"/>
      <point x="754" y="380"/>
      <point x="691" y="455"/>
      <point x="615" y="455" type="curve" smooth="yes"/>
      <point x="539" y="455"/>
      <point x="477" y="381"/>
      <point x="477" y="288" type="curve" smooth="yes"/>
      <point x="477" y="195"/>
      <point x="539" y="121"/>
    </contour>
    <contour>
      <point x="994" y="121" type="curve" smooth="yes"/>
      <point x="1071" y="121"/>
      <point x="1132" y="195"/>
      <point x="1132" y="287" type="curve" smooth="yes"/>
      <point x="1132" y="380"/>
      <point x="1069" y="455"/>
      <point x="993" y="455" type="curve" smooth="yes"/>
      <point x="917" y="455"/>
      <point x="855" y="381"/>
      <point x="855" y="288" type="curve" smooth="yes"/>
      <point x="855" y="195"/>
      <point x="917" y="121"/>
    </contour>
  </outline>
</glyph>
<glyph name="uni2076" format="1">
  <advance width="1233"/>
  <unicode hex="2076"/>
  <outline>
    <contour>
      <point x="634" y="1113" type="curve" smooth="yes" name="dv01"/>
      <point x="455" y="1113" name="sh01"/>
      <point x="354" y="1199"/>
      <point x="354" y="1375" type="curve" smooth="yes" name="sh02"/>
      <point x="354" y="1482"/>
      <point x="391" y="1631"/>
      <point x="452" y="1740" type="curve" name="dv03"/>
      <point x="540" y="1901" name="ih01"/>
      <point x="677" y="1980" name="dv05"/>
      <point x="860" y="1980" type="curve" smooth="yes" name="sh03"/>
      <point x="931" y="1980"/>
      <point x="994" y="1968"/>
      <point x="1050" y="1947" type="curve" name="dv02"/>
      <point x="1026" y="1843" type="line" name="ah02"/>
      <point x="974" y="1870" name="dv04"/>
      <point x="912" y="1885" name="sh04"/>
      <point x="847" y="1885" type="curve" smooth="yes"/>
      <point x="672" y="1885" name="ah01"/>
      <point x="559" y="1778" name="sh05"/>
      <point x="510" y="1565" type="curve"/>
      <point x="575" y="1646"/>
      <point x="655" y="1682"/>
      <point x="760" y="1682" type="curve" smooth="yes"/>
      <point x="913" y="1682"/>
      <point x="1006" y="1607"/>
      <point x="1006" y="1467" type="curve" smooth="yes"/>
      <point x="1006" y="1382"/>
      <point x="971" y="1289"/>
      <point x="907" y="1221" type="curve" smooth="yes"/>
      <point x="834" y="1142"/>
      <point x="738" y="1113"/>
    </contour>
    <contour>
      <point x="639" y="1201" type="curve" smooth="yes"/>
      <point x="781" y="1201"/>
      <point x="870" y="1327"/>
      <point x="870" y="1451" type="curve" smooth="yes"/>
      <point x="870" y="1548"/>
      <point x="817" y="1593"/>
      <point x="725" y="1593" type="curve" smooth="yes"/>
      <point x="580" y="1593"/>
      <point x="489" y="1477"/>
      <point x="489" y="1353" type="curve" smooth="yes"/>
      <point x="489" y="1253"/>
      <point x="547" y="1201"/>
    </contour>
  </outline>
</glyph>
<glyph name="uni2078" format="1">
  <advance width="1233"/>
  <unicode hex="2078"/>
  <outline>
    <contour>
      <point x="617" y="1113" type="curve" smooth="yes" name="dv01"/>
      <point x="435" y="1113" name="dh01"/>
      <point x="321" y="1194" name="ih01"/>
      <point x="321" y="1327" type="curve" smooth="yes" name="ih02"/>
      <point x="321" y="1451" name="dv04"/>
      <point x="422" y="1545" name="sh02"/>
      <point x="582" y="1574" type="curve" name="ih03"/>
      <point x="482" y="1603" name="dh04"/>
      <point x="437" y="1659"/>
      <point x="437" y="1735" type="curve" smooth="yes" name="dv06"/>
      <point x="437" y="1871" name="sh01"/>
      <point x="588" y="1980" name="dv03"/>
      <point x="780" y="1980" type="curve" smooth="yes" name="sh03"/>
      <point x="939" y="1980"/>
      <point x="1050" y="1905" name="dv02"/>
      <point x="1050" y="1796" type="curve" smooth="yes" name="dh03"/>
      <point x="1050" y="1695" name="dv05"/>
      <point x="956" y="1599" name="dh02"/>
      <point x="812" y="1567" type="curve"/>
      <point x="929" y="1544"/>
      <point x="982" y="1478" name="sh04"/>
      <point x="982" y="1383" type="curve" smooth="yes"/>
      <point x="982" y="1226"/>
      <point x="832" y="1113"/>
    </contour>
    <contour>
      <point x="716" y="1614" type="curve" smooth="yes"/>
      <point x="828" y="1614"/>
      <point x="915" y="1689"/>
      <point x="915" y="1778" type="curve" smooth="yes"/>
      <point x="915" y="1851"/>
      <point x="857" y="1893"/>
      <point x="768" y="1893" type="curve" smooth="yes"/>
      <point x="655" y="1893"/>
      <point x="573" y="1826"/>
      <point x="573" y="1735" type="curve" smooth="yes"/>
      <point x="573" y="1659"/>
      <point x="628" y="1614"/>
    </contour>
    <contour>
      <point x="625" y="1200" type="curve" smooth="yes"/>
      <point x="756" y="1200"/>
      <point x="845" y="1276"/>
      <point x="845" y="1384" type="curve" smooth="yes"/>
      <point x="845" y="1475"/>
      <point x="783" y="1526"/>
      <point x="679" y="1526" type="curve" smooth="yes"/>
      <point x="548" y="1526"/>
      <point x="458" y="1442"/>
      <point x="458" y="1336" type="curve" smooth="yes"/>
      <point x="458" y="1245"/>
      <point x="522" y="1200"/>
    </contour>
  </outline>
</glyph>
<glyph name="uni207E" format="1">
  <advance width="1233"/>
  <unicode hex="207E"/>
  <outline>
    <contour>
      <point x="406" y="517" type="line" name="av02"/>
      <point x="605" y="742" name="dh01"/>
      <point x="706" y="970" name="av01"/>
      <point x="706" y="1195" type="curve" smooth="yes"/>
      <point x="706" y="1304" name="dh02"/>
      <point x="681" y="1419" name="av03"/>
      <point x="630" y="1538" type="curve"/>
      <point x="732" y="1538" type="line"/>
      <point x="796" y="1397"/>
      <point x="828" y="1288"/>
      <point x="828" y="1171" type="curve" smooth="yes"/>
      <point x="828" y="947"/>
      <point x="713" y="720"/>
      <point x="506" y="517" type="curve"/>
    </contour>
  </outline>
</glyph>
<glyph name="uni20A2" format="1">
  <advance width="1233"/>
  <unicode hex="20A2"/>
  <outline>
    <contour>
      <point x="587" y="-29" type="curve" smooth="yes" name="av01"/>
      <point x="264" y="-29" name="dh01"/>
      <point x="78" y="192"/>
      <point x="78" y="562" type="curve" smooth="yes" name="at01"/>
      <point x="78" y="801"/>
      <point x="154" y="1047" name="iv01"/>
      <point x="274" y="1226" type="curve" smooth="yes" name="sv01"/>
      <point x="411" y="1429"/>
      <point x="587" y="1520" name="dh02"/>
      <point x="802" y="1520" type="curve" smooth="yes"/>
      <point x="955" y="1520"/>
      <point x="1074" y="1474" name="dv02"/>
      <point x="1185" y="1378" type="curve"/>
      <point x="1151" y="1165" type="line" name="sv02"/>
      <point x="1043" y="1294"/>
      <point x="930" y="1356" name="iv02"/>
      <point x="789" y="1356" type="curve" smooth="yes" name="dv01"/>
      <point x="600" y="1356"/>
      <point x="460" y="1248" name="iv03"/>
      <point x="357" y="1024" type="curve" smooth="yes" name="iv04"/>
      <point x="289" y="875"/>
      <point x="255" y="713"/>
      <point x="255" y="560" type="curve" smooth="yes"/>
      <point x="255" y="273"/>
      <point x="374" y="163"/>
      <point x="533" y="139" type="curve"/>
      <point x="674" y="1008" type="line"/>
      <point x="812" y="1008" type="line"/>
      <point x="785" y="851" type="line"/>
      <point x="858" y="968"/>
      <point x="960" y="1032"/>
      <point x="1077" y="1032" type="curve" smooth="yes"/>
      <point x="1105" y="1032"/>
      <point x="1135" y="1028"/>
      <point x="1163" y="1019" type="curve"/>
      <point x="1138" y="855" type="line"/>
      <point x="1110" y="874"/>
      <point x="1072" y="883"/>
      <point x="1035" y="883" type="curve" smooth="yes"/>
      <point x="889" y="883"/>
      <point x="770" y="743"/>
      <point x="733" y="514" type="curve"/>
      <point x="671" y="140" type="line"/>
      <point x="769" y="153"/>
      <point x="890" y="193"/>
      <point x="1023" y="313" type="curve"/>
      <point x="984" y="74" type="line"/>
      <point x="851" y="6"/>
      <point x="716" y="-29"/>
    </contour>
  </outline>
</glyph>
<glyph name="lira" format="1">
  <advance width="1233"/>
  <unicode hex="20A4"/>
  <outline>
    <contour>
      <point x="76" y="170" type="line" name="sv01"/>
      <point x="292" y="170" type="line"/>
      <point x="358" y="535" type="line" name="dv01"/>
      <point x="170" y="535" type="line"/>
      <point x="196" y="678" type="line"/>
      <point x="383" y="678" type="line" name="dv02"/>
      <point x="409" y="827" type="line" name="dv03"/>
      <point x="223" y="827" type="line"/>
      <point x="250" y="970" type="line"/>
      <point x="435" y="970" type="line" name="dv04"/>
      <point x="443" y="1016" type="line" smooth="yes"/>
      <point x="505" y="1366" name="at01"/>
      <point x="670" y="1520"/>
      <point x="939" y="1520" type="curve" smooth="yes" name="iv01"/>
      <point x="1036" y="1520" name="sv02"/>
      <point x="1116" y="1500"/>
      <point x="1203" y="1460" type="curve" name="sv03"/>
      <point x="1170" y="1278" type="line"/>
      <point x="1091" y="1333" name="sv04"/>
      <point x="1018" y="1360"/>
      <point x="926" y="1360" type="curve" smooth="yes" name="sv05"/>
      <point x="754" y="1360"/>
      <point x="673" y="1260" name="sv06"/>
      <point x="625" y="993" type="curve" smooth="yes"/>
      <point x="621" y="970" type="line" name="sv07"/>
      <point x="978" y="970" type="line" name="sv08"/>
      <point x="951" y="827" type="line" name="ab01"/>
      <point x="595" y="827" type="line"/>
      <point x="569" y="678" type="line"/>
      <point x="924" y="678" type="line"/>
      <point x="898" y="535" type="line"/>
      <point x="543" y="535" type="line"/>
      <point x="477" y="170" type="line"/>
      <point x="972" y="170" type="line"/>
      <point x="942" y="0" type="line"/>
      <point x="45" y="0" type="line"/>
    </contour>
  </outline>
</glyph>
<glyph name="uni20B0" format="1">
  <advance width="1233"/>
  <unicode hex="20B0"/>
  <outline>
    <contour>
      <point x="511" y="133" type="line" name="dv02"/>
      <point x="674" y="133"/>
      <point x="797" y="218" name="dh03"/>
      <point x="832" y="414" type="curve" smooth="yes"/>
      <point x="833" y="423" name="dv03"/>
      <point x="834" y="431"/>
      <point x="834" y="442" type="curve" smooth="yes" name="sv01"/>
      <point x="834" y="493"/>
      <point x="809" y="551"/>
      <point x="760" y="616" type="curve" name="sv02"/>
      <point x="657" y="529"/>
      <point x="581" y="490" name="dv04"/>
      <point x="509" y="490" type="curve" smooth="yes"/>
      <point x="419" y="490" name="dh01"/>
      <point x="382" y="555"/>
      <point x="361" y="594" type="curve" smooth="yes" name="at01"/>
      <point x="341" y="631" name="sh01"/>
      <point x="321" y="664"/>
      <point x="286" y="664" type="curve" smooth="yes"/>
      <point x="246" y="664" name="dh04"/>
      <point x="202" y="620" name="sh02"/>
      <point x="126" y="516" type="curve" name="dv01"/>
      <point x="17" y="612" type="line"/>
      <point x="152" y="795"/>
      <point x="228" y="852" name="ih01"/>
      <point x="310" y="852" type="curve" smooth="yes" name="sv03"/>
      <point x="365" y="852"/>
      <point x="418" y="829" name="dh02"/>
      <point x="451" y="774" type="curve" smooth="yes"/>
      <point x="495" y="702"/>
      <point x="516" y="667" name="sh03"/>
      <point x="547" y="667" type="curve" smooth="yes"/>
      <point x="570" y="667"/>
      <point x="608" y="689"/>
      <point x="649" y="733" type="curve"/>
      <point x="556" y="826"/>
      <point x="510" y="937"/>
      <point x="510" y="1064" type="curve" smooth="yes"/>
      <point x="510" y="1095"/>
      <point x="513" y="1129"/>
      <point x="519" y="1164" type="curve" smooth="yes"/>
      <point x="559" y="1396"/>
      <point x="699" y="1520"/>
      <point x="854" y="1520" type="curve" smooth="yes"/>
      <point x="1003" y="1520"/>
      <point x="1077" y="1402"/>
      <point x="1077" y="1270" type="curve" smooth="yes"/>
      <point x="1077" y="1243"/>
      <point x="1074" y="1204"/>
      <point x="1067" y="1164" type="curve" smooth="yes"/>
      <point x="1044" y="1027"/>
      <point x="987" y="883"/>
      <point x="899" y="766" type="curve"/>
      <point x="971" y="678"/>
      <point x="1007" y="588"/>
      <point x="1007" y="488" type="curve" smooth="yes"/>
      <point x="1007" y="464"/>
      <point x="1005" y="437"/>
      <point x="1001" y="412" type="curve" smooth="yes"/>
      <point x="963" y="163"/>
      <point x="788" y="-29"/>
      <point x="482" y="-29" type="curve"/>
    </contour>
    <contour>
      <point x="782" y="881" type="curve"/>
      <point x="839" y="957"/>
      <point x="877" y="1063"/>
      <point x="894" y="1164" type="curve" smooth="yes"/>
      <point x="899" y="1192"/>
      <point x="901" y="1218"/>
      <point x="901" y="1237" type="curve" smooth="yes"/>
      <point x="901" y="1287"/>
      <point x="888" y="1362"/>
      <point x="827" y="1362" type="curve" smooth="yes"/>
      <point x="765" y="1362"/>
      <point x="711" y="1280"/>
      <point x="692" y="1164" type="curve" smooth="yes"/>
      <point x="688" y="1142"/>
      <point x="686" y="1121"/>
      <point x="686" y="1100" type="curve" smooth="yes"/>
      <point x="686" y="1017"/>
      <point x="718" y="944"/>
    </contour>
  </outline>
</glyph>
<glyph name="fiveeighths" format="1">
  <advance width="1233"/>
  <unicode hex="215D"/>
  <outline>
    <contour>
      <point x="320" y="809" type="curve" smooth="yes" name="dv11"/>
      <point x="232" y="809"/>
      <point x="144" y="821"/>
      <point x="80" y="845" type="curve" name="dv12"/>
      <point x="107" y="959" type="line" name="dh03"/>
      <point x="183" y="922" name="dv05"/>
      <point x="265" y="903"/>
      <point x="341" y="903" type="curve" smooth="yes"/>
      <point x="513" y="903" name="dv04"/>
      <point x="634" y="1002" name="dv03"/>
      <point x="634" y="1129" type="curve" smooth="yes"/>
      <point x="634" y="1229" name="iv01"/>
      <point x="559" y="1284" name="dv06"/>
      <point x="428" y="1284" type="curve" smooth="yes" name="dh04"/>
      <point x="360" y="1284"/>
      <point x="284" y="1269"/>
      <point x="216" y="1241" type="curve"/>
      <point x="314" y="1659" type="line"/>
      <point x="822" y="1659" type="line"/>
      <point x="799" y="1564" type="line"/>
      <point x="416" y="1564" type="line" name="dv01"/>
      <point x="367" y="1360" type="line" name="dh01"/>
      <point x="410" y="1372" name="ih01"/>
      <point x="449" y="1377" name="ih02"/>
      <point x="488" y="1377" type="curve" smooth="yes" name="dv10"/>
      <point x="657" y="1377" name="sh02"/>
      <point x="769" y="1285" name="ih03"/>
      <point x="769" y="1145" type="curve" smooth="yes" name="dh06"/>
      <point x="769" y="1049"/>
      <point x="718" y="962" name="dv08"/>
      <point x="634" y="898" type="curve" smooth="yes" name="sh01"/>
      <point x="554" y="838" name="dv09"/>
      <point x="457" y="809" name="sh03"/>
    </contour>
    <contour>
      <point x="47" y="612" type="line"/>
      <point x="1106" y="870" type="line" name="dv02"/>
      <point x="1133" y="762" type="line" name="dh05"/>
      <point x="70" y="504" type="line" name="dv07"/>
    </contour>
    <contour>
      <point x="754" y="-285" type="curve" smooth="yes" name="dh02"/>
      <point x="572" y="-285"/>
      <point x="458" y="-204"/>
      <point x="458" y="-71" type="curve" smooth="yes" name="sh04"/>
      <point x="458" y="53"/>
      <point x="559" y="147"/>
      <point x="719" y="176" type="curve"/>
      <point x="619" y="205"/>
      <point x="574" y="261"/>
      <point x="574" y="337" type="curve" smooth="yes"/>
      <point x="574" y="473"/>
      <point x="725" y="582"/>
      <point x="917" y="582" type="curve" smooth="yes"/>
      <point x="1076" y="582"/>
      <point x="1187" y="507"/>
      <point x="1187" y="398" type="curve" smooth="yes"/>
      <point x="1187" y="297"/>
      <point x="1093" y="201"/>
      <point x="949" y="169" type="curve"/>
      <point x="1066" y="146"/>
      <point x="1119" y="80"/>
      <point x="1119" y="-15" type="curve" smooth="yes"/>
      <point x="1119" y="-172"/>
      <point x="969" y="-285"/>
    </contour>
    <contour>
      <point x="853" y="216" type="curve" smooth="yes"/>
      <point x="965" y="216"/>
      <point x="1052" y="291"/>
      <point x="1052" y="380" type="curve" smooth="yes"/>
      <point x="1052" y="453"/>
      <point x="994" y="495"/>
      <point x="905" y="495" type="curve" smooth="yes"/>
      <point x="792" y="495"/>
      <point x="710" y="428"/>
      <point x="710" y="337" type="curve" smooth="yes"/>
      <point x="710" y="261"/>
      <point x="765" y="216"/>
    </contour>
    <contour>
      <point x="762" y="-198" type="curve" smooth="yes"/>
      <point x="893" y="-198"/>
      <point x="982" y="-122"/>
      <point x="982" y="-14" type="curve" smooth="yes"/>
      <point x="982" y="77"/>
      <point x="920" y="128"/>
      <point x="816" y="128" type="curve" smooth="yes"/>
      <point x="685" y="128"/>
      <point x="595" y="44"/>
      <point x="595" y="-62" type="curve" smooth="yes"/>
      <point x="595" y="-153"/>
      <point x="659" y="-198"/>
    </contour>
  </outline>
</glyph>
